<svg width="93" height="28" viewBox="0 0 93 28" fill="none" xmlns="http://www.w3.org/2000/svg">
<g clip-path="url(#clip0_445_10475)">
<path d="M28.7072 20.7703C28.5715 20.7748 28.4381 20.8064 28.3153 20.8631C28.1924 20.9199 28.0828 21.0004 27.9931 21.1C27.5906 21.501 27.1494 21.863 26.6755 22.1809C26.122 22.5863 25.5131 22.9754 24.9152 23.3376C24.3799 23.6679 23.8254 23.9675 23.2545 24.2348C22.9296 24.4111 22.5722 24.5232 22.2027 24.5645C22.2928 24.3498 22.406 24.1451 22.5404 23.9537C22.8449 23.4997 23.2158 22.97 23.6475 22.3809L25.0979 20.4569C25.6183 19.7758 26.1054 19.1002 26.5594 18.4516C26.9719 17.8509 27.3472 17.2264 27.6831 16.5816C27.9756 16.0858 28.148 15.5312 28.1868 14.9602C28.2019 14.7571 28.158 14.5541 28.0601 14.3743C27.9621 14.1945 27.8142 14.0454 27.6332 13.9441C27.3065 13.782 26.9421 13.7057 26.576 13.7226C25.9472 13.745 25.3312 13.9018 24.7713 14.182C24.0794 14.5059 23.4133 14.8798 22.7785 15.3008C22.0864 15.7547 21.3779 16.2736 20.6749 16.8357C19.9718 17.3978 19.3075 17.949 18.6654 18.5112L18.8038 18.3004C19.1526 17.7599 19.4736 17.2464 19.7614 16.7491C20.0307 16.2845 20.2711 15.8045 20.4811 15.3115C20.6763 14.9168 20.7928 14.4895 20.8243 14.0522C20.837 13.842 20.7886 13.6327 20.6848 13.4482C20.581 13.2636 20.426 13.1115 20.2375 13.0091C19.8937 12.844 19.5135 12.7642 19.1304 12.7767C18.1864 12.8598 17.2805 13.1801 16.501 13.7063L16.3515 13.7928C16.6882 12.6788 16.8523 11.5221 16.8386 10.3608C16.8386 7.58274 16.0637 5.37759 14.5303 3.81021C13.7355 3.01495 12.778 2.39215 11.7202 1.9824C10.6625 1.57264 9.52812 1.38514 8.39114 1.43212C7.11684 1.41627 5.85272 1.65539 4.67668 2.13474C3.82161 2.50307 3.05151 3.03618 2.41257 3.70212C1.7361 4.39599 1.18739 5.19867 0.790611 6.0748C0.228565 7.47108 -0.0388049 8.96382 0.00454055 10.4635C0.00454055 13.1658 0.774004 15.3277 2.29079 16.9167C3.80757 18.5058 5.88347 19.2732 8.4465 19.2732C8.76757 19.2732 11.945 19.7596 16.5729 15.9817C16.5231 16.0953 16.4512 16.2303 16.3626 16.3925C16.0748 16.933 13.7276 20.8838 13.5947 21.1378C13.5522 21.2195 13.5223 21.307 13.5061 21.3972C13.4934 21.5104 13.4934 21.6246 13.5061 21.7378C13.5278 21.9529 13.5968 22.161 13.7086 22.3475C13.8205 22.5342 13.9723 22.6949 14.1538 22.8188C14.5253 23.1394 15.0031 23.3179 15.499 23.3214C15.7109 23.307 15.9179 23.2518 16.1078 23.1591C16.2979 23.0663 16.4672 22.9378 16.6061 22.7809C19.4182 20.2947 20.2155 19.7867 21.2893 18.9489C21.9979 18.4084 22.6013 18.041 23.1438 17.6734L22.009 19.0841C21.544 19.6678 21.079 20.2569 20.6251 20.8298C20.1712 21.4027 19.8999 21.8458 19.4792 22.4512C19.088 23.0043 18.7347 23.5821 18.4218 24.1808C18.1539 24.6465 17.9986 25.1661 17.9679 25.6994C17.9584 25.9813 18.0289 26.2601 18.1715 26.5051C18.3141 26.7503 18.5234 26.9522 18.7762 27.0885C19.2581 27.3561 19.8049 27.4924 20.3593 27.483C21.2863 27.4519 22.1934 27.2134 23.0109 26.7858C23.8612 26.4091 24.6762 25.9605 25.4466 25.4454C26.2825 24.8563 27.052 24.2672 27.7218 23.6943C28.3917 23.1214 28.7902 22.6998 29.0836 22.4188C29.2068 22.3064 29.3056 22.171 29.3741 22.0206C29.4425 21.8702 29.4793 21.7078 29.4822 21.5432C29.4893 21.4413 29.4743 21.3391 29.4382 21.2432C29.4019 21.1473 29.3454 21.0601 29.2722 20.9871C29.199 20.9142 29.1108 20.8571 29.0134 20.8197C28.9161 20.7823 28.8118 20.7655 28.7072 20.7703ZM11.5077 14.4251C11.1318 14.8597 10.6603 15.2058 10.1284 15.438C9.59646 15.67 9.0178 15.7819 8.43542 15.7656C7.85018 15.7814 7.26876 15.6687 6.73411 15.4359C6.19946 15.2029 5.72525 14.8556 5.3465 14.4197C4.53275 13.5117 4.11757 12.1389 4.11757 10.35C4.11757 8.56099 4.52168 7.16116 5.31328 6.26938C5.69988 5.83454 6.18175 5.49022 6.72317 5.26193C7.2646 5.03365 7.8517 4.92724 8.44096 4.95061C9.02531 4.92393 9.60827 5.02678 10.1461 5.25143C10.684 5.47608 11.1627 5.8167 11.5465 6.24776C12.3271 7.12333 12.7201 8.48533 12.7201 10.3013C12.7201 12.1173 12.3105 13.5117 11.5077 14.4251Z" fill="white"/>
<path d="M28.0595 2.19452H26.5759V0.697404C26.5768 0.604719 26.5584 0.512831 26.5221 0.427191C26.4858 0.341553 26.4323 0.263911 26.3646 0.198878C26.297 0.133844 26.2166 0.0827445 26.1284 0.0486133C26.0401 0.0144821 25.9457 -0.0019848 25.8508 0.00019058H25.3803C25.1928 0.00302863 25.014 0.0777359 24.8824 0.208182C24.7509 0.338629 24.6772 0.51435 24.6772 0.697404V2.19452H23.1826C23.0895 2.19523 22.9975 2.21382 22.9119 2.24925C22.8261 2.28467 22.7484 2.33622 22.6831 2.40096C22.6179 2.46571 22.5663 2.54237 22.5313 2.62657C22.4964 2.71079 22.4788 2.80088 22.4795 2.89173V3.35654C22.4788 3.4474 22.4964 3.53749 22.5313 3.62171C22.5663 3.70591 22.6179 3.78257 22.6831 3.84731C22.7484 3.91206 22.8261 3.96361 22.9119 3.99903C22.9975 4.03445 23.0895 4.05305 23.1826 4.05376H24.6827V5.55087C24.6827 5.73393 24.7564 5.90965 24.888 6.04009C25.0195 6.17054 25.1984 6.24524 25.3858 6.24809H25.8563C25.9508 6.24954 26.0445 6.23253 26.1322 6.19807C26.2198 6.16361 26.2995 6.11239 26.3665 6.04743C26.4335 5.98247 26.4866 5.90508 26.5226 5.8198C26.5586 5.73453 26.5767 5.64309 26.5759 5.55087V4.05376H28.0817C28.1747 4.05305 28.2667 4.03445 28.3524 3.99903C28.4381 3.96361 28.5158 3.91206 28.5811 3.84731C28.6464 3.78257 28.698 3.70591 28.7328 3.62171C28.7678 3.53749 28.7855 3.4474 28.7847 3.35654V2.89173C28.7855 2.80088 28.7678 2.71079 28.7328 2.62657C28.698 2.54237 28.6464 2.46571 28.5811 2.40096C28.5158 2.33622 28.4381 2.28467 28.3524 2.24925C28.2667 2.21382 28.1747 2.19523 28.0817 2.19452" fill="white"/>
<path d="M44.4156 15.7919C44.3954 15.7157 44.3451 15.6505 44.276 15.6102C44.2313 15.5855 44.1811 15.5721 44.1298 15.5713H44.0435C43.9302 15.6044 43.8147 15.6304 43.698 15.6492L43.3126 15.7011L42.9671 15.7465H42.7013C42.4326 15.7544 42.1652 15.7057 41.9174 15.6038C41.7349 15.5297 41.5781 15.4057 41.4656 15.247C41.3381 15.0635 41.252 14.8556 41.2132 14.6372C41.1553 14.3488 41.1286 14.0554 41.1334 13.7615C41.0976 13.2127 41.2368 12.6666 41.532 12.1982C41.6679 12.0311 41.8438 11.8993 42.0443 11.8144C42.2449 11.7295 42.4637 11.6943 42.6814 11.7118C42.8703 11.7134 43.059 11.7265 43.2462 11.7506C43.4586 11.7784 43.6677 11.8262 43.8707 11.8933H43.9637C44.0122 11.8939 44.0602 11.8829 44.1032 11.861C44.1401 11.8402 44.1722 11.8122 44.1973 11.7786C44.2226 11.7451 44.2402 11.7069 44.2494 11.6663L44.4221 10.9463C44.4398 10.875 44.4298 10.7998 44.3942 10.7353C44.3587 10.6706 44.3001 10.6211 44.2294 10.596C43.986 10.5171 43.7375 10.4543 43.4854 10.4078C43.1824 10.3581 42.8756 10.3341 42.5685 10.3365C42.0312 10.3331 41.5031 10.4722 41.0404 10.7387C40.6587 10.9465 40.333 11.2401 40.0903 11.5949C39.8699 11.9282 39.7124 12.2973 39.6252 12.6847C39.4374 13.4765 39.4374 14.2996 39.6252 15.0912C39.7144 15.4808 39.8864 15.8476 40.1303 16.1681C40.3776 16.486 40.7048 16.7362 41.0802 16.8946C41.5283 17.0757 42.0107 17.162 42.4954 17.1476C42.6482 17.1476 42.8144 17.1476 42.9804 17.1476C43.1465 17.1476 43.3193 17.1087 43.4854 17.0827C43.6442 17.058 43.8016 17.0256 43.9571 16.9854C44.1068 16.9517 44.2534 16.9062 44.3955 16.8492C44.4629 16.823 44.5178 16.7734 44.5498 16.7098C44.5816 16.6462 44.5883 16.5734 44.5683 16.5054L44.4156 15.7919Z" fill="white"/>
<path d="M54.8352 15.759H52.005V10.7382C52.0059 10.7001 51.9989 10.6623 51.9847 10.6269C51.9703 10.5916 51.9489 10.5593 51.9217 10.5322C51.8945 10.5049 51.862 10.4833 51.8261 10.4686C51.7902 10.4539 51.7516 10.4463 51.7127 10.4463H50.6762C50.6372 10.4463 50.5986 10.4539 50.5627 10.4686C50.5268 10.4833 50.4942 10.5049 50.4671 10.5322C50.4398 10.5593 50.4185 10.5916 50.4042 10.6269C50.3898 10.6623 50.383 10.7001 50.3839 10.7382V16.7708C50.383 16.8092 50.3898 16.8473 50.404 16.883C50.4182 16.9188 50.4396 16.9515 50.4667 16.9792C50.4939 17.0068 50.5263 17.029 50.5622 17.0445C50.5981 17.06 50.6368 17.0683 50.6762 17.0692H54.8153C54.8545 17.0683 54.8933 17.06 54.9292 17.0445C54.9651 17.029 54.9976 17.0068 55.0248 16.9792C55.0519 16.9515 55.0732 16.9188 55.0874 16.883C55.1017 16.8473 55.1085 16.8092 55.1076 16.7708V16.0573C55.1096 15.983 55.0825 15.9108 55.032 15.8554C54.9814 15.7999 54.911 15.7654 54.8352 15.759Z" fill="white"/>
<path d="M62.2021 10.472H61.2122C61.1329 10.472 61.0568 10.5027 61.0007 10.5575C60.9446 10.6122 60.9132 10.6865 60.9132 10.7639V16.7707C60.9123 16.8095 60.9194 16.8482 60.934 16.8843C60.9486 16.9205 60.9705 16.9535 60.9983 16.9813C61.0262 17.009 61.0594 17.0311 61.0961 17.0462C61.1329 17.0612 61.1723 17.069 61.2122 17.069H62.2021C62.2413 17.0682 62.28 17.0598 62.3159 17.0443C62.352 17.0288 62.3844 17.0066 62.4116 16.979C62.4387 16.9512 62.46 16.9186 62.4743 16.8828C62.4885 16.847 62.4953 16.809 62.4944 16.7707V10.7379C62.4878 10.6662 62.4543 10.5994 62.4004 10.5503C62.3465 10.5012 62.2758 10.4733 62.2021 10.472Z" fill="white"/>
<path d="M73.4878 10.4788H72.531C72.4518 10.4788 72.3756 10.5095 72.3196 10.5643C72.2636 10.619 72.232 10.6932 72.232 10.7707V14.3254L71.8932 13.7935C71.5544 13.2552 71.2289 12.7232 70.8767 12.1977C70.5245 11.6724 70.2123 11.1404 69.8402 10.6085C69.8142 10.5695 69.7788 10.5373 69.7372 10.5146C69.6955 10.492 69.6488 10.4797 69.6011 10.4788H68.5912C68.5131 10.4805 68.4387 10.5119 68.384 10.5665C68.3295 10.6212 68.2989 10.6944 68.2989 10.7707V16.7709C68.298 16.8092 68.3049 16.8474 68.3191 16.8832C68.3333 16.9188 68.3546 16.9516 68.3817 16.9792C68.4089 17.007 68.4414 17.0292 68.4773 17.0447C68.5132 17.06 68.5519 17.0684 68.5912 17.0693H69.5479C69.5875 17.0693 69.6266 17.0615 69.663 17.0465C69.6993 17.0312 69.7321 17.009 69.7595 16.9811C69.7868 16.9533 69.8081 16.9202 69.8219 16.8841C69.8358 16.848 69.8421 16.8095 69.8402 16.7709V13.1579L70.0462 13.4886C70.4183 14.0595 70.777 14.6367 71.1425 15.2141C71.5079 15.7914 71.8732 16.3687 72.2453 16.9395C72.272 16.9795 72.3084 17.0123 72.3514 17.0349C72.3943 17.0576 72.4424 17.0694 72.4912 17.0693H73.4812C73.5204 17.0684 73.559 17.06 73.5951 17.0447C73.631 17.0292 73.6635 17.007 73.6906 16.9792C73.7178 16.9516 73.7391 16.9188 73.7533 16.8832C73.7675 16.8474 73.7743 16.8092 73.7735 16.7709V10.7707C73.7736 10.6955 73.7439 10.6231 73.6906 10.5688C73.6375 10.5143 73.5648 10.4821 73.4878 10.4788Z" fill="white"/>
<path d="M80.8738 10.4723H79.8904C79.8133 10.4687 79.7377 10.4943 79.6794 10.5439C79.6212 10.5935 79.5849 10.6631 79.5782 10.7382V16.7709C79.5773 16.8098 79.5844 16.8484 79.599 16.8846C79.6136 16.9207 79.6355 16.9537 79.6633 16.9815C79.6912 17.0093 79.7245 17.0313 79.7611 17.0464C79.7979 17.0615 79.8374 17.0693 79.8771 17.0693H80.8604C80.8998 17.0685 80.9385 17.06 80.9744 17.0447C81.0103 17.0292 81.0427 17.007 81.0699 16.9792C81.097 16.9515 81.1184 16.9188 81.1326 16.8832C81.1468 16.8474 81.1536 16.8092 81.1527 16.7709V10.7382C81.1465 10.6686 81.1149 10.6035 81.0638 10.5548C81.0125 10.506 80.9452 10.4766 80.8738 10.4723Z" fill="white"/>
<path d="M92.0742 16.4856L91.8948 15.7916C91.8859 15.7535 91.8688 15.7176 91.8448 15.6863C91.8207 15.655 91.7903 15.629 91.7553 15.61C91.7126 15.5862 91.6648 15.5729 91.6157 15.571H91.5294C91.4137 15.604 91.2961 15.63 91.1772 15.6489L90.792 15.7008C90.6723 15.7008 90.5527 15.7332 90.4464 15.7462H90.1807C89.9118 15.7554 89.6441 15.7066 89.3967 15.6035C89.2149 15.5281 89.0583 15.4046 88.9449 15.2468C88.8173 15.0633 88.7311 14.8555 88.6924 14.6369C88.6341 14.3487 88.6073 14.0551 88.6128 13.7613C88.5769 13.2124 88.7162 12.6663 89.0114 12.1979C89.1465 12.0318 89.3215 11.9005 89.5206 11.8158C89.7199 11.7309 89.9374 11.6951 90.1541 11.7115C90.343 11.7134 90.5315 11.7263 90.7189 11.7503C90.9291 11.7781 91.136 11.8259 91.3367 11.893H91.4297C91.4783 11.894 91.5263 11.8829 91.5693 11.8607C91.6054 11.8399 91.6366 11.8117 91.6607 11.7782C91.6848 11.7446 91.7012 11.7063 91.7088 11.6661L91.8881 10.946C91.9072 10.8747 91.8981 10.7988 91.8623 10.7339C91.8266 10.6689 91.7669 10.6195 91.6955 10.5957C91.452 10.5167 91.2035 10.4537 90.9514 10.4076C90.6463 10.3571 90.3373 10.3332 90.0278 10.3363C89.5027 10.3176 88.9821 10.4364 88.5197 10.6801C88.1377 10.8875 87.812 11.1811 87.5697 11.5363C87.3399 11.8757 87.1777 12.2541 87.0913 12.6519C87.006 13.0204 86.9615 13.3965 86.9584 13.7742C86.9529 14.2109 87.0019 14.6465 87.1046 15.0715C87.1926 15.4614 87.3647 15.8286 87.6095 16.1484C87.8572 16.4661 88.1843 16.7162 88.5596 16.8748C89.0077 17.0557 89.4901 17.142 89.9747 17.1278C90.1276 17.1278 90.287 17.1278 90.4597 17.1278L90.9646 17.063C91.1256 17.0384 91.2853 17.0059 91.443 16.9657C91.593 16.9327 91.7396 16.8871 91.8815 16.8294C91.9516 16.8057 92.0101 16.7574 92.0457 16.6938C92.0813 16.6302 92.0914 16.5561 92.0742 16.4856Z" fill="white"/>
</g>
<defs>
<clipPath id="clip0_445_10475">
<rect width="92.0819" height="27.4835" fill="white"/>
</clipPath>
</defs>
</svg>
