<svg width="19" height="19" viewBox="0 0 19 19" fill="none" xmlns="http://www.w3.org/2000/svg">
<path d="M12.0312 9.16675C12.0312 10.7488 10.7487 12.0313 9.16667 12.0313M6.30208 9.16675C6.30208 7.58468 7.5846 6.30216 9.16667 6.30216M7.44792 14.125C7.99966 14.2519 8.57511 14.323 9.16667 14.323C13.28 14.323 16.6146 10.8855 16.6146 9.16675C16.6146 8.40104 15.9528 7.29421 14.8551 6.30216M11.1719 4.27982C10.5339 4.10855 9.86139 4.0105 9.16667 4.0105C5.0533 4.0105 1.71875 7.448 1.71875 9.16675C1.71875 9.92294 2.36422 11.0118 3.4375 11.9943M4.01042 14.323L14.3229 4.0105" stroke="#BDBDBD" stroke-width="1.14583" stroke-linecap="round" stroke-linejoin="round"/>
</svg>
