<svg width="27" height="27" viewBox="0 0 27 27" fill="none" xmlns="http://www.w3.org/2000/svg">
<g clip-path="url(#clip0_342_5061)">
<path d="M13.4999 7.14746C11.3066 7.14746 9.5293 8.91755 9.5293 11.1101C9.5293 14.9013 13.4999 19.8454 13.4999 19.8454C13.4999 19.8454 17.4705 14.9004 17.4705 11.1101C17.4705 8.91831 15.6932 7.14746 13.4999 7.14746ZM13.4999 13.3027C12.3151 13.3027 11.3558 12.3426 11.3558 11.1585C11.3558 9.97451 12.3151 9.01441 13.4999 9.01441C14.6832 9.01441 15.6433 9.97451 15.6433 11.1585C15.6433 12.3426 14.6832 13.3027 13.4999 13.3027Z" fill="black"/>
<path d="M13.5 26.1562C20.4899 26.1562 26.1562 20.4899 26.1562 13.5C26.1562 6.51015 20.4899 0.84375 13.5 0.84375C6.51015 0.84375 0.84375 6.51015 0.84375 13.5C0.84375 20.4899 6.51015 26.1562 13.5 26.1562Z" stroke="black" stroke-width="2"/>
</g>
<defs>
<clipPath id="clip0_342_5061">
<rect width="27" height="27" fill="white"/>
</clipPath>
</defs>
</svg>
