<svg width="15" height="8" viewBox="0 0 15 8" fill="none" xmlns="http://www.w3.org/2000/svg">
<path fill-rule="evenodd" clip-rule="evenodd" d="M15 6.49097C15 7.04795 14.5625 7.5 14.0235 7.5C13.4845 7.5 13.047 7.04795 13.047 6.49097V5.00836H11.3154V6.49097C11.3154 7.04795 10.878 7.5 10.3389 7.5C9.79993 7.5 9.36247 7.04795 9.36247 6.49097V5.00836H6.61271C6.19087 6.44522 4.91233 7.5 3.38643 7.5C1.5194 7.5 0 5.92994 0 3.99933C0 2.07006 1.5194 0.5 3.38643 0.5C4.91233 0.5 6.19087 1.55478 6.61271 2.99029H14.0235C14.5625 2.99029 15 3.44234 15 3.99933V6.49097Z" fill="white"/>
</svg>
