<svg width="16" height="16" viewBox="0 0 16 16" fill="none" xmlns="http://www.w3.org/2000/svg">
<path fill-rule="evenodd" clip-rule="evenodd" d="M9.40343 8.51268C9.69509 8.51268 9.92571 8.28602 9.92571 7.99935C9.92571 7.71935 9.69509 7.48602 9.40343 7.48602L5.33366 7.48601L5.33366 4.29935C5.33366 2.66602 6.68347 1.33268 8.35207 1.33268L11.6554 1.33268C13.3172 1.33268 14.667 2.65935 14.667 4.29268L14.667 11.6993C14.667 13.3393 13.3104 14.666 11.6486 14.666L8.3385 14.666C6.68347 14.666 5.33366 13.3393 5.33366 11.706L5.33366 8.51268L9.40343 8.51268ZM2.91344 10.3059L0.966775 8.3659C0.866776 8.2659 0.813443 8.13923 0.813443 7.99923C0.813443 7.8659 0.866776 7.73257 0.966776 7.63923L2.91344 5.69923C3.01344 5.59923 3.14678 5.5459 3.27344 5.5459C3.40678 5.5459 3.54011 5.59923 3.64011 5.69923C3.84011 5.89923 3.84011 6.2259 3.64011 6.4259L2.57344 7.4859L5.33344 7.4859L5.33344 8.51257L2.57344 8.51257L3.64011 9.57257C3.84011 9.77257 3.84011 10.0992 3.64011 10.2992C3.44011 10.5059 3.11344 10.5059 2.91344 10.3059Z" fill="white"/>
</svg>
