<svg width="51" height="51" viewBox="0 0 51 51" fill="none" xmlns="http://www.w3.org/2000/svg">
<rect width="51" height="51" rx="10" fill="#1B6EBE"/>
<g clip-path="url(#clip0_189_2419)">
<path d="M39.965 28.7705C39.8293 28.7751 39.6959 28.8067 39.5731 28.8633C39.4502 28.9201 39.3406 29.0007 39.2509 29.1002C38.8485 29.5013 38.4072 29.8632 37.9334 30.1812C37.3798 30.5866 36.7709 30.9757 36.173 31.3378C35.6378 31.6681 35.0832 31.9677 34.5123 32.235C34.1874 32.4114 33.83 32.5234 33.4605 32.5647C33.5506 32.35 33.6638 32.1453 33.7983 31.954C34.1027 31.5 34.4736 30.9703 34.9053 30.3812L36.3557 28.4571C36.8761 27.7761 37.3632 27.1005 37.8172 26.4519C38.2298 25.8512 38.605 25.2267 38.9409 24.5818C39.2334 24.0861 39.4058 23.5315 39.4446 22.9604C39.4597 22.7574 39.4158 22.5543 39.3179 22.3745C39.2199 22.1947 39.072 22.0457 38.8911 21.9444C38.5643 21.7822 38.1999 21.7059 37.8338 21.7228C37.205 21.7452 36.589 21.902 36.0291 22.1822C35.3372 22.5061 34.6711 22.8801 34.0363 23.301C33.3443 23.7549 32.6357 24.2738 31.9327 24.836C31.2296 25.398 30.5654 25.9493 29.9232 26.5114L30.0616 26.3006C30.4104 25.7601 30.7314 25.2466 31.0193 24.7494C31.2885 24.2847 31.5289 23.8047 31.7389 23.3118C31.9341 22.9171 32.0506 22.4897 32.0821 22.0524C32.0948 21.8423 32.0464 21.633 31.9426 21.4484C31.8388 21.2639 31.6838 21.1117 31.4954 21.0093C31.1515 20.8442 30.7713 20.7644 30.3882 20.777C29.4442 20.8601 28.5384 21.1803 27.7588 21.7065L27.6093 21.793C27.946 20.6791 28.1101 19.5224 28.0964 18.361C28.0964 15.583 27.3215 13.3778 25.7881 11.8105C24.9933 11.0152 24.0358 10.3924 22.978 9.98265C21.9203 9.57289 20.7859 9.38539 19.649 9.43236C18.3747 9.41652 17.1105 9.65564 15.9345 10.135C15.0794 10.5033 14.3093 11.0364 13.6704 11.7024C12.9939 12.3962 12.4452 13.1989 12.0484 14.075C11.4864 15.4713 11.219 16.9641 11.2624 18.4637C11.2624 21.1661 12.0318 23.328 13.5486 24.9169C15.0654 26.506 17.1413 27.2734 19.7043 27.2734C20.0254 27.2734 23.2029 27.7599 27.8308 23.982C27.7809 24.0955 27.709 24.2306 27.6204 24.3927C27.3326 24.9332 24.9854 28.8841 24.8525 29.1381C24.81 29.2198 24.7801 29.3072 24.7639 29.3975C24.7512 29.5107 24.7512 29.6248 24.7639 29.7381C24.7856 29.9532 24.8546 30.1612 24.9665 30.3478C25.0783 30.5344 25.2301 30.6951 25.4116 30.819C25.7831 31.1396 26.2609 31.3181 26.7568 31.3216C26.9687 31.3073 27.1757 31.2521 27.3657 31.1594C27.5557 31.0666 27.7251 30.938 27.864 30.7812C30.676 28.295 31.4733 27.7869 32.5471 26.9491C33.2557 26.4087 33.8591 26.0412 34.4016 25.6737L33.2668 27.0843C32.8018 27.668 32.3368 28.2571 31.8829 28.83C31.429 29.403 31.1577 29.8461 30.737 30.4515C30.3458 31.0045 29.9925 31.5823 29.6797 32.181C29.4117 32.6468 29.2564 33.1663 29.2258 33.6997C29.2162 33.9815 29.2867 34.2604 29.4293 34.5054C29.5719 34.7505 29.7812 34.9524 30.034 35.0888C30.5159 35.3563 31.0627 35.4927 31.6171 35.4833C32.5441 35.4522 33.4512 35.2136 34.2688 34.786C35.1191 34.4093 35.934 33.9608 36.7044 33.4457C37.5403 32.8566 38.3098 32.2675 38.9796 31.6946C39.6495 31.1216 40.048 30.7001 40.3414 30.419C40.4646 30.3067 40.5634 30.1712 40.6319 30.0208C40.7003 29.8704 40.7371 29.708 40.7401 29.5435C40.7471 29.4416 40.7321 29.3393 40.696 29.2435C40.6597 29.1476 40.6032 29.0604 40.53 28.9873C40.4568 28.9144 40.3686 28.8573 40.2712 28.8199C40.1739 28.7826 40.0696 28.7658 39.965 28.7705ZM22.7656 22.4253C22.3896 22.8599 21.9181 23.2061 21.3862 23.4382C20.8543 23.6702 20.2756 23.7822 19.6932 23.7658C19.108 23.7817 18.5266 23.669 17.9919 23.4361C17.4573 23.2031 16.9831 22.8559 16.6043 22.42C15.7906 21.5119 15.3754 20.1391 15.3754 18.3502C15.3754 16.5612 15.7795 15.1614 16.5711 14.2696C16.9577 13.8348 17.4396 13.4905 17.981 13.2622C18.5224 13.0339 19.1095 12.9275 19.6988 12.9509C20.2831 12.9242 20.8661 13.027 21.4039 13.2517C21.9418 13.4763 22.4205 13.8169 22.8044 14.248C23.5849 15.1236 23.9779 16.4856 23.9779 18.3016C23.9779 20.1176 23.5683 21.5119 22.7656 22.4253Z" fill="white"/>
<path d="M39.3178 10.1945H37.8342V8.6974C37.8351 8.60472 37.8167 8.51283 37.7804 8.42719C37.7441 8.34155 37.6906 8.26391 37.6229 8.19888C37.5553 8.13384 37.4749 8.08274 37.3867 8.04861C37.2984 8.01448 37.204 7.99802 37.1091 8.00019H36.6386C36.4511 8.00303 36.2723 8.07774 36.1407 8.20818C36.0092 8.33863 35.9355 8.51435 35.9355 8.6974V10.1945H34.4409C34.3478 10.1952 34.2558 10.2138 34.1702 10.2492C34.0844 10.2847 34.0067 10.3362 33.9414 10.401C33.8762 10.4657 33.8246 10.5424 33.7896 10.6266C33.7547 10.7108 33.7371 10.8009 33.7378 10.8917V11.3565C33.7371 11.4474 33.7547 11.5375 33.7896 11.6217C33.8246 11.7059 33.8762 11.7826 33.9414 11.8473C34.0067 11.9121 34.0844 11.9636 34.1702 11.999C34.2558 12.0345 34.3478 12.053 34.4409 12.0538H35.941V13.5509C35.941 13.7339 36.0147 13.9097 36.1463 14.0401C36.2778 14.1705 36.4567 14.2452 36.6441 14.2481H37.1146C37.2091 14.2495 37.3028 14.2325 37.3905 14.1981C37.4781 14.1636 37.5578 14.1124 37.6248 14.0474C37.6918 13.9825 37.7449 13.9051 37.7809 13.8198C37.8169 13.7345 37.835 13.6431 37.8342 13.5509V12.0538H39.34C39.433 12.053 39.525 12.0345 39.6107 11.999C39.6964 11.9636 39.7741 11.9121 39.8394 11.8473C39.9047 11.7826 39.9563 11.7059 39.9911 11.6217C40.0261 11.5375 40.0438 11.4474 40.043 11.3565V10.8917C40.0438 10.8009 40.0261 10.7108 39.9911 10.6266C39.9563 10.5424 39.9047 10.4657 39.8394 10.401C39.7741 10.3362 39.6964 10.2847 39.6107 10.2492C39.525 10.2138 39.433 10.1952 39.34 10.1945" fill="white"/>
<path d="M13.0001 41.8035C12.9878 41.7571 12.9572 41.7174 12.9152 41.6929C12.888 41.6779 12.8574 41.6697 12.8262 41.6692H12.7737C12.7048 41.6894 12.6345 41.7052 12.5635 41.7166L12.329 41.7482L12.1189 41.7758H11.9572C11.7937 41.7806 11.631 41.751 11.4802 41.689C11.3692 41.6439 11.2738 41.5685 11.2054 41.472C11.1278 41.3603 11.0754 41.2338 11.0518 41.1009C11.0166 40.9255 11.0003 40.747 11.0032 40.5682C10.9815 40.2343 11.0661 39.902 11.2458 39.6171C11.3284 39.5154 11.4355 39.4352 11.5574 39.3836C11.6794 39.332 11.8126 39.3105 11.945 39.3212C12.06 39.3222 12.1747 39.3301 12.2887 39.3448C12.4179 39.3617 12.5451 39.3908 12.6686 39.4316H12.7251C12.7547 39.432 12.7839 39.4253 12.81 39.4119C12.8325 39.3993 12.852 39.3823 12.8673 39.3618C12.8827 39.3415 12.8934 39.3182 12.899 39.2935L13.0041 38.8554C13.0148 38.812 13.0087 38.7664 12.9871 38.7271C12.9655 38.6877 12.9298 38.6576 12.8868 38.6423C12.7387 38.5943 12.5875 38.5561 12.4342 38.5279C12.2498 38.4976 12.0632 38.483 11.8763 38.4845C11.5495 38.4824 11.2282 38.567 10.9467 38.7291C10.7144 38.8556 10.5163 39.0342 10.3686 39.2501C10.2346 39.4528 10.1387 39.6774 10.0857 39.9131C9.97144 40.3948 9.97144 40.8955 10.0857 41.3772C10.1399 41.6142 10.2446 41.8373 10.3929 42.0323C10.5435 42.2257 10.7425 42.3779 10.9709 42.4743C11.2435 42.5845 11.537 42.637 11.8319 42.6283C11.9248 42.6283 12.0259 42.6283 12.127 42.6283C12.228 42.6283 12.3331 42.6046 12.4342 42.5887C12.5308 42.5738 12.6266 42.554 12.7211 42.5295C12.8122 42.5091 12.9014 42.4814 12.9879 42.4467C13.0289 42.4307 13.0623 42.4006 13.0817 42.3619C13.1011 42.3232 13.1052 42.2789 13.093 42.2375L13.0001 41.8035Z" fill="white"/>
<path d="M19.3396 41.7839H17.6177V38.7294C17.6182 38.7062 17.6139 38.6832 17.6053 38.6617C17.5966 38.6401 17.5835 38.6205 17.567 38.604C17.5504 38.5874 17.5307 38.5743 17.5088 38.5653C17.487 38.5564 17.4635 38.5518 17.4398 38.5518H16.8092C16.7855 38.5518 16.7621 38.5564 16.7402 38.5653C16.7184 38.5743 16.6985 38.5874 16.682 38.604C16.6654 38.6205 16.6525 38.6401 16.6437 38.6617C16.635 38.6832 16.6309 38.7062 16.6314 38.7294V42.3995C16.6309 42.4228 16.635 42.4461 16.6437 42.4678C16.6523 42.4895 16.6653 42.5094 16.6818 42.5263C16.6983 42.5431 16.7181 42.5566 16.7399 42.566C16.7618 42.5754 16.7853 42.5805 16.8092 42.5811H19.3274C19.3513 42.5805 19.3749 42.5754 19.3967 42.566C19.4186 42.5566 19.4383 42.5431 19.4549 42.5263C19.4714 42.5094 19.4843 42.4895 19.493 42.4678C19.5016 42.4461 19.5058 42.4228 19.5053 42.3995V41.9655C19.5065 41.9202 19.49 41.8763 19.4593 41.8426C19.4285 41.8088 19.3856 41.7879 19.3396 41.7839Z" fill="white"/>
<path d="M23.8213 38.5674H23.2191C23.1708 38.5674 23.1245 38.5861 23.0904 38.6194C23.0563 38.6527 23.0372 38.6979 23.0372 38.745V42.3994C23.0366 42.423 23.0409 42.4466 23.0498 42.4686C23.0587 42.4906 23.072 42.5106 23.0889 42.5275C23.1059 42.5444 23.1261 42.5579 23.1485 42.5671C23.1708 42.5762 23.1948 42.581 23.2191 42.581H23.8213C23.8452 42.5804 23.8687 42.5753 23.8906 42.5659C23.9125 42.5565 23.9323 42.543 23.9488 42.5262C23.9653 42.5092 23.9783 42.4894 23.9869 42.4676C23.9955 42.4459 23.9997 42.4227 23.9992 42.3994V38.7292C23.9952 38.6856 23.9748 38.6449 23.942 38.615C23.9092 38.5851 23.8662 38.5682 23.8213 38.5674Z" fill="white"/>
<path d="M30.6876 38.5713H30.1056C30.0573 38.5713 30.011 38.59 29.9769 38.6233C29.9429 38.6566 29.9237 38.7017 29.9237 38.7489V40.9115L29.7175 40.5879C29.5114 40.2604 29.3134 39.9368 29.0991 39.6171C28.8848 39.2974 28.6949 38.9738 28.4685 38.6502C28.4527 38.6265 28.4312 38.6069 28.4058 38.5931C28.3805 38.5793 28.352 38.5718 28.323 38.5713H27.7086C27.6611 38.5723 27.6159 38.5914 27.5826 38.6246C27.5494 38.6579 27.5308 38.7024 27.5308 38.7489V42.3993C27.5303 42.4226 27.5344 42.4458 27.5431 42.4676C27.5517 42.4893 27.5647 42.5092 27.5812 42.526C27.5977 42.5429 27.6175 42.5565 27.6393 42.5659C27.6612 42.5752 27.6847 42.5803 27.7086 42.5808H28.2907C28.3148 42.5808 28.3385 42.5761 28.3607 42.567C28.3828 42.5577 28.4028 42.5442 28.4194 42.5272C28.436 42.5103 28.449 42.4902 28.4574 42.4682C28.4658 42.4462 28.4697 42.4228 28.4685 42.3993V40.2012L28.5939 40.4024C28.8202 40.7497 29.0384 41.1009 29.2608 41.4522C29.4831 41.8034 29.7054 42.1546 29.9318 42.5019C29.948 42.5262 29.9701 42.5462 29.9963 42.5599C30.0224 42.5737 30.0516 42.5809 30.0814 42.5808H30.6836C30.7075 42.5803 30.731 42.5752 30.7529 42.5659C30.7748 42.5565 30.7945 42.5429 30.8111 42.526C30.8276 42.5092 30.8405 42.4893 30.8492 42.4676C30.8578 42.4458 30.862 42.4226 30.8615 42.3993V38.7489C30.8615 38.7031 30.8435 38.659 30.8111 38.626C30.7787 38.5929 30.7345 38.5733 30.6876 38.5713Z" fill="white"/>
<path d="M35.1813 38.5676H34.5831C34.5361 38.5654 34.4901 38.5809 34.4547 38.6111C34.4193 38.6413 34.3972 38.6837 34.3931 38.7294V42.3995C34.3926 42.4232 34.3969 42.4467 34.4058 42.4687C34.4146 42.4907 34.428 42.5108 34.4449 42.5277C34.4619 42.5446 34.4821 42.558 34.5044 42.5672C34.5268 42.5764 34.5508 42.5811 34.575 42.5811H35.1732C35.1971 42.5806 35.2207 42.5755 35.2425 42.5661C35.2644 42.5567 35.2841 42.5432 35.3006 42.5263C35.3172 42.5095 35.3301 42.4895 35.3388 42.4679C35.3474 42.4461 35.3516 42.4229 35.351 42.3995V38.7294C35.3473 38.687 35.328 38.6474 35.2969 38.6178C35.2658 38.588 35.2248 38.5702 35.1813 38.5676Z" fill="white"/>
<path d="M41.9949 42.2257L41.8858 41.8035C41.8804 41.7803 41.87 41.7585 41.8554 41.7395C41.8407 41.7204 41.8222 41.7046 41.8009 41.693C41.775 41.6786 41.7459 41.6705 41.716 41.6693H41.6635C41.5931 41.6894 41.5216 41.7052 41.4493 41.7167L41.2149 41.7483C41.1421 41.7483 41.0693 41.768 41.0046 41.7759H40.843C40.6793 41.7815 40.5165 41.7518 40.366 41.6891C40.2554 41.6432 40.1601 41.5681 40.0911 41.472C40.0135 41.3604 39.9611 41.234 39.9375 41.101C39.902 40.9257 39.8857 40.7471 39.8891 40.5683C39.8672 40.2344 39.952 39.9021 40.1316 39.6172C40.2138 39.5161 40.3202 39.4362 40.4414 39.3847C40.5626 39.333 40.6949 39.3113 40.8268 39.3212C40.9417 39.3224 41.0564 39.3303 41.1704 39.3448C41.2983 39.3618 41.4242 39.3909 41.5463 39.4317H41.6029C41.6324 39.4323 41.6616 39.4255 41.6878 39.412C41.7098 39.3993 41.7287 39.3822 41.7434 39.3618C41.7581 39.3414 41.768 39.3181 41.7727 39.2936L41.8817 38.8555C41.8934 38.8121 41.8878 38.766 41.8661 38.7265C41.8443 38.6869 41.808 38.6569 41.7646 38.6424C41.6164 38.5943 41.4652 38.556 41.3119 38.5279C41.1262 38.4972 40.9382 38.4827 40.75 38.4846C40.4305 38.4732 40.1137 38.5455 39.8324 38.6937C39.6 38.8199 39.4019 38.9985 39.2545 39.2146C39.1147 39.4211 39.016 39.6513 38.9634 39.8934C38.9115 40.1175 38.8844 40.3464 38.8826 40.5762C38.8792 40.8418 38.9091 41.1069 38.9715 41.3654C39.0251 41.6026 39.1297 41.826 39.2787 42.0206C39.4294 42.2139 39.6284 42.3661 39.8567 42.4625C40.1293 42.5726 40.4228 42.6251 40.7176 42.6164C40.8106 42.6164 40.9077 42.6164 41.0127 42.6164L41.3199 42.577C41.4178 42.562 41.515 42.5423 41.611 42.5178C41.7022 42.4977 41.7914 42.47 41.8777 42.4349C41.9204 42.4205 41.956 42.3911 41.9776 42.3524C41.9993 42.3137 42.0054 42.2687 41.9949 42.2257Z" fill="white"/>
</g>
<defs>
<clipPath id="clip0_189_2419">
<rect width="32" height="34.6294" fill="white" transform="translate(10 8)"/>
</clipPath>
</defs>
</svg>
