<svg width="32" height="32" viewBox="0 0 32 32" fill="none" xmlns="http://www.w3.org/2000/svg">
<rect x="1" y="1" width="30" height="30" rx="15" stroke="#D1D1D1" stroke-width="2"/>
<g clip-path="url(#clip0_435_10004)">
<path fill-rule="evenodd" clip-rule="evenodd" d="M17.8431 9.3798C17.4265 8.96324 16.7512 8.96324 16.3346 9.3798C15.918 9.79636 15.918 10.4717 16.3346 10.8883L20.3804 14.9341L9.04518 14.9341C8.45607 14.9341 7.97852 15.4117 7.97852 16.0008C7.97852 16.5899 8.45608 17.0674 9.04518 17.0674L20.3803 17.0674L16.3346 21.1132C15.918 21.5297 15.918 22.2051 16.3346 22.6217C16.7512 23.0382 17.4265 23.0382 17.8431 22.6217L23.7098 16.755C24.1263 16.3384 24.1263 15.663 23.7098 15.2465L17.8431 9.3798Z" fill="#D1D1D1"/>
</g>
<defs>
<clipPath id="clip0_435_10004">
<rect x="7" y="9" width="18" height="14" rx="7" fill="white"/>
</clipPath>
</defs>
</svg>
