<svg width="32" height="32" viewBox="0 0 32 32" fill="none" xmlns="http://www.w3.org/2000/svg">
<rect x="31" y="31" width="30" height="30" rx="15" transform="rotate(-180 31 31)" stroke="#D1D1D1" stroke-width="2"/>
<g clip-path="url(#clip0_435_10008)">
<path fill-rule="evenodd" clip-rule="evenodd" d="M14.1569 22.6202C14.5735 23.0368 15.2488 23.0368 15.6654 22.6202C16.082 22.2036 16.082 21.5283 15.6654 21.1117L11.6196 17.0659L22.9548 17.0659C23.5439 17.0659 24.0215 16.5883 24.0215 15.9992C24.0215 15.4101 23.5439 14.9326 22.9548 14.9326L11.6197 14.9326L15.6654 10.8868C16.082 10.4703 16.082 9.79495 15.6654 9.37835C15.2488 8.96185 14.5735 8.96185 14.1569 9.37835L8.29019 15.245C7.87369 15.6616 7.87369 16.337 8.29019 16.7535L14.1569 22.6202Z" fill="#D1D1D1"/>
</g>
<defs>
<clipPath id="clip0_435_10008">
<rect x="25" y="23" width="18" height="14" rx="7" transform="rotate(-180 25 23)" fill="white"/>
</clipPath>
</defs>
</svg>
