<svg width="46" height="46" viewBox="0 0 46 46" fill="none" xmlns="http://www.w3.org/2000/svg">
<circle cx="23" cy="23" r="23" fill="white"/>
<path fill-rule="evenodd" clip-rule="evenodd" d="M23.0001 11.3333C19.7784 11.3333 17.1667 13.9449 17.1667 17.1666C17.1667 20.3882 19.7784 22.9999 23.0001 22.9999C26.2217 22.9999 28.8334 20.3882 28.8334 17.1666C28.8334 13.9449 26.2217 11.3333 23.0001 11.3333Z" fill="#1B6EBE"/>
<path fill-rule="evenodd" clip-rule="evenodd" d="M19.2686 25C17.2005 25 15.2117 25.8428 14.0462 27.1116C13.4546 27.7556 13.0388 28.5523 13.0026 29.4355C12.9656 30.3373 13.33 31.2176 14.0815 31.9856C15.9131 33.8574 18.8374 35 23 35C27.1626 35 30.0869 33.8574 31.9185 31.9856C32.67 31.2176 33.0344 30.3373 32.9974 29.4355C32.9612 28.5523 32.5454 27.7556 31.9538 27.1116C30.7883 25.8428 28.7995 25 26.7314 25H19.2686Z" fill="#1B6EBE"/>
</svg>
