<svg width="192" height="160" viewBox="0 0 192 160" fill="none" xmlns="http://www.w3.org/2000/svg">
<path d="M143.096 41.925C143.096 41.925 119.444 46.2285 116.183 78.1981" stroke="#B7B400" stroke-width="1.17637" stroke-miterlimit="10" stroke-linecap="round" stroke-linejoin="round"/>
<path d="M112.639 55.3464C110.724 52.8876 109.823 50.386 110.628 49.7589C111.432 49.1319 113.637 50.6168 115.552 53.0755C117.467 55.5343 118.367 58.0359 117.563 58.663C116.759 59.2901 114.554 57.8052 112.639 55.3464Z" fill="#B7B400" stroke="#B7B400" stroke-width="1.17637" stroke-miterlimit="10" stroke-linecap="round" stroke-linejoin="round"/>
<path d="M109.092 68.6091C105.993 67.6526 103.745 66.021 104.071 64.965C104.396 63.9089 107.173 63.8283 110.272 64.7849C113.371 65.7414 115.619 67.3729 115.293 68.429C114.968 69.485 112.191 69.5657 109.092 68.6091Z" fill="#B7B400" stroke="#B7B400" stroke-width="1.17637" stroke-miterlimit="10" stroke-linecap="round" stroke-linejoin="round"/>
<path d="M125.581 72.8183C122.481 71.8618 120.233 70.2303 120.559 69.1742C120.885 68.1182 123.661 68.0375 126.76 68.9941C129.859 69.9506 132.108 71.5822 131.782 72.6382C131.456 73.6942 128.68 73.7749 125.581 72.8183Z" fill="#B7B400" stroke="#B7B400" stroke-width="1.17637" stroke-miterlimit="10" stroke-linecap="round" stroke-linejoin="round"/>
<path d="M120.777 47.6682C119.392 45.8911 118.759 44.0693 119.363 43.599C119.966 43.1287 121.577 44.188 122.961 45.965C124.345 47.742 124.978 49.5639 124.375 50.0342C123.772 50.5045 122.161 49.4452 120.777 47.6682Z" fill="#B7B400" stroke="#B7B400" stroke-width="1.17637" stroke-miterlimit="10" stroke-linecap="round" stroke-linejoin="round"/>
<path d="M127.82 54.9324C127.753 54.2412 129.345 53.5226 131.375 53.3273C133.406 53.1319 135.105 53.5338 135.172 54.2249C135.238 54.9161 133.646 55.6347 131.616 55.83C129.586 56.0254 127.886 55.6235 127.82 54.9324Z" fill="#B7B400" stroke="#B7B400" stroke-width="1.17637" stroke-miterlimit="10" stroke-linecap="round" stroke-linejoin="round"/>
<path d="M129.692 41.7431C128.888 40.1335 128.678 38.6077 129.223 38.3353C129.768 38.0629 130.861 39.1469 131.665 40.7566C132.469 42.3663 132.68 43.892 132.135 44.1644C131.59 44.4368 130.497 43.3528 129.692 41.7431Z" fill="#B7B400" stroke="#B7B400" stroke-width="1.17637" stroke-miterlimit="10" stroke-linecap="round" stroke-linejoin="round"/>
<path d="M138.4 40.2403C138.088 40.1494 138.055 39.3146 138.328 38.3758C138.6 37.4369 139.075 36.7496 139.388 36.8405C139.701 36.9314 139.733 37.7662 139.461 38.705C139.188 39.6438 138.713 40.3312 138.4 40.2403Z" fill="#B7B400" stroke="#B7B400" stroke-width="1.17637" stroke-miterlimit="10" stroke-linecap="round" stroke-linejoin="round"/>
<path d="M144.887 41.6505C144.761 41.3498 145.39 40.8008 146.292 40.4243C147.194 40.0478 148.027 39.9864 148.153 40.2871C148.278 40.5878 147.649 41.1368 146.747 41.5133C145.845 41.8898 145.012 41.9512 144.887 41.6505Z" fill="#B7B400" stroke="#B7B400" stroke-width="1.17637" stroke-miterlimit="10" stroke-linecap="round" stroke-linejoin="round"/>
<path d="M143.403 45.8749C142.553 45.3914 141.995 44.7698 142.157 44.4865C142.318 44.2033 143.137 44.3656 143.986 44.8491C144.836 45.3326 145.394 45.9542 145.232 46.2375C145.071 46.5208 144.252 46.3584 143.403 45.8749Z" fill="#B7B400" stroke="#B7B400" stroke-width="1.17637" stroke-miterlimit="10" stroke-linecap="round" stroke-linejoin="round"/>
<path d="M137.445 50.0077C135.656 49.8234 134.256 49.1828 134.319 48.5767C134.381 47.9707 135.882 47.6287 137.671 47.8129C139.461 47.9971 140.861 48.6378 140.798 49.2439C140.736 49.8499 139.235 50.1919 137.445 50.0077Z" fill="#B7B400" stroke="#B7B400" stroke-width="1.17637" stroke-miterlimit="10" stroke-linecap="round" stroke-linejoin="round"/>
<path d="M122.666 62.6699C122.486 61.8245 124.373 60.7064 126.881 60.1725C129.388 59.6387 131.567 59.8912 131.746 60.7366C131.926 61.582 130.039 62.7001 127.532 63.234C125.024 63.7679 122.846 63.5153 122.666 62.6699Z" fill="#B7B400" stroke="#B7B400" stroke-width="1.17637" stroke-miterlimit="10" stroke-linecap="round" stroke-linejoin="round"/>
<path d="M94.0172 49.1816L148.935 6.93317L186.203 49.8971L151.256 79.5599L143.786 71.8139" stroke="#126CC1" stroke-miterlimit="10" stroke-linecap="round" stroke-linejoin="round"/>
<path d="M22.0507 54.9036L43.1691 37.7238L50.1845 46.5444L33.6398 59.8577L22.9102 47.3615L37.0687 35.3199" stroke="#126CC1" stroke-miterlimit="10" stroke-linecap="round" stroke-linejoin="round"/>
<path d="M123.673 132.067L136.682 147.162L146.839 138.201L180.806 108.229L174.447 101.228L141.062 131.147L152.705 144.047L181.793 119.773" stroke="#B7B400" stroke-miterlimit="10" stroke-linecap="round" stroke-linejoin="round"/>
<path d="M2.28223 76.8628C2.28223 76.8628 53.2383 76.8628 61.5728 127.507" stroke="#B7B400" stroke-width="1.17637" stroke-miterlimit="10" stroke-linecap="round" stroke-linejoin="round"/>
<path d="M1 76.3491C1 76.3491 5.97508 78.7607 11.9759 78.4785C9.59098 76.4517 6.5649 77.2471 1 76.3491Z" stroke="#B7B400" stroke-width="1.17637" stroke-miterlimit="10" stroke-linecap="round" stroke-linejoin="round"/>
<path d="M4.59033 73.9893C4.59033 73.9893 13.489 72.4756 17.2075 78.9151C14.7456 78.1968 12.2325 75.4516 9.87315 75.3747C7.51383 75.3233 4.59033 73.9893 4.59033 73.9893Z" stroke="#B7B400" stroke-width="1.17637" stroke-miterlimit="10" stroke-linecap="round" stroke-linejoin="round"/>
<path d="M11.2578 70.0127C11.2578 70.0127 18.9769 71.7573 20.2848 74.8359C21.567 77.9146 21.2849 79.8901 22.7979 80.788C19.9514 80.0696 18.7974 75.4517 17.4125 74.3485C14.4121 71.9112 12.2067 71.9625 11.2578 70.0127Z" stroke="#B7B400" stroke-width="1.17637" stroke-miterlimit="10" stroke-linecap="round" stroke-linejoin="round"/>
<path d="M18.874 69.3452C18.874 69.3452 19.31 73.1679 23.5157 75.6308C25.4647 76.8623 24.362 80.4027 26.6444 81.9164C26.8239 80.8389 27.1573 77.555 24.798 74.7329C23.1567 72.7317 19.1048 71.2437 18.874 69.3452Z" stroke="#B7B400" stroke-width="1.17637" stroke-miterlimit="10" stroke-linecap="round" stroke-linejoin="round"/>
<path d="M27.0552 69.6274C27.0552 69.6274 26.3372 73.8863 29.7479 76.734C33.1587 79.5818 30.7481 83.5071 32.4919 84.9694C33.1074 82.2756 34.0562 79.1456 32.4406 76.5544C30.825 73.9889 28.081 74.0915 27.0552 69.6274Z" stroke="#B7B400" stroke-width="1.17637" stroke-miterlimit="10" stroke-linecap="round" stroke-linejoin="round"/>
<path d="M35.9282 72.6553C35.9282 72.6553 34.9793 74.4512 35.8769 77.0167C36.7744 79.5823 33.5176 85.2521 37.1591 87.7664C36.9796 84.4055 38.2875 81.7117 38.108 79.1974C37.9285 76.6832 36.4667 75.8366 35.9282 72.6553Z" stroke="#B7B400" stroke-width="1.17637" stroke-miterlimit="10" stroke-linecap="round" stroke-linejoin="round"/>
<path d="M37.6975 70.0127C37.6975 70.0127 39.4413 74.5024 41.3903 77.1962C43.3393 79.8901 40.1594 88.5873 44.2369 93.2822C43.5701 89.5878 43.1085 85.329 43.8009 79.5052C44.4934 73.6558 37.6975 70.0127 37.6975 70.0127Z" stroke="#B7B400" stroke-width="1.17637" stroke-miterlimit="10" stroke-linecap="round" stroke-linejoin="round"/>
<path d="M46.9551 75.939C46.9551 75.939 45.8268 82.1732 47.1859 85.9189C48.5195 89.6646 46.2884 94.1544 48.1348 96.7456C48.5708 93.8208 50.5967 89.7416 49.3657 85.765C48.1348 81.7884 47.0064 81.3779 46.9551 75.939Z" stroke="#B7B400" stroke-width="1.17637" stroke-miterlimit="10" stroke-linecap="round" stroke-linejoin="round"/>
<path d="M53.3408 79.377C53.3408 79.377 54.341 84.8159 53.1613 87.0479C51.9817 89.28 49.4685 96.5661 50.4686 99.8757C50.802 96.2326 52.5459 93.821 53.8794 91.3068C55.2129 88.7925 56.2643 83.7897 53.3408 79.377Z" stroke="#B7B400" stroke-width="1.17637" stroke-miterlimit="10" stroke-linecap="round" stroke-linejoin="round"/>
<path d="M57.7776 82.1216C57.7776 82.1216 60.7011 87.9454 59.624 91.2549C58.5469 94.5645 51.6229 98.3102 52.1614 101.851C52.3922 97.8741 54.5207 95.4624 56.1363 93.3843C59.6753 88.8433 57.7776 82.1216 57.7776 82.1216Z" stroke="#B7B400" stroke-width="1.17637" stroke-miterlimit="10" stroke-linecap="round" stroke-linejoin="round"/>
<path d="M54.0079 105.314C54.0079 105.314 53.8284 102.749 56.8032 101.902C59.778 101.055 64.9326 95.7447 65.0352 88.7407C63.5221 89.2538 63.7529 91.999 62.2912 93.8462C60.8551 95.6677 55.0337 99.7213 54.0079 105.314Z" stroke="#B7B400" stroke-width="1.17637" stroke-miterlimit="10" stroke-linecap="round" stroke-linejoin="round"/>
<g clip-path="url(#clip0_663_4828)">
<path d="M72.2533 16.3001C70.2122 16.8085 68.9367 19.7534 67.7481 20.3197C66.5595 20.886 63.288 20.9822 61.7814 22.6453C60.2749 24.3084 62.6178 28.3805 61.7814 29.3777C60.9451 30.3749 56.5721 32.5058 56.4218 34.9152C56.2716 37.3246 58.9347 39.4752 58.4321 40.9083C57.9295 42.3414 55.9907 44.4555 56.4156 46.8886C56.8407 49.3217 60.275 49.573 61.1963 51.1095C62.1178 52.6459 61.8664 55.4712 62.9553 57.2164C64.0443 58.9615 68.1487 57.8812 69.7403 58.1304C71.3318 58.3797 73.4357 60.6235 75.3993 61.3713C77.3628 62.1191 82.1618 58.7121 83.6155 58.7121C85.0692 58.7121 88.4181 60.2773 90.3025 59.9161C92.187 59.5548 94.7023 57.0139 95.7073 56.6936C96.7125 56.3732 101.219 57.8812 105.089 55.4712C106.934 54.3227 105.173 51.4824 105.592 50.6514C106.01 49.8204 110.435 48.375 111.154 45.566C111.874 42.7568 105.927 41.0184 105.675 39.3947C105.424 37.7709 108.356 35.1117 106.764 31.9539C105.173 28.796 101.108 29.929 100.167 28.8225C99.2253 27.7158 99.1414 24.3087 97.7175 22.8959C96.2936 21.4833 93.1942 22.1481 92.189 21.6495C91.1839 21.1509 89.7949 17.5776 87.6832 16.9959C85.5717 16.4142 82.0519 18.1593 80.6706 17.9931C79.2895 17.8269 75.6128 15.4633 72.2533 16.3001Z" fill="#B7B308"/>
<path d="M108.01 30.1159C107.947 30.1159 107.887 30.0776 107.863 30.0152C107.452 28.9476 105.075 28.6257 103.34 28.3907C102.374 28.26 101.54 28.147 101.144 27.9368C100.563 27.6283 100.201 26.4704 99.7822 25.1295C99.3688 23.8065 98.9003 22.3069 98.1974 21.7737C97.4522 21.2085 96.2277 21.0405 95.1472 20.8922C94.2107 20.7637 93.3261 20.6424 92.8377 20.2789C92.4069 19.9583 91.7582 19.3464 91.0716 18.6983C90.1669 17.8446 89.1416 16.8771 88.5687 16.5497C87.5227 15.9521 84.9584 16.4715 80.7285 18.1384C80.6477 18.1701 80.556 18.1311 80.5238 18.0508C80.4918 17.9706 80.5312 17.8796 80.6122 17.8479C84.9968 16.1199 87.5753 15.6213 88.726 16.2788C89.3315 16.6248 90.3264 17.5637 91.2887 18.4718C91.9685 19.1133 92.6109 19.7191 93.0266 20.0287C93.4501 20.3438 94.2955 20.4598 95.1903 20.5825C96.3095 20.736 97.5777 20.9101 98.3887 21.5253C99.1713 22.1191 99.6348 23.6024 100.083 25.037C100.448 26.2052 100.826 27.413 101.293 27.6612C101.638 27.8449 102.485 27.9595 103.382 28.081C105.297 28.3402 107.68 28.6631 108.157 29.904C108.188 29.9847 108.147 30.0751 108.066 30.1057C108.048 30.1126 108.029 30.1159 108.01 30.1159Z" fill="#B7B308"/>
<path d="M86.4835 37.6739C84.5563 37.6739 83.4467 35.4077 82.7532 33.9916C82.5239 33.5235 82.326 33.1192 82.1829 32.9772C81.9041 32.7008 80.1257 32.5621 78.5565 32.4398C76.565 32.2846 74.5059 32.1241 73.8289 31.6662C72.5172 30.7789 70.6294 27.1966 70.4348 25.6168C70.4242 25.5311 70.4855 25.4531 70.5721 25.4426C70.6587 25.432 70.7371 25.4933 70.7475 25.5788C70.9479 27.2048 72.8667 30.6369 74.0065 31.4079C74.6141 31.8189 76.7218 31.9831 78.5812 32.1281C80.7287 32.2955 82.0621 32.4153 82.4057 32.7561C82.5863 32.9353 82.7753 33.321 83.0367 33.855C83.8191 35.4524 85.0019 37.8666 87.1391 37.2664C87.2222 37.2431 87.3101 37.2911 87.3336 37.3743C87.3572 37.4573 87.3087 37.5438 87.225 37.5672C86.9653 37.6402 86.7183 37.6739 86.4835 37.6739Z" fill="#B7B308"/>
<path d="M101.672 55.0371C101.643 55.0371 101.614 55.0295 101.589 55.0134C101.515 54.9677 101.492 54.8712 101.538 54.7979C102.04 54.0005 100.688 52.598 99.6014 51.4712C98.9051 50.749 98.3039 50.1253 98.1704 49.675C98.0022 49.1078 98.4533 48.2041 99.0243 47.0599C99.6807 45.7447 100.425 44.254 100.328 43.0173C100.224 41.6865 98.2664 40.8197 96.5395 40.055C95.361 39.5331 94.3432 39.0825 93.914 38.5201C93.4274 37.8828 93.4592 36.7715 93.4961 35.4845C93.5405 33.9282 93.591 32.1643 92.6274 31.1458C91.5483 30.005 88.9143 29.6942 86.7981 29.4444C85.4728 29.288 84.3283 29.1528 83.7152 28.8521C82.9568 28.48 82.5289 27.821 82.0333 27.058C81.4626 26.1791 80.7521 25.0851 79.2702 24.0765C77.4077 22.8086 75.172 23.6299 73.3755 24.2901C72.566 24.5874 71.8673 24.8442 71.3035 24.8792C71.2143 24.8845 71.1418 24.819 71.1363 24.7329C71.1309 24.6467 71.197 24.5724 71.2838 24.567C71.8014 24.5349 72.4801 24.2855 73.2661 23.9968C75.1307 23.3116 77.4512 22.4592 79.4486 23.8185C80.983 24.8628 81.7124 25.986 82.2985 26.8885C82.788 27.6424 83.1749 28.2379 83.8552 28.5718C84.4195 28.8487 85.5391 28.9808 86.8354 29.1338C89.1154 29.4029 91.6998 29.708 92.8575 30.9317C93.9098 32.0442 93.8575 33.8766 93.8113 35.4935C93.7776 36.6703 93.7459 37.7818 94.1654 38.3314C94.5459 38.8298 95.5767 39.2862 96.6683 39.7697C98.4755 40.5699 100.524 41.477 100.642 42.9933C100.746 44.3161 99.9814 45.8477 99.3068 47.1989C98.8094 48.1956 98.3395 49.1372 98.4728 49.5872C98.5847 49.9644 99.1893 50.5914 99.8293 51.2554C101.052 52.5233 102.437 53.9603 101.806 54.9638C101.776 55.011 101.724 55.0371 101.672 55.0371Z" fill="white"/>
<path d="M60.4597 51.8038C60.3954 51.8038 60.3349 51.7644 60.3117 51.7009C60.1324 51.212 59.1969 50.8394 58.2063 50.4448C56.9052 49.9265 55.4305 49.3389 54.7946 48.2349C54.002 46.8587 55.2072 44.4281 56.0872 42.6535C56.5033 41.8145 56.8626 41.0898 56.8965 40.7196C56.9425 40.2185 56.3748 39.3213 55.7741 38.3715C54.9946 37.1394 54.1111 35.7429 54.048 34.5065C53.9613 32.8041 57.3353 30.8705 59.3511 29.7152C59.9785 29.3556 60.5713 29.016 60.6718 28.8912C60.8225 28.7044 60.8915 28.3191 60.8765 27.7463C60.8743 27.66 60.9431 27.5882 61.0302 27.586C61.1138 27.5834 61.1895 27.652 61.1917 27.7383C61.2086 28.3961 61.1193 28.8371 60.9182 29.0867C60.7866 29.2498 60.3443 29.5073 59.509 29.9862C57.6837 31.0323 54.286 32.9795 54.3631 34.4908C54.4219 35.6458 55.2822 37.0057 56.041 38.2054C56.6984 39.2445 57.2661 40.1418 57.2106 40.748C57.1713 41.176 56.8178 41.8889 56.3703 42.7915C55.5213 44.5034 54.3588 46.8479 55.0683 48.0798C55.6499 49.0894 57.0705 49.6554 58.324 50.1548C59.4276 50.5944 60.3808 50.974 60.608 51.5941C60.6378 51.6753 60.5955 51.765 60.5137 51.7946C60.4958 51.8008 60.4777 51.8038 60.4597 51.8038Z" fill="#B7B308"/>
<path d="M60.8968 26.4669C60.8192 26.4669 60.7516 26.4102 60.7407 26.3317C60.719 26.1739 60.6966 26.019 60.6749 25.8695L60.6388 25.6197C60.6266 25.5341 60.6867 25.455 60.7729 25.443C60.8593 25.4308 60.9388 25.4905 60.951 25.5759L60.9869 25.825C61.0088 25.9752 61.0314 26.1309 61.0533 26.2893C61.0649 26.3748 61.0046 26.4538 60.9185 26.4654C60.9111 26.4665 60.9038 26.4669 60.8968 26.4669Z" fill="#B7B308"/>
<path d="M58.4028 106.657C59.4847 92.0376 61.0766 66.3182 56.3551 68.2058C35.3268 76.6127 17.1337 127.159 28.8401 136.207C37.3033 142.748 58.492 130.222 61.9324 122.088C61.9324 122.088 60.2893 107.182 58.4028 106.657Z" fill="#FFFFFD"/>
<path d="M46.9463 266.166C46.9432 267.321 57.0123 266.805 69.7686 266.68C70.7678 266.671 67.3494 220.614 68.0932 219.074C68.8088 225.491 74.4588 266.594 78.0095 266.53C94.274 266.231 126.065 264.297 126.045 263.221C125.993 260.284 123.894 248.073 122.637 243.03C122.578 239.761 124.641 207.748 120.723 183.831C118.461 170.022 115.372 156.119 113.03 146.237C111.549 139.982 110.367 135.338 109.884 133.351C109.743 132.763 109.661 132.408 109.651 132.313C108.606 121.994 110.989 105.614 111.891 100.478C114.645 93.5219 116.789 77.449 114.478 73.5589C113.041 71.1386 101.281 66.1901 95.6293 63.3335C95.3504 63.1944 89.464 55.2517 89.2228 55.0703C86.0298 52.6516 74.5124 55.555 72.8828 56.9669C72.525 57.2765 68.5424 62.8207 68.1453 63.0943C65.8096 64.6907 58.1266 67.3377 56.3551 68.2055C53.7925 69.4594 53.1889 81.1404 51.7642 85.2853C50.6452 88.5281 47.4853 101.638 46.9999 106.338C46.691 109.332 47.5452 114.55 48.5129 120.035C49.5972 126.173 50.8265 132.647 50.7335 136.713C50.7303 136.875 50.7272 137.035 50.7209 137.189C50.7067 137.626 50.5948 138.776 50.4151 140.44C50.4136 140.443 50.4136 140.446 50.4136 140.449C49.4963 148.92 46.2324 168.657 46.0086 176.506C44.9763 212.695 46.9542 263.179 46.9463 266.166Z" fill="#FFFFFD"/>
<path d="M50.721 137.189C50.7068 137.625 50.5949 138.776 50.4153 140.44C55.7359 136.612 62.7287 126.998 63.192 125.987C63.7168 124.841 62.2464 123.382 63.7168 121.818C65.5024 122.547 69.8995 121.193 72.6481 119.733L74.8545 112.853H66.0288L57.0282 116.543L60.613 125.236C57.9907 127.994 52.4682 131.646 50.5309 132.771C50.6815 134.234 50.76 135.569 50.7338 136.712C50.7305 136.875 50.7273 137.034 50.721 137.189Z" fill="white"/>
<path d="M95.4973 64.345C95.473 68.2566 92.6352 83.1012 91.633 83.3506C90.6309 83.6002 86.572 75.6386 85.9741 75.6495C85.3761 75.6605 88.6657 84.5997 88.3519 85.5944C88.0381 86.5891 69.9211 95.4427 69.9211 95.4427C69.9211 95.4427 87.0866 85.3449 87.3882 84.4123C87.9724 82.6059 83.2375 71.3283 84.2923 70.9235C85.3471 70.5185 90.7639 80.218 91.6712 79.8043C92.0623 79.626 95.4973 64.345 95.4973 64.345Z" fill="white"/>
<path d="M50.4131 140.45C51.037 142.439 51.9271 144.191 53.1768 144.829C52.1492 143.055 51.2647 139.638 50.7328 136.712C50.7297 136.875 50.7267 137.035 50.7204 137.189C50.7075 137.627 50.5951 138.782 50.4131 140.45Z" fill="white"/>
<path d="M67.8565 63.8079C66.6876 65.0147 61.77 76.6858 63.1458 77.4188C64.5218 78.1517 68.477 72.8381 68.8128 73.0296C69.1487 73.2213 62.9266 81.7081 63.2927 82.6409C63.659 83.5737 70.1424 89.147 70.3503 89.6103C70.5581 90.0736 67.6371 95.2837 67.4483 95.7204C66.8137 97.1879 66.0522 119.014 65.8853 120.763C65.7742 121.927 65.2564 126.82 65.1631 129.487C65.0649 132.297 66.1872 139.635 66.5196 140.13C66.7226 137.433 66.4808 122.67 66.4808 122.67C66.4808 122.67 66.6301 102.395 67.324 100.485C67.473 100.075 68.6182 95.8318 68.6182 95.8318L71.2602 89.476C71.2602 89.476 64.8695 82.5627 64.7152 81.4285C64.666 81.0678 71.5495 70.1184 70.6634 69.8182C69.7776 69.5178 65.8117 75.2303 65.1652 74.5575C64.5638 73.9315 67.8565 63.8079 67.8565 63.8079Z" fill="white"/>
<path d="M71.2065 89.7511C71.1638 89.7511 71.1211 89.7339 71.0899 89.6999C71.0731 89.6813 69.3656 87.8175 67.7196 85.8878C64.3298 81.9138 64.4926 81.5438 64.5709 81.3661C64.6519 81.1819 65.058 80.486 65.6728 79.4326C66.609 77.8283 67.8914 75.6312 68.9271 73.698C70.5626 70.6452 70.6004 70.0534 70.5611 69.9404C70.5255 69.931 70.3382 69.9305 69.7093 70.524C69.2224 70.9835 68.62 71.6558 68.0375 72.3061C66.6686 73.834 65.8017 74.7622 65.3092 74.7696C65.2008 74.7716 65.1168 74.7349 65.0503 74.665C64.2511 73.8249 67.2621 64.7945 67.9997 63.0343C68.0332 62.9546 68.1256 62.9169 68.2058 62.95C68.2862 62.9832 68.3243 63.0746 68.2909 63.1544C67.8383 64.2343 66.9341 66.8879 66.2043 69.4593C64.9373 73.9231 65.241 74.4095 65.2798 74.4503C65.2826 74.4534 65.2862 74.4574 65.3045 74.4569C65.6939 74.4511 66.8629 73.1465 67.802 72.0983C69.3831 70.3336 70.3003 69.3517 70.7581 69.6933C71.2599 70.0675 70.0456 72.5647 65.9456 79.5895C65.3802 80.5582 64.9337 81.3234 64.8596 81.4913C64.7765 81.9907 68.0801 85.9523 71.3232 89.4898C71.3816 89.5537 71.3769 89.6526 71.3126 89.7107C71.2823 89.7376 71.2444 89.7511 71.2065 89.7511Z" fill="#1B6EBE" stroke="#1B6EBE" stroke-width="0.6"/>
<path d="M68.1658 221.206C68.081 221.206 68.011 221.139 68.0083 221.054C66.8388 181.302 65.3457 111.17 67.1688 100.46C67.5332 98.3188 68.4676 96.0351 68.477 96.0123C68.51 95.9324 68.6019 95.8941 68.6825 95.9266C68.7632 95.9593 68.8019 96.0506 68.7689 96.1305C68.7596 96.153 67.8383 98.4057 67.4797 100.511C65.6607 111.198 67.1543 181.305 68.3235 221.045C68.326 221.131 68.2575 221.203 68.1705 221.206C68.1689 221.206 68.1675 221.206 68.1658 221.206Z" fill="#1B6EBE" stroke="#1B6EBE" stroke-width="0.6"/>
<path d="M71.989 98.0083C72.8317 98.438 72.4237 101.956 70.8312 102.084C69.2386 102.212 69.3261 100.084 69.3261 100.084C69.3261 100.084 69.371 101.292 70.2438 101.315C71.1166 101.337 72.3115 99.9308 71.989 98.0083Z" fill="white"/>
<path d="M70.3365 101.469C69.9351 101.469 69.6141 101.28 69.4072 100.922C68.9993 100.216 69.1153 98.9555 69.6715 98.0527C70.0882 97.3765 70.6784 97.0213 71.3403 97.0516C71.8575 97.0755 72.1705 97.6898 72.1568 98.6545C72.1376 100.003 71.5015 101.448 70.3605 101.469C70.3524 101.469 70.3444 101.469 70.3365 101.469ZM71.2621 97.3626C70.5712 97.3626 70.1392 97.8931 69.9402 98.216C69.447 99.0165 69.3306 100.161 69.6806 100.767C69.8333 101.031 70.0647 101.161 70.3544 101.156C71.3558 101.138 71.8268 99.6799 71.8414 98.6501C71.852 97.9075 71.6399 97.3785 71.3255 97.364C71.3042 97.363 71.2829 97.3626 71.2621 97.3626Z" fill="#1B6EBE" stroke="#1B6EBE" stroke-width="0.6"/>
<path d="M69.7345 120.045C70.5772 120.475 70.7682 123.562 69.1756 123.69C67.583 123.818 67.6705 121.69 67.6705 121.69C67.6705 121.69 67.7155 122.898 68.5882 122.921C69.4607 122.943 70.0568 121.968 69.7345 120.045Z" fill="white"/>
<path d="M68.7084 123.057C68.469 123.057 68.2389 122.97 68.0287 122.798C67.3953 122.28 67.0547 121.061 67.2533 120.021C67.4019 119.243 67.8294 118.702 68.4575 118.5C68.9501 118.341 69.4614 118.805 69.7927 119.713C70.2554 120.981 70.1752 122.556 69.1153 122.975C68.9781 123.03 68.8419 123.057 68.7084 123.057ZM68.555 118.797C67.8622 119.021 67.6361 119.697 67.5629 120.08C67.3871 121.001 67.6857 122.113 68.2291 122.557C68.4662 122.75 68.725 122.793 68.9984 122.685C69.9286 122.317 69.8494 120.787 69.4962 119.819C69.2412 119.121 68.8545 118.7 68.555 118.797Z" fill="#1B6EBE" stroke="#1B6EBE" stroke-width="0.6"/>
<path d="M70.1262 142.008C70.9689 142.438 70.7885 145.664 69.1959 145.792C67.6033 145.92 67.6908 143.792 67.6908 143.792C67.6908 143.792 67.7357 145 68.6085 145.022C69.4811 145.045 70.4487 143.931 70.1262 142.008Z" fill="white"/>
<path d="M68.8255 145.148C68.5408 145.148 68.2807 145.032 68.0611 144.803C67.4955 144.214 67.3054 142.962 67.6288 141.954C67.8709 141.199 68.3612 140.713 69.0092 140.587C69.5162 140.488 69.9687 141.011 70.1872 141.951C70.4924 143.266 70.2215 144.819 69.1183 145.109C69.0184 145.135 68.9207 145.148 68.8255 145.148ZM69.1243 140.889C69.1062 140.889 69.088 140.891 69.0699 140.894C68.355 141.033 68.0485 141.677 67.9293 142.049C67.6427 142.943 67.8042 144.081 68.2896 144.587C68.5011 144.808 68.7525 144.882 69.0376 144.807C70.0057 144.552 70.1129 143.025 69.88 142.021C69.7218 141.34 69.4169 140.889 69.1243 140.889Z" fill="#1B6EBE"/>
<path d="M69.0092 140.587C68.3612 140.713 67.8709 141.199 67.6288 141.954C67.3054 142.962 67.4955 144.214 68.0611 144.803C68.2807 145.032 68.5408 145.148 68.8255 145.148C68.9207 145.148 69.0184 145.135 69.1183 145.109C70.2215 144.819 70.4924 143.266 70.1872 141.951C69.9687 141.011 69.5162 140.488 69.0092 140.587ZM69.0092 140.587L69.0395 140.74M69.1243 140.889C69.1062 140.889 69.088 140.891 69.0699 140.894C68.355 141.033 68.0485 141.677 67.9293 142.049C67.6427 142.943 67.8042 144.081 68.2896 144.587C68.5011 144.808 68.7525 144.882 69.0376 144.807C70.0057 144.552 70.1129 143.025 69.88 142.021C69.7218 141.34 69.4169 140.889 69.1243 140.889Z" stroke="#1B6EBE" stroke-width="0.6"/>
<path d="M54.2291 147.259C54.1705 147.259 54.1142 147.227 54.0871 147.171C53.2501 145.452 51.0268 140.888 50.4998 136.225C50.49 136.139 50.5524 136.061 50.639 136.052C50.7261 136.042 50.8035 136.104 50.8131 136.19C51.334 140.8 53.5402 145.33 54.3708 147.035C54.4086 147.112 54.3759 147.206 54.2975 147.243C54.2755 147.254 54.2521 147.259 54.2291 147.259Z" fill="#1B6EBE" stroke="#1B6EBE" stroke-width="0.6"/>
<path d="M71.6947 147.781H105.09C105.424 147.781 105.638 147.695 105.638 147.364V108.116C105.638 107.977 105.716 107.843 105.804 107.735L107.325 106.024C107.413 105.917 107.568 105.782 107.568 105.643V101.04C107.568 100.708 107.113 100.297 106.779 100.297H71.6947C71.3602 100.297 70.8989 100.708 70.8989 101.04V147.363C70.8989 147.695 71.3602 147.781 71.6947 147.781Z" fill="#1B6EBE"/>
<path d="M101.778 148.129H71.6946C71.2754 148.129 70.9343 147.786 70.9343 147.364V144.718C70.9343 144.632 71.0048 144.562 71.0919 144.562C71.1791 144.562 71.2495 144.632 71.2495 144.718V147.364C71.2495 147.613 71.4492 147.816 71.6946 147.816H101.778C101.865 147.816 101.936 147.886 101.936 147.973C101.936 148.059 101.865 148.129 101.778 148.129Z" fill="#1B6EBE"/>
<path d="M106.217 146.789C106.13 146.789 106.06 146.719 106.06 146.632V107.956C106.06 107.87 106.13 107.8 106.217 107.8C106.304 107.8 106.375 107.87 106.375 107.956V146.632C106.375 146.719 106.304 146.789 106.217 146.789Z" fill="#1B6EBE"/>
<path d="M81.1869 130.983C81.1868 130.983 81.1856 130.983 81.1834 130.982C81.186 130.983 81.1871 130.983 81.1869 130.983ZM94.6022 130.681L94.634 130.433L94.6022 130.681C95.5871 130.807 96.4829 131.348 97.2101 132.109C97.9373 132.87 98.4832 133.839 98.7689 134.79C99.0564 135.747 99.0711 136.653 98.7844 137.304C98.6428 137.626 98.4279 137.887 98.1315 138.07C97.8341 138.254 97.4407 138.368 96.9303 138.372C96.8182 138.373 96.5816 138.41 96.2791 138.464C95.9655 138.52 95.5541 138.601 95.0735 138.699C94.1122 138.895 92.8691 139.162 91.5688 139.448C88.9681 140.019 86.1337 140.666 84.856 140.971C83.9925 141.176 82.6722 141.586 81.2501 142.027C80.2826 142.328 79.2679 142.642 78.3179 142.918C77.1346 143.26 76.0499 143.542 75.257 143.669C74.8572 143.733 74.5518 143.754 74.3509 143.732C74.2553 143.721 74.2038 143.703 74.1806 143.69C74.1561 143.418 74.2756 143.157 74.5335 142.892C74.7991 142.62 75.1879 142.37 75.6307 142.137C76.0278 141.928 76.4524 141.74 76.8483 141.566C76.8919 141.547 76.9351 141.527 76.9779 141.509C77.3987 141.323 77.7965 141.143 78.0483 140.969L78.2302 140.842L78.1271 140.647C78.1003 140.596 78.063 140.565 78.0439 140.55C78.0217 140.533 77.9994 140.521 77.9816 140.511C77.9457 140.493 77.9047 140.477 77.8645 140.464C77.7827 140.436 77.6742 140.406 77.5475 140.375C77.2925 140.313 76.9399 140.24 76.5261 140.159C76.0507 140.067 75.4864 139.962 74.8869 139.852C74.4442 139.77 73.9822 139.685 73.5224 139.598C72.4357 139.392 71.3576 139.178 70.5479 138.977C70.1418 138.876 69.8117 138.781 69.5841 138.694C69.4721 138.652 69.3955 138.615 69.3493 138.586C69.355 138.503 69.3919 138.398 69.4768 138.274C69.5808 138.121 69.7435 137.962 69.9512 137.816C70.3684 137.522 70.927 137.309 71.4494 137.299L71.55 136.822C71.5012 136.8 71.4433 136.788 71.4036 136.78C71.3563 136.772 71.2997 136.763 71.2376 136.756C71.126 136.742 70.9844 136.727 70.8263 136.711C70.8087 136.709 70.7909 136.707 70.7728 136.705C70.4101 136.668 69.9598 136.621 69.5206 136.546C69.0774 136.471 68.6648 136.372 68.3706 136.239C68.0542 136.096 67.988 135.968 67.9908 135.886L67.741 135.878L67.9908 135.886C67.9991 135.642 68.1855 135.417 68.6209 135.219C69.0464 135.026 69.6319 134.897 70.2594 134.811C70.8827 134.725 71.5282 134.684 72.065 134.657C72.1987 134.651 72.3356 134.645 72.462 134.639C72.5765 134.634 72.6825 134.629 72.7696 134.625C72.9607 134.615 73.1242 134.605 73.2265 134.588L73.2352 134.096C73.14 134.077 73.0298 134.056 72.9079 134.033C72.3046 133.917 71.4131 133.746 70.6124 133.525C70.1302 133.392 69.6955 133.244 69.3827 133.086C69.2258 133.006 69.1118 132.93 69.0389 132.861C68.9648 132.791 68.9553 132.749 68.9545 132.736C68.9406 132.52 69.0115 132.366 69.1597 132.237C69.321 132.098 69.5833 131.982 69.9578 131.895C70.7062 131.72 71.7846 131.683 73.0571 131.676C73.3668 131.674 73.6872 131.674 74.0157 131.674C76.3554 131.674 79.1093 131.673 81.3366 131.03L81.3366 131.03C81.3521 131.026 81.3723 131.019 81.3935 131.01C81.4106 131.002 81.4505 130.982 81.4862 130.942C81.5299 130.893 81.5724 130.804 81.542 130.698C81.5184 130.616 81.4624 130.572 81.4428 130.558C81.3996 130.526 81.3518 130.511 81.3318 130.505C81.3036 130.496 81.2721 130.488 81.2405 130.481C81.1402 130.458 80.9857 130.432 80.8014 130.401C80.7603 130.394 80.7177 130.387 80.6739 130.38C80.1827 130.296 79.4893 130.171 78.7894 129.964C78.0856 129.756 77.3975 129.471 76.905 129.077C76.4328 128.7 76.1566 128.24 76.192 127.65C76.2349 127.641 76.3094 127.636 76.4274 127.642C76.6936 127.657 77.0687 127.726 77.5415 127.812C77.5704 127.817 77.5997 127.822 77.6293 127.828C78.6381 128.011 80.004 128.249 81.3617 128.116L81.3617 128.116C82.5608 127.998 83.7569 127.712 84.8409 127.452C85.0565 127.401 85.2678 127.35 85.4737 127.302C86.0989 127.157 86.674 127.035 87.1873 126.974C87.7026 126.913 88.1363 126.916 88.4844 127.007C88.8891 127.112 89.3513 127.365 89.8584 127.709C90.303 128.01 90.7649 128.368 91.2373 128.735C91.3012 128.784 91.3653 128.834 91.4296 128.884C91.9647 129.298 92.5109 129.714 93.0394 130.04C93.5646 130.364 94.0961 130.616 94.6022 130.681Z" fill="white" stroke="#1B6EBE" stroke-width="0.5"/>
<path d="M80.5086 131.182C80.4362 131.182 80.371 131.132 80.3548 131.059C80.3362 130.975 80.3899 130.891 80.4748 130.873C81.2323 130.708 83.1255 130.267 84.3501 129.734C84.4303 129.699 84.5228 129.735 84.5577 129.814C84.5926 129.893 84.5563 129.986 84.4765 130.02C83.2263 130.564 81.3087 131.011 80.5424 131.178C80.5313 131.181 80.5199 131.182 80.5086 131.182Z" fill="#1B6EBE"/>
<path d="M78.4958 135.021C78.4888 135.021 78.4817 135.021 78.4745 135.02C78.188 134.981 77.539 134.922 76.7176 134.846C75.5669 134.74 74.1346 134.609 72.8125 134.456C72.726 134.446 72.6642 134.369 72.6741 134.283C72.6841 134.197 72.7627 134.135 72.8488 134.146C74.1674 134.298 75.5975 134.429 76.7465 134.535C77.5717 134.611 78.2236 134.671 78.5165 134.71C78.6028 134.722 78.6633 134.8 78.6516 134.886C78.6412 134.964 78.5735 135.021 78.4958 135.021Z" fill="#1B6EBE"/>
<path d="M79.1284 138.18C79.1167 138.18 79.1049 138.178 79.0929 138.176C78.8449 138.119 76.5762 137.842 74.5745 137.597C73.2376 137.433 71.9747 137.279 71.4229 137.203C71.3366 137.192 71.2764 137.113 71.2884 137.027C71.3002 136.942 71.3796 136.882 71.4658 136.894C72.0156 136.968 73.2773 137.123 74.6133 137.286C76.7206 137.544 78.8997 137.81 79.1636 137.87C79.2483 137.89 79.3014 137.974 79.2819 138.058C79.2652 138.131 79.2004 138.18 79.1284 138.18Z" fill="#1B6EBE"/>
<path d="M80.0344 141.058C80.0292 141.058 80.0238 141.058 80.0183 141.057C78.729 140.928 77.1043 140.755 76.6852 140.668C76.5999 140.65 76.5454 140.567 76.5635 140.482C76.5815 140.398 76.6653 140.344 76.7503 140.362C77.0667 140.428 78.2385 140.564 80.0502 140.746C80.1368 140.755 80.1998 140.831 80.1912 140.917C80.1828 140.998 80.1141 141.058 80.0344 141.058Z" fill="#1B6EBE"/>
<path d="M114.649 73.6156C126.546 84.7391 143.301 132.771 135.794 136.712C124.594 142.591 97.3826 143.903 97.3826 143.903L94.9231 129.459L116.866 122.999C116.866 122.999 111.906 112.873 108.045 104.304C107.34 99.4209 109.272 68.588 114.649 73.6156Z" fill="#FFFFFD"/>
<path d="M123.865 125.944C123.818 125.944 123.772 125.924 123.741 125.885C122.654 124.531 118.825 123.155 116.867 123.155C116.779 123.155 116.709 123.085 116.709 122.999C116.709 122.913 116.779 122.843 116.867 122.843C118.888 122.843 122.854 124.277 123.988 125.69C124.042 125.757 124.031 125.856 123.963 125.91C123.934 125.933 123.899 125.944 123.865 125.944Z" fill="#1B6EBE" stroke="#1B6EBE" stroke-width="0.6"/>
<path d="M94.968 129.609L94.8784 129.31L116.644 122.902C116.315 122.22 115.226 119.916 113.883 117.074C111.807 112.682 109.223 107.216 108.16 105.018C108.122 104.94 108.155 104.847 108.234 104.809C108.312 104.772 108.406 104.805 108.444 104.883C109.508 107.082 112.092 112.549 114.168 116.942C115.662 120.101 116.841 122.597 117.008 122.93C117.028 122.971 117.03 123.019 117.011 123.062C116.993 123.104 116.956 123.136 116.911 123.149L94.968 129.609Z" fill="#1B6EBE" stroke="#1B6EBE" stroke-width="0.6"/>
<path d="M97.3826 144.059C97.3063 144.059 97.2403 144.005 97.2274 143.929L94.9493 130.551C94.9348 130.466 94.9926 130.385 95.0784 130.371C95.1655 130.356 95.2455 130.414 95.26 130.499L97.5144 143.737C99.779 143.578 128.058 141.501 135.708 136.581C138.223 134.964 138.334 129.17 136.028 119.826C134.106 112.037 130.571 102.157 126.328 92.7208C121.104 81.1023 117.283 76.4668 114.538 73.7262C113.236 72.4273 109.028 69.6611 96.3718 63.8597C96.0574 63.7155 95.8611 63.6255 95.8096 63.5998C95.4397 63.4153 93.7876 61.1529 91.2419 57.5623C90.8573 57.0199 90.552 56.5893 90.3867 56.3628C90.3357 56.2929 90.3512 56.195 90.4218 56.1445C90.4925 56.0938 90.5908 56.1095 90.6419 56.1794C90.8078 56.4065 91.1139 56.8384 91.4995 57.3823C92.7175 59.1002 95.5696 63.1228 95.9513 63.3204C96.0019 63.3457 96.1948 63.4341 96.5042 63.5757C106.556 68.1833 112.869 71.6169 114.761 73.5058C117.525 76.2651 121.371 80.9283 126.616 92.5934C130.866 102.046 134.408 111.945 136.334 119.752C137.966 126.366 139.212 134.7 135.88 136.843C127.88 141.987 97.6972 144.039 97.3932 144.059C97.3897 144.059 97.3861 144.059 97.3826 144.059Z" fill="#1B6EBE" stroke="#1B6EBE" stroke-width="0.6"/>
<path d="M72.9637 60.2436L72.9637 60.2436C73.2532 59.8989 73.4972 59.3836 73.7065 58.7635C73.9173 58.1388 74.0994 57.387 74.2554 56.5529C74.5675 54.8844 74.7785 52.8673 74.9005 50.8383C75.0225 48.8084 75.0557 46.7609 75.0108 45.03C74.9704 43.47 74.8663 42.1493 74.701 41.3307C74.7937 41.3062 74.9128 41.2751 75.0553 41.2385C75.4281 41.1427 75.9607 41.0094 76.5991 40.8597C77.8764 40.5603 79.5743 40.196 81.2616 39.9351C82.9539 39.6735 84.6159 39.5191 85.8295 39.6302C86.4397 39.686 86.9059 39.8067 87.2046 39.9907C87.3507 40.0807 87.449 40.1812 87.5087 40.2898C87.5676 40.3967 87.5972 40.5261 87.5834 40.6895L87.5834 40.6895C87.3256 43.754 87.2487 47.9459 87.3514 51.612C87.4028 53.4453 87.4993 55.1511 87.6412 56.5213C87.7121 57.2062 87.7947 57.8104 87.8895 58.3063C87.9833 58.7972 88.0921 59.1999 88.2221 59.4708L88.2221 59.4708C88.2256 59.4781 88.2368 59.511 88.2353 59.588C88.2339 59.6619 88.2211 59.7593 88.1939 59.8823C88.1395 60.1283 88.0332 60.4493 87.8775 60.8389C87.5668 61.6166 87.0718 62.6365 86.4459 63.818C85.195 66.1792 83.4338 69.1626 81.6146 72.0981C79.7957 75.033 77.9213 77.916 76.4451 80.0758C75.7067 81.156 75.0695 82.053 74.5896 82.6843C74.3492 83.0005 74.1511 83.2464 74.0009 83.4143C73.9822 83.4353 73.9644 83.4548 73.9476 83.4729C73.9124 83.3305 73.8744 83.1351 73.8345 82.8888C73.7367 82.2843 73.6327 81.4072 73.5289 80.3415C73.3214 78.2117 73.1161 75.3453 72.9612 72.4378C72.8063 69.5301 72.702 66.585 72.6961 64.2975C72.6931 63.153 72.7148 62.1776 72.7665 61.4551C72.7924 61.0933 72.8255 60.8007 72.8653 60.5844C72.8853 60.4761 72.906 60.3921 72.9265 60.3305C72.9471 60.2685 72.9621 60.246 72.9636 60.2438C72.9637 60.2436 72.9637 60.2436 72.9637 60.2436ZM73.7756 83.6342C73.7757 83.6341 73.7763 83.6337 73.7777 83.633C73.7763 83.6339 73.7756 83.6342 73.7756 83.6342Z" fill="white" stroke="#1B6EBE" stroke-width="0.5"/>
<path d="M68.6451 96.244C68.6219 96.244 68.6068 96.2398 68.5926 96.2357C68.5188 96.2149 68.4691 96.1532 68.4653 96.0783C68.4643 96.059 68.467 96.0398 68.4732 96.0215C68.736 95.2359 70.1448 91.7495 71.0608 89.5348C72.9196 85.0403 76.1835 80.179 79.3399 75.4778C83.5937 69.1421 87.9923 62.5907 88.7621 57.1162C88.7739 57.0307 88.853 56.9709 88.9399 56.983C89.0262 56.9949 89.0863 57.0738 89.0743 57.1594C88.2948 62.7045 83.8758 69.2861 79.6022 75.6511C76.4542 80.3396 73.1993 85.1877 71.3522 89.6535C70.5396 91.6185 69.2775 94.7376 68.8665 95.855C71.0975 94.8905 86.6876 85.1476 87.2582 84.3234C87.5601 83.8875 86.4154 80.1132 85.5798 77.3573C84.3083 73.1646 83.7825 71.2843 84.0835 70.8748C84.1336 70.8067 84.2066 70.7684 84.2894 70.7668C84.2911 70.7668 84.2927 70.7668 84.2943 70.7668C84.8194 70.7668 85.99 72.3161 88.3459 75.5957C89.5875 77.3242 91.1209 79.459 91.5533 79.681C92.0794 78.3938 95.2622 66.1474 95.4699 63.3196C95.4762 63.2335 95.5528 63.1686 95.6384 63.175C95.7252 63.1812 95.7905 63.2561 95.7842 63.3423C95.5717 66.2356 92.2586 78.9398 91.8137 79.871C91.7753 79.9517 91.7039 80.0022 91.6178 80.0099C91.194 80.0468 90.2702 78.8131 88.0893 75.7772C86.7772 73.9507 84.8093 71.2113 84.3258 71.0842C84.1458 71.5431 85.1067 74.7114 85.8818 77.2674C87.141 81.4198 87.8795 83.9788 87.5183 84.5006C87.136 85.0528 82.1762 88.243 78.0454 90.807C75.699 92.2634 73.474 93.6101 71.7804 94.599C69.2531 96.0745 68.7907 96.244 68.6451 96.244Z" fill="#1B6EBE"/>
<path d="M68.6227 96.0708H68.6243M68.6451 96.244C68.6219 96.244 68.6068 96.2398 68.5926 96.2357C68.5188 96.2149 68.4691 96.1532 68.4653 96.0783C68.4643 96.059 68.467 96.0398 68.4732 96.0215C68.736 95.2359 70.1448 91.7495 71.0608 89.5348C72.9196 85.0403 76.1835 80.179 79.3399 75.4778C83.5937 69.1422 87.9923 62.5907 88.7621 57.1162C88.7739 57.0307 88.853 56.9709 88.9399 56.983C89.0262 56.9949 89.0863 57.0738 89.0743 57.1594C88.2948 62.7045 83.8758 69.2861 79.6022 75.6511C76.4542 80.3396 73.1993 85.1877 71.3522 89.6535C70.5396 91.6185 69.2775 94.7376 68.8665 95.855C71.0975 94.8905 86.6876 85.1476 87.2582 84.3234C87.5601 83.8875 86.4154 80.1132 85.5798 77.3573C84.3083 73.1646 83.7825 71.2843 84.0835 70.8748C84.1336 70.8067 84.2066 70.7684 84.2894 70.7668C84.2911 70.7668 84.2927 70.7668 84.2943 70.7668C84.8194 70.7668 85.99 72.3161 88.3459 75.5957C89.5875 77.3242 91.1209 79.459 91.5533 79.681C92.0794 78.3938 95.2622 66.1474 95.4699 63.3196C95.4762 63.2335 95.5528 63.1686 95.6384 63.175C95.7252 63.1812 95.7905 63.2561 95.7842 63.3423C95.5717 66.2356 92.2586 78.9398 91.8137 79.871C91.7753 79.9517 91.7039 80.0022 91.6178 80.0099C91.194 80.0468 90.2702 78.8131 88.0893 75.7772C86.7772 73.9507 84.8093 71.2113 84.3258 71.0842C84.1458 71.5431 85.1067 74.7114 85.8818 77.2674C87.141 81.4198 87.8795 83.9788 87.5183 84.5006C87.136 85.0528 82.1762 88.243 78.0454 90.807C75.699 92.2634 73.474 93.6101 71.7804 94.599C69.2531 96.0745 68.7907 96.244 68.6451 96.244Z" stroke="#1B6EBE" stroke-width="0.6"/>
<path d="M73.9346 84.3528C73.8667 84.3528 73.8043 84.309 73.7836 84.2413C73.3165 82.6989 72.7515 76.8868 72.4693 70.722C72.315 67.3498 72.0511 59.4025 72.9334 58.4403C72.992 58.3764 73.0918 58.3718 73.1559 58.4298C73.2202 58.488 73.2249 58.5868 73.1665 58.6508C71.9741 59.9511 73.0229 80.6426 74.0855 84.1513C74.1104 84.234 74.0631 84.3211 73.9799 84.3459C73.9649 84.3506 73.9496 84.3528 73.9346 84.3528Z" fill="#1B6EBE"/>
<mask id="path-66-inside-1_663_4828" fill="white">
<path fill-rule="evenodd" clip-rule="evenodd" d="M88.1633 114.513C88.1534 113.86 81.2791 108.341 78.5642 107.367C77.1078 106.844 68.8836 109.336 63.4954 110.968C62.1657 111.371 61.0087 111.722 60.1687 111.962C60.1328 111.972 60.0984 111.984 60.0654 111.996C58.3364 112.462 56.5173 112.929 55.4995 113.001L58.8997 121.178C59.4733 120.76 61.2426 119.584 62.7094 118.615C62.9918 118.883 63.2356 119.065 63.4086 119.126C65.7101 119.936 68.8014 118.998 70.6764 118.429C71.4513 118.194 72.0184 118.022 72.2363 118.062C72.4517 118.102 72.9454 118.274 73.5889 118.498C75.9664 119.326 80.3893 120.866 80.3853 119.099C82.5582 120.8 83.6727 120.262 83.7326 119.342C85.1463 120.106 85.9031 120.186 86.2673 119.594C86.6191 119.023 85.7384 117.269 81.3134 112.333C87.371 116.175 88.1732 115.166 88.1633 114.513Z"/>
</mask>
<path fill-rule="evenodd" clip-rule="evenodd" d="M88.1633 114.513C88.1534 113.86 81.2791 108.341 78.5642 107.367C77.1078 106.844 68.8836 109.336 63.4954 110.968C62.1657 111.371 61.0087 111.722 60.1687 111.962C60.1328 111.972 60.0984 111.984 60.0654 111.996C58.3364 112.462 56.5173 112.929 55.4995 113.001L58.8997 121.178C59.4733 120.76 61.2426 119.584 62.7094 118.615C62.9918 118.883 63.2356 119.065 63.4086 119.126C65.7101 119.936 68.8014 118.998 70.6764 118.429C71.4513 118.194 72.0184 118.022 72.2363 118.062C72.4517 118.102 72.9454 118.274 73.5889 118.498C75.9664 119.326 80.3893 120.866 80.3853 119.099C82.5582 120.8 83.6727 120.262 83.7326 119.342C85.1463 120.106 85.9031 120.186 86.2673 119.594C86.6191 119.023 85.7384 117.269 81.3134 112.333C87.371 116.175 88.1732 115.166 88.1633 114.513Z" fill="white"/>
<path d="M78.5642 107.367L78.3953 107.837L78.3954 107.837L78.5642 107.367ZM88.1633 114.513L88.6632 114.505V114.505L88.1633 114.513ZM63.4954 110.968L63.6404 111.447H63.6404L63.4954 110.968ZM60.1687 111.962L60.0314 111.481L60.0313 111.481L60.1687 111.962ZM60.0654 111.996L60.1956 112.479L60.2201 112.472L60.2439 112.463L60.0654 111.996ZM55.4995 113.001L55.4642 112.502L54.771 112.551L55.0378 113.193L55.4995 113.001ZM58.8997 121.178L58.4381 121.37L58.6814 121.955L59.1939 121.582L58.8997 121.178ZM62.7094 118.615L63.0535 118.252L62.7653 117.979L62.4338 118.198L62.7094 118.615ZM63.4086 119.126L63.2424 119.597L63.2424 119.597L63.4086 119.126ZM70.6764 118.429L70.8216 118.908L70.6764 118.429ZM72.2363 118.062L72.3275 117.571L72.3275 117.571L72.2363 118.062ZM73.5889 118.498L73.4245 118.971L73.5889 118.498ZM80.3853 119.099L80.6936 118.705L79.883 118.071L79.8853 119.1L80.3853 119.099ZM83.7326 119.342L83.9704 118.902L83.2843 118.531L83.2337 119.309L83.7326 119.342ZM86.2673 119.594L85.8416 119.332L85.8416 119.332L86.2673 119.594ZM81.3134 112.333L81.5813 111.911L80.9412 112.667L81.3134 112.333ZM78.3954 107.837C79.0163 108.06 79.9143 108.56 80.9363 109.222C81.9487 109.878 83.0516 110.671 84.0734 111.457C85.0955 112.242 86.0295 113.015 86.7051 113.628C87.044 113.935 87.31 114.196 87.4881 114.393C87.578 114.493 87.6362 114.566 87.669 114.615C87.6855 114.639 87.689 114.648 87.6869 114.643C87.6856 114.64 87.6808 114.629 87.6759 114.612C87.6711 114.594 87.664 114.563 87.6633 114.52L88.6632 114.505C88.6614 114.386 88.6242 114.289 88.5982 114.231C88.5694 114.168 88.5334 114.108 88.4983 114.056C88.428 113.952 88.3349 113.839 88.2306 113.723C88.0202 113.49 87.7263 113.204 87.377 112.887C86.6759 112.251 85.7198 111.461 84.6828 110.664C83.6455 109.866 82.5201 109.056 81.4798 108.383C80.4489 107.715 79.4696 107.16 78.7331 106.896L78.3954 107.837ZM63.6404 111.447C66.3367 110.63 69.7302 109.602 72.6308 108.843C74.082 108.463 75.3994 108.154 76.4393 107.972C76.9598 107.881 77.4004 107.823 77.748 107.804C78.1141 107.783 78.3147 107.808 78.3953 107.837L78.7331 106.896C78.4496 106.794 78.0746 106.783 77.6912 106.805C77.2892 106.828 76.8063 106.892 76.2668 106.987C75.1866 107.176 73.8381 107.493 72.3777 107.876C69.455 108.64 66.0424 109.674 63.3504 110.49L63.6404 111.447ZM60.3061 112.443C61.1508 112.201 62.3123 111.849 63.6404 111.447L63.3504 110.49C62.0191 110.893 60.8666 111.242 60.0314 111.481L60.3061 112.443ZM60.2439 112.463C60.2627 112.456 60.2834 112.449 60.3061 112.443L60.0313 111.481C59.9822 111.495 59.934 111.511 59.887 111.529L60.2439 112.463ZM59.9353 111.513C58.1871 111.985 56.4224 112.434 55.4642 112.502L55.5349 113.499C56.6121 113.423 58.4857 112.94 60.1956 112.479L59.9353 111.513ZM55.0378 113.193L58.4381 121.37L59.3614 120.986L55.9612 112.809L55.0378 113.193ZM59.1939 121.582C59.7558 121.173 61.5126 120.004 62.9849 119.032L62.4338 118.198C60.9726 119.163 59.1908 120.348 58.6056 120.774L59.1939 121.582ZM63.5747 118.654C63.5115 118.632 63.3349 118.519 63.0535 118.252L62.3653 118.978C62.6488 119.247 62.9597 119.498 63.2424 119.597L63.5747 118.654ZM70.5312 117.951C69.5905 118.236 68.3804 118.603 67.1245 118.801C65.8623 119 64.6108 119.019 63.5747 118.654L63.2424 119.597C64.5079 120.043 65.9528 119.998 67.2804 119.789C68.6142 119.578 69.8873 119.191 70.8216 118.908L70.5312 117.951ZM72.3275 117.571C72.1893 117.545 72.0462 117.559 71.9367 117.575C71.8167 117.593 71.6826 117.622 71.5424 117.658C71.2627 117.729 70.9144 117.835 70.5312 117.951L70.8216 118.908C71.2132 118.789 71.536 118.691 71.788 118.627C71.9137 118.595 72.0107 118.575 72.0824 118.564C72.1648 118.552 72.1743 118.56 72.1451 118.554L72.3275 117.571ZM73.7533 118.026C73.4329 117.915 73.1441 117.814 72.9083 117.736C72.682 117.662 72.4735 117.598 72.3275 117.571L72.145 118.554C72.2144 118.567 72.3604 118.609 72.5957 118.686C72.8216 118.761 73.1013 118.858 73.4245 118.971L73.7533 118.026ZM79.8853 119.1C79.8856 119.207 79.8568 119.242 79.8382 119.261C79.8073 119.292 79.7306 119.342 79.5604 119.377C79.2096 119.448 78.6635 119.412 77.9739 119.28C76.6145 119.021 74.9511 118.443 73.7533 118.026L73.4245 118.971C74.6042 119.381 76.341 119.987 77.7865 120.263C78.4992 120.399 79.2067 120.468 79.7584 120.357C80.0394 120.3 80.3262 120.187 80.5457 119.968C80.7775 119.736 80.8861 119.432 80.8853 119.098L79.8853 119.1ZM83.2337 119.309C83.225 119.443 83.181 119.531 83.1289 119.586C83.0799 119.637 82.9903 119.693 82.8184 119.705C82.4464 119.729 81.7481 119.531 80.6936 118.705L80.0771 119.493C81.1954 120.368 82.1408 120.752 82.8843 120.702C83.2701 120.677 83.6062 120.533 83.8509 120.277C84.0926 120.025 84.2103 119.701 84.2316 119.374L83.2337 119.309ZM85.8416 119.332C85.7962 119.406 85.7538 119.437 85.7142 119.454C85.6696 119.474 85.5885 119.494 85.4437 119.479C85.1363 119.448 84.6669 119.279 83.9704 118.902L83.4949 119.782C84.212 120.169 84.8279 120.422 85.3434 120.474C85.61 120.501 85.8748 120.477 86.1186 120.369C86.3676 120.259 86.5564 120.078 86.6931 119.856L85.8416 119.332ZM80.9412 112.667C83.1497 115.13 84.4546 116.779 85.1619 117.872C85.517 118.421 85.7049 118.804 85.7874 119.064C85.874 119.336 85.815 119.375 85.8416 119.332L86.6931 119.856C86.8956 119.527 86.8584 119.133 86.7405 118.761C86.6185 118.377 86.3756 117.907 86.0014 117.329C85.2501 116.168 83.9022 114.472 81.6857 111.999L80.9412 112.667ZM87.6633 114.52C87.6638 114.552 87.6589 114.571 87.6555 114.58C87.6538 114.584 87.6534 114.585 87.6488 114.588C87.6359 114.598 87.509 114.679 87.0893 114.615C86.245 114.485 84.607 113.83 81.5813 111.911L81.0456 112.755C84.0775 114.679 85.8694 115.44 86.9381 115.603C87.4749 115.685 87.9253 115.631 88.2493 115.388C88.5886 115.133 88.6672 114.766 88.6632 114.505L87.6633 114.52Z" fill="#1B6EBE" mask="url(#path-66-inside-1_663_4828)"/>
<path d="M81.3135 112.49C81.2716 112.49 81.2298 112.473 81.1986 112.44L79.6146 110.77C79.555 110.707 79.558 110.608 79.6213 110.549C79.6847 110.49 79.7843 110.493 79.8442 110.556L81.4282 112.226C81.4878 112.289 81.4848 112.388 81.4215 112.447C81.3911 112.476 81.3523 112.49 81.3135 112.49Z" fill="#1B6EBE"/>
<path d="M82.231 117.567C82.1881 117.567 82.1451 117.55 82.114 117.515C81.7298 117.093 78.2495 113.924 77.5015 113.42C77.4295 113.372 77.4107 113.274 77.4596 113.203C77.5086 113.131 77.6066 113.113 77.6785 113.161C78.4369 113.672 81.9596 116.879 82.3479 117.306C82.4062 117.37 82.4012 117.469 82.3365 117.526C82.3064 117.554 82.2686 117.567 82.231 117.567Z" fill="#1B6EBE"/>
<path d="M80.3855 119.256C80.3435 119.256 80.3016 119.239 80.2705 119.206C79.6229 118.519 76.2287 116.869 76.1943 116.852C76.1161 116.815 76.0838 116.721 76.122 116.643C76.1603 116.566 76.2548 116.534 76.3328 116.572C76.4745 116.64 79.8138 118.264 80.5007 118.993C80.5602 119.056 80.5567 119.155 80.4932 119.214C80.4628 119.242 80.4242 119.256 80.3855 119.256Z" fill="#1B6EBE"/>
<path d="M48.8481 100.89C47.0839 101.833 44.6008 107.7 44.7527 112.333C41.3574 111.498 34.9343 117.307 34.9343 117.307C34.9343 117.307 38.0484 115.715 41.5651 115.028C45.0819 114.342 48.2115 113.905 48.2115 113.905C48.2115 113.905 47.1243 111.436 47.0862 108.419C47.0483 105.403 48.8481 100.89 48.8481 100.89Z" fill="white"/>
<path d="M48.2335 113.968C48.1741 113.968 48.1175 113.935 48.0907 113.878C44.8592 107.027 49.2011 98.7093 51.6778 95.9666C51.7363 95.9021 51.8359 95.897 51.9004 95.9544C51.9653 96.0119 51.9707 96.1109 51.9127 96.1751C50.3715 97.8817 44.8983 106.372 48.3761 113.746C48.413 113.824 48.3791 113.917 48.3003 113.954C48.2786 113.964 48.2559 113.968 48.2335 113.968Z" fill="#1B6EBE" stroke="#1B6EBE" stroke-width="0.6"/>
<path d="M34.4076 138.211C31.7995 138.211 29.698 137.398 28.1528 135.789C24.8037 132.3 24.7174 125.909 25.2346 121.161C25.6406 117.435 27.6097 107.622 32.1561 97.1536C34.6685 91.3686 37.6098 86.1843 40.898 81.7446C44.8315 76.4338 49.2795 72.1748 54.1185 69.0856C55.4291 68.2488 57.2852 67.5811 59.4342 66.8077C62.3461 65.76 65.6465 64.5724 68.3506 62.6444C68.6852 62.4058 69.6357 60.99 70.4745 59.741C71.2779 58.5445 72.1083 57.3075 72.5736 56.8142C72.6331 56.751 72.7327 56.7479 72.7964 56.8068C72.8599 56.8658 72.8633 56.9648 72.8038 57.0278C72.3563 57.5021 71.5331 58.7284 70.7369 59.9142C69.8004 61.3088 68.9158 62.6263 68.5347 62.8982C65.795 64.8515 62.4728 66.0468 59.5417 67.1015C57.4106 67.8684 55.57 68.5306 54.2892 69.3483C45.4965 74.9615 37.9431 84.6192 32.4458 97.2771C27.9143 107.711 25.9525 117.484 25.5481 121.194C25.0381 125.876 25.1155 132.171 28.3811 135.573C30.0099 137.269 32.2929 138.044 35.1657 137.876C47.8521 137.132 59.3918 126.204 60.4263 125.199L55.0808 112.533C53.5633 113.094 51.0199 113.512 48.0896 113.994C43.085 114.816 36.8566 115.84 34.1714 118.026C34.1038 118.081 34.0048 118.071 33.9495 118.004C33.8943 117.937 33.9041 117.839 33.9714 117.784C36.722 115.545 42.734 114.557 48.0382 113.685C51.0459 113.191 53.6432 112.764 55.1092 112.187C55.1891 112.156 55.2794 112.194 55.3128 112.272L60.7585 125.176C60.7829 125.234 60.7699 125.301 60.725 125.346C60.695 125.376 57.6626 128.395 53.0246 131.468C48.7397 134.308 42.1665 137.779 35.1844 138.188C34.9206 138.204 34.6615 138.211 34.4076 138.211Z" fill="#1B6EBE" stroke="#1B6EBE" stroke-width="0.5"/>
<path d="M109.406 125.015C109.405 125.015 109.404 125.015 109.403 125.015C109.316 125.013 109.247 124.942 109.248 124.855C109.324 120.646 109.685 115.765 110.321 110.349C110.331 110.264 110.41 110.202 110.496 110.212C110.582 110.222 110.644 110.3 110.634 110.385C110 115.791 109.639 120.661 109.564 124.861C109.562 124.946 109.492 125.015 109.406 125.015Z" fill="#1B6EBE" stroke="#1B6EBE" stroke-width="0.6"/>
<path d="M78.0099 266.685C77.9242 266.685 77.8539 266.617 77.8523 266.532C77.8507 266.445 77.9201 266.374 78.0069 266.372C94.4548 266.072 124.644 264.188 125.886 263.185C125.816 260.108 123.696 247.935 122.485 243.067C122.482 243.056 122.48 243.044 122.48 243.032C122.47 242.499 122.515 241.242 122.583 239.339C122.929 229.644 123.849 203.89 120.567 183.856C118.619 171.96 115.76 158.18 112.07 142.898C112.05 142.814 112.102 142.729 112.186 142.709C112.272 142.689 112.356 142.741 112.376 142.825C116.069 158.114 118.929 171.902 120.878 183.806C124.164 203.871 123.244 229.647 122.898 239.35C122.831 241.228 122.786 242.475 122.795 243.009C124.016 247.922 126.149 260.194 126.202 263.218C126.206 263.441 126.212 263.746 120.851 264.306C117.759 264.628 113.365 264.98 108.144 265.323C97.7449 266.006 85.9175 266.541 78.0127 266.685C78.0118 266.685 78.0109 266.685 78.0099 266.685Z" fill="#1B6EBE" stroke="#1B6EBE" stroke-width="0.6"/>
<path d="M53.532 267.057C49.5759 267.057 47.3953 266.912 46.9143 266.442C46.8104 266.341 46.7889 266.235 46.789 266.165C46.7906 265.639 46.7283 263.577 46.6344 260.456C46.1879 245.64 45.0021 206.284 45.851 176.501C45.9949 171.456 47.3869 161.55 48.6153 152.81C49.2906 148.005 49.9284 143.466 50.2565 140.433C50.4506 138.652 50.551 137.589 50.5629 137.184C50.5691 137.039 50.5721 136.891 50.5749 136.739L50.5756 136.708C50.5967 135.791 50.5521 134.732 50.4395 133.47C50.4318 133.384 50.4958 133.308 50.5826 133.301C50.6688 133.293 50.7457 133.357 50.7535 133.443C50.8671 134.716 50.912 135.786 50.8908 136.715L50.8901 136.745C50.887 136.899 50.8841 137.049 50.878 137.195C50.8657 137.606 50.7648 138.677 50.5699 140.466C50.2413 143.504 49.603 148.046 48.9274 152.854C47.7003 161.585 46.3094 171.482 46.166 176.51C45.3172 206.283 46.503 245.633 46.9493 260.447C47.0436 263.57 47.1056 265.634 47.1041 266.166C47.1041 266.171 47.1041 266.188 47.1353 266.219C47.8186 266.886 53.8891 266.78 61.574 266.644C64.0351 266.601 66.822 266.552 69.6952 266.524C70.0688 265.478 69.3836 252.905 68.7783 241.792C68.0321 228.094 67.6039 219.724 67.9504 219.006C67.981 218.943 68.0497 218.908 68.1191 218.919C68.1883 218.931 68.2415 218.987 68.2492 219.056C68.6885 222.997 72.8997 254.722 76.4549 264.016C76.4858 264.097 76.445 264.187 76.3635 264.218C76.2827 264.249 76.1912 264.208 76.1603 264.127C72.9122 255.636 69.1235 228.527 68.1408 220.776C68.1488 224.446 68.6448 233.55 69.0929 241.775C69.922 256.991 70.3907 266.265 69.9126 266.771C69.8736 266.812 69.8227 266.835 69.7693 266.836C66.872 266.864 64.0602 266.913 61.5795 266.957C58.3639 267.014 55.685 267.057 53.532 267.057Z" fill="#1B6EBE" stroke="#1B6EBE" stroke-width="0.6"/>
<path d="M69.055 27.0632C69.5059 26.6192 69.9464 26.2845 70.3555 26.0771C70.4271 26.2741 70.5259 26.4775 70.6421 26.681C70.8492 27.0435 71.1255 27.4302 71.4455 27.8165C72.0851 28.5888 72.9166 29.3808 73.7655 29.9992L73.7655 29.9992C74.869 30.803 76.3192 31.0374 77.7514 31.2689C77.8274 31.2812 77.9035 31.2935 77.9794 31.3058C79.5194 31.5567 81.0679 31.8414 82.4204 32.7503C83.0358 33.1639 83.5406 33.7444 83.9928 34.3787C84.2184 34.695 84.4279 35.0204 84.631 35.3415C84.6694 35.4021 84.7076 35.4627 84.7457 35.5231C84.9077 35.7801 85.0676 36.0336 85.2256 36.2681C85.6065 36.8333 86.0259 37.3677 86.5467 37.6178C86.8199 37.7491 87.1189 37.8018 87.4421 37.7471C87.6092 37.7189 87.7766 37.663 87.9453 37.5809C88.2243 39.2834 88.126 41.4868 87.5941 43.6959C87.0101 46.1217 85.9124 48.5162 84.2625 50.2422C82.5174 52.0675 80.1672 53.2253 77.8762 53.8724C75.5829 54.5202 73.3836 54.6463 71.9664 54.4388L71.9157 54.7851L71.9664 54.4388C71.7865 54.4125 71.5012 54.3103 71.1329 54.1009C70.7702 53.8947 70.3459 53.5953 69.8907 53.1958C68.9805 52.3971 67.9572 51.2076 67.0631 49.5892C65.2778 46.3574 64.0025 41.4042 65.1934 34.4236C65.4754 32.7707 66.3158 30.8172 67.3736 29.1789C67.9012 28.3618 68.4771 27.6323 69.055 27.0632Z" fill="white" stroke="#1B6EBE" stroke-width="0.7"/>
<path d="M71.3399 45.0018C70.5901 45.0018 69.626 44.8789 69.0822 44.4705C68.7977 44.2569 68.6524 43.9867 68.6506 43.6673C68.6502 43.581 68.7201 43.5105 68.8073 43.51C68.897 43.5088 68.9652 43.5791 68.9658 43.6654C68.9671 43.8854 69.0675 44.0673 69.2722 44.2211C70.0118 44.7763 71.7746 44.7305 72.1993 44.6143C72.2827 44.5917 72.37 44.6401 72.393 44.7235C72.4162 44.8067 72.367 44.8928 72.283 44.9158C72.1076 44.9638 71.7568 45.0018 71.3399 45.0018Z" fill="#1B6EBE"/>
<path d="M79.9756 36.2951C79.9443 36.2879 79.9134 36.2759 79.8844 36.2584C79.0744 35.7762 78.1475 35.5093 77.2035 35.4863C77.0296 35.4821 76.8915 35.3387 76.8951 35.166C76.8988 34.9932 77.0428 34.8568 77.2168 34.861C78.2695 34.8865 79.3036 35.1842 80.207 35.7222C80.3566 35.8111 80.4055 36.0033 80.3163 36.1514C80.2445 36.2706 80.1052 36.3249 79.9756 36.2951Z" fill="#1B6EBE"/>
<path d="M69.2667 34.3417C69.2239 34.3755 69.1721 34.3987 69.1144 34.4068C68.1568 34.5426 67.299 34.8027 66.5646 35.1801C66.4099 35.2596 66.2207 35.1993 66.1423 35.0454C66.0638 34.8915 66.1259 34.7021 66.2805 34.6226C67.0777 34.213 68.0032 33.9314 69.0308 33.7857C69.2028 33.7612 69.361 33.8804 69.3841 34.0521C69.3995 34.1662 69.3513 34.2746 69.2667 34.3417Z" fill="#1B6EBE"/>
<path d="M79.5686 38.8919C79.5574 39.4845 78.8994 39.9546 78.0989 39.9422C77.2985 39.9299 76.5151 39.4228 76.5262 38.8303C76.5374 38.2379 77.339 37.7843 78.1395 37.7966C78.9399 37.8091 79.5798 38.2995 79.5686 38.8919Z" fill="#FFFFFD"/>
<path d="M79.0962 38.949C79.0823 39.6566 78.6735 39.9526 78.1763 39.9456C77.679 39.9385 77.282 39.631 77.2958 38.9233C77.3095 38.2157 77.7238 37.6478 78.221 37.6548C78.7182 37.662 79.1101 38.2413 79.0962 38.949Z" fill="#1B6EBE"/>
<path d="M68.9412 38.5261C68.8829 39.0658 68.2867 39.5092 67.4115 39.3563C66.7562 39.2419 66.3078 38.6207 66.3299 38.2544C66.3625 37.7124 66.8363 37.3206 67.6229 37.4018C68.4093 37.4831 68.9997 37.9864 68.9412 38.5261Z" fill="#FFFFFD"/>
<path d="M68.7407 38.5099C68.6948 39.138 68.2987 39.4475 67.8404 39.4153C67.3821 39.3831 67.0351 39.0212 67.081 38.3931C67.1268 37.765 67.5355 37.2821 67.9938 37.3143C68.4521 37.3465 68.7865 37.8818 68.7407 38.5099Z" fill="#1B6EBE"/>
<path d="M76.9884 47.3086C74.3205 48.0524 71.4856 47.8313 70.2954 47.398C70.7783 48.4256 71.5476 49.5768 72.482 49.6274C74.0091 49.7105 76.0272 48.3247 76.9884 47.3086Z" fill="#FFFFFD"/>
<path d="M87.2643 41.4675C89.306 43.4166 93.3715 36.6758 90.4316 35.5941C88.9803 35.0602 87.8112 36.3292 87.4328 36.8962C86.7413 37.933 86.3691 38.9954 87.2643 41.4675Z" fill="white"/>
<path d="M87.765 38.0619C87.765 38.0619 88.4585 37.2857 89.2405 37.4211C91.1585 37.7532 88.6867 41.27 87.6821 40.3111C86.6884 39.4276 87.765 38.0619 87.765 38.0619Z" fill="#F9F9FF"/>
<path d="M88.1933 38.4672C88.1695 38.4672 88.1452 38.4619 88.1227 38.4505C88.045 38.4117 88.0136 38.3176 88.0527 38.2405C88.3276 37.6984 89.0008 37.275 89.5238 37.137C89.8509 37.0505 90.1204 37.0677 90.3028 37.1871C90.3754 37.2348 90.3953 37.3318 90.3472 37.4038C90.299 37.4759 90.2013 37.4956 90.1288 37.4481C90.027 37.3813 89.836 37.378 89.6046 37.4392C89.161 37.5564 88.5648 37.9264 88.3342 38.381C88.3066 38.4356 88.251 38.4672 88.1933 38.4672Z" fill="#1B6EBE"/>
<path d="M89.8451 38.9662C89.7717 38.9662 89.706 38.915 89.6908 38.8409C89.6327 38.5555 89.4152 38.1588 89.1265 37.9858C88.9824 37.8995 88.8404 37.8783 88.6918 37.9213C88.6077 37.9456 88.5208 37.8979 88.4964 37.8152C88.4719 37.7323 88.5199 37.6455 88.6036 37.6213C88.8346 37.5542 89.072 37.5878 89.2896 37.7182C89.6593 37.9398 89.9268 38.4196 90 38.7791C90.0172 38.8637 89.9621 38.9462 89.8768 38.9633C89.8658 38.9651 89.8554 38.9662 89.8451 38.9662Z" fill="#1B6EBE"/>
<path d="M88.2129 42.0505C87.8949 42.0505 87.6128 41.9704 87.412 41.8486C87.1591 41.6954 87.0213 41.4762 87.0245 41.2315C87.0256 41.1452 87.1015 41.0756 87.1841 41.0772C87.2711 41.0783 87.3408 41.1491 87.3397 41.2356C87.3373 41.4108 87.487 41.5276 87.5762 41.5817C87.8769 41.7639 88.4523 41.8277 89.0047 41.5373C89.081 41.497 89.1768 41.5259 89.2178 41.6022C89.2586 41.6785 89.2291 41.7731 89.1522 41.8136C88.8326 41.9818 88.5073 42.0505 88.2129 42.0505Z" fill="#1B6EBE"/>
<path d="M57.6925 94.8728C60.1503 95.862 62.7287 88.2588 59.6413 87.2508C56.5537 86.2428 54.9589 93.7727 57.6925 94.8728Z" fill="#B7B308"/>
<path d="M58.0956 95.0809C57.9509 95.0809 57.8034 95.0626 57.6531 95.0242C56.9536 94.845 56.46 94.2678 56.2257 93.3548C55.7517 91.5069 56.4626 88.7659 57.7171 87.604C58.3158 87.0496 58.998 86.8762 59.6904 87.1021C61.4 87.6603 61.5712 89.9695 61.0066 91.8789C60.528 93.4979 59.4415 95.0809 58.0956 95.0809ZM59.1006 87.3181C58.6935 87.3181 58.3022 87.4901 57.9323 87.8328C56.7492 88.9285 56.0814 91.5238 56.5312 93.2779C56.6736 93.8326 56.9974 94.5334 57.7319 94.7216C59.0776 95.0661 60.2155 93.4441 60.7041 91.7911C61.2271 90.0217 61.1022 87.8927 59.5917 87.3995C59.4259 87.3451 59.2621 87.3181 59.1006 87.3181Z" fill="#B7B308"/>
<path d="M58.4933 88.6385C57.451 88.2899 55.7955 91.9571 57.4196 92.8303C59.044 93.7035 60.0443 89.0722 58.4933 88.6385Z" fill="#B7B308"/>
<path d="M57.831 93.0746C57.6757 93.0746 57.5173 93.0413 57.358 92.9741C56.4378 92.586 56.4114 91.3649 56.6687 90.4371C56.9608 89.3823 57.6902 88.3725 58.5146 88.4835L58.5432 88.49C59.0365 88.6523 59.3739 89.1084 59.4932 89.7742C59.6886 90.8639 59.2634 92.2508 58.5648 92.8027C58.3359 92.9834 58.0877 93.0746 57.831 93.0746ZM58.3881 88.7877C57.7796 88.7877 57.2111 89.6585 56.9725 90.52C56.7492 91.3261 56.7484 92.3771 57.4814 92.6864C57.7946 92.8186 58.0934 92.7753 58.3684 92.5582C58.9767 92.0775 59.3573 90.8022 59.1828 89.8289C59.114 89.4454 58.9324 88.9561 58.4581 88.7916C58.4347 88.789 58.4112 88.7877 58.3881 88.7877Z" fill="white"/>
<path d="M58.0048 90.2043C57.9796 90.2043 57.9542 90.2013 57.9286 90.195C57.7597 90.1534 57.6566 89.9838 57.6986 89.8162C58.5222 86.5222 58.9962 82.74 59.455 79.0825C59.8627 75.8301 60.2479 72.7581 60.8556 70.0808C62.2059 64.1312 66.293 60.8139 69.519 60.2494C69.6914 60.2194 69.854 60.3331 69.8841 60.503C69.9142 60.6732 69.8 60.8353 69.6285 60.8653C66.5055 61.4118 62.7005 64.7999 61.4706 70.2181C60.8698 72.8655 60.4864 75.9228 60.0805 79.1596C59.6197 82.8354 59.1431 86.6363 58.3107 89.9666C58.2749 90.109 58.1463 90.2043 58.0048 90.2043Z" fill="#B7B308"/>
<path d="M99.0833 94.4888C99.0081 94.4888 98.9418 94.4353 98.9282 94.3593C98.3758 91.2342 95.9491 89.6986 93.862 89.3037C91.3476 88.8279 88.9467 89.7754 87.7447 91.7178C87.6988 91.7914 87.6017 91.8144 87.5278 91.7692C87.4536 91.724 87.4304 91.6277 87.476 91.5542C88.7472 89.5001 91.2768 88.4963 93.9212 88.9966C96.1114 89.4111 98.6587 91.0234 99.2388 94.3054C99.2538 94.3905 99.1964 94.4714 99.1109 94.4864C99.1014 94.488 99.0923 94.4888 99.0833 94.4888Z" fill="#B7B308"/>
<path d="M95.6373 105.084C95.5653 105.084 95.4929 105.06 95.4337 105.01C95.3008 104.899 95.2844 104.701 95.3971 104.569C98.465 100.979 99.713 93.5683 98.0677 88.7095C97.5697 87.2386 96.5712 85.3957 94.6438 84.9693C93.2646 84.6642 91.9066 85.2204 90.6086 86.6229C87.2717 90.2286 85.4749 98.4296 86.9809 103.179C87.0331 103.344 86.9409 103.52 86.7748 103.572C86.6087 103.623 86.4317 103.532 86.3793 103.367C84.7893 98.3521 86.6189 90.0091 90.1441 86.1998C91.5847 84.643 93.1883 84.0063 94.7809 84.3587C96.5334 84.7465 97.8766 86.1819 98.6651 88.5102C100.371 93.5471 99.0683 101.24 95.8777 104.974C95.8156 105.047 95.7268 105.084 95.6373 105.084Z" fill="#B7B308"/>
<path d="M86.2043 101.508C85.2732 101.675 85.6723 104.755 86.9811 104.524C88.29 104.293 87.5039 101.275 86.2043 101.508Z" fill="white"/>
<path d="M86.6662 104.259C86.4049 104.071 87.3281 103.755 87.3409 103.963C87.3538 104.17 86.8641 104.401 86.6662 104.259Z" fill="#1B6EBE"/>
<path d="M96.5985 103.428C95.9199 102.774 93.6276 104.887 94.5781 105.809C95.5286 106.731 97.5457 104.341 96.5985 103.428Z" fill="white"/>
<path d="M94.6128 105.401C94.6147 105.08 95.4104 105.642 95.2481 105.773C95.0856 105.904 94.6114 105.643 94.6128 105.401Z" fill="#1B6EBE"/>
<path d="M95.2342 82.4981C95.0625 82.4981 94.9221 82.3616 94.9191 82.1908C94.8874 80.3227 95.5115 77.5907 96.1722 74.6984C97.2256 70.0874 98.4194 64.8613 96.9143 62.8114C96.5216 62.2764 95.9626 61.9837 95.2055 61.9168C95.0321 61.9014 94.9041 61.7495 94.9196 61.5775C94.9352 61.4055 95.0876 61.2785 95.2616 61.2937C96.1974 61.3764 96.9249 61.7631 97.424 62.4431C99.0976 64.7225 97.923 69.8641 96.7872 74.8364C96.135 77.6909 95.5191 80.3872 95.5495 82.18C95.5525 82.3526 95.4137 82.495 95.2397 82.4978C95.2378 82.4981 95.2361 82.4981 95.2342 82.4981Z" fill="#B7B308"/>
<path d="M95.3497 81.5415C94.5237 81.3806 94.4647 83.254 94.1101 83.6552C93.6444 84.1821 92.3705 84.1507 92.5502 85.0934C92.6673 85.7081 94.0931 85.0061 94.6222 85.21C95.1512 85.4139 96.0382 86.1972 96.4669 85.7369C96.9146 85.2561 95.6689 84.2222 95.5796 83.8683C95.4902 83.5145 96.2886 81.7244 95.3497 81.5415Z" fill="#B7B308"/>
</g>
<defs>
<clipPath id="clip0_663_4828">
<rect width="115" height="144" fill="white" transform="translate(23 16)"/>
</clipPath>
</defs>
</svg>
