<?xml version="1.0" encoding="utf-8"?>
<svg viewBox="6.201 5.805 210.827 138.002" fill="none" xmlns="http://www.w3.org/2000/svg">
  <path d="M60.4694 51.2882H56.9883V50.5335C56.9883 49.5723 57.7676 48.793 58.7289 48.793C59.6901 48.793 60.4694 49.5723 60.4694 50.5335L60.4694 51.2882Z" fill="white"/>
  <path d="M66.6078 100.549C66.2813 102.535 65.2233 104.272 63.7214 105.477H53.7363C52.2343 104.272 51.1764 102.535 50.8499 100.549H66.6078Z" fill="white"/>
  <path d="M60.3226 101.211C58.6526 101.211 58.6519 103.803 60.3226 103.803C61.9927 103.803 61.9934 101.211 60.3226 101.211Z" fill="white"/>
  <path d="M56.45 102.606C55.4062 102.606 55.4058 104.226 56.45 104.226C57.4937 104.226 57.4942 102.606 56.45 102.606Z" fill="white"/>
  <path d="M60.6326 89.1649V51.2881H56.8249V89.1649C51.9154 90.0611 48.1919 94.3555 48.1919 99.5237C48.1919 102.848 49.7331 105.816 52.1395 107.746H65.3179C67.7244 105.816 69.2656 102.848 69.2656 99.5237C69.2657 94.3555 65.5422 90.0611 60.6326 89.1649Z" fill="white"/>
  <path d="M98.2904 64.8316H97.1433V32.0132C97.1433 25.9404 102.084 21 108.157 21C111.179 21 114.073 22.2595 116.136 24.4238C118.199 22.2621 121.103 21 124.115 21H124.292C130.365 21 135.305 25.9404 135.305 32.0132V41.2306H134.158V32.0132C134.158 26.573 129.732 22.1471 124.292 22.1471H124.115C121.378 22.1471 118.74 23.3109 116.887 25.2994C116.932 25.3586 116.977 25.4186 117.021 25.4787L121.547 31.6184C123.434 34.1782 123.265 37.756 121.145 40.1257C119.887 41.5327 118.083 42.3527 116.195 42.3762C116.168 42.3762 116.14 42.3766 116.113 42.3766C114.255 42.3766 112.465 41.6036 111.191 40.2478L111.128 40.1798C108.857 37.7627 108.67 34.0953 110.682 31.4594L115.361 25.3301C115.369 25.3198 115.377 25.3095 115.385 25.2993C113.532 23.3086 110.903 22.1471 108.157 22.1471C102.717 22.1471 98.2905 26.573 98.2905 32.0132V64.8316H98.2904ZM116.134 26.2081L111.594 32.1554C109.923 34.3434 110.079 37.3878 111.964 39.3942L112.027 39.4621C113.099 40.6037 114.547 41.2295 116.109 41.2295C116.133 41.2295 116.157 41.2295 116.181 41.2291C117.771 41.2093 119.23 40.5462 120.29 39.361C122.049 37.3938 122.19 34.4239 120.624 32.2992L116.134 26.2081Z" fill="#B7B308"/>
  <path d="M80.3096 98.1269C75.1708 98.1269 70.9897 93.9459 70.9897 88.807V43.8435C70.9897 40.6213 68.368 37.9997 65.1459 37.9997C61.9237 37.9997 59.3024 40.6213 59.3024 43.8435V50.0395H58.1553V43.8435C58.1553 39.9888 61.2911 36.8525 65.1459 36.8525C69.0006 36.8525 72.1368 39.9888 72.1368 43.8435V88.807C72.1368 93.3136 75.803 96.9798 80.3096 96.9798V98.1269Z" fill="#B7B308"/>
  <path d="M136.479 42.4785H132.984V41.7305C132.984 40.7656 133.767 39.9834 134.732 39.9834C135.696 39.9834 136.479 40.7656 136.479 41.7305V42.4785Z" fill="#1B6EBE"/>
  <path d="M156.314 41.6123H155.932V103.103H156.314V41.6123Z" fill="#1B6EBE"/>
  <path d="M161.632 49.9097H125.149V50.2921H161.632V49.9097Z" fill="#1B6EBE"/>
  <path d="M136.629 57.8642V42.479H132.834V57.8642C128.451 58.7447 125.149 62.6152 125.149 67.2577C125.149 72.5497 129.439 76.8397 134.731 76.8397C140.023 76.8397 144.313 72.5497 144.313 67.2577C144.313 62.6152 141.012 58.7447 136.629 57.8642Z" fill="white"/>
  <path d="M136.006 66.0419C135.302 66.7456 134.161 66.7456 133.458 66.0419C132.844 65.4283 132.755 64.4648 133.246 63.7491L134.732 61.5806L136.218 63.7491C136.709 64.4648 136.619 65.4284 136.006 66.0419Z" fill="#B7B308"/>
  <path d="M141.933 70.082C140.86 73.0181 138.04 75.1151 134.731 75.1151C131.423 75.1151 128.604 73.0181 127.531 70.082H141.933Z" fill="#B7B308"/>
  <path d="M132.434 71.2295C131.599 71.2295 131.598 72.5254 132.434 72.5254C133.269 72.5254 133.269 71.2295 132.434 71.2295Z" fill="white"/>
  <path d="M135.615 71.3091C133.945 71.3091 133.944 73.9008 135.615 73.9008C137.285 73.9008 137.285 71.3091 135.615 71.3091Z" fill="white"/>
  <path d="M134.732 77.0307C129.343 77.0307 124.958 72.6465 124.958 67.2575C124.958 62.6705 128.18 58.6799 132.643 57.7087V42.2876H136.82V57.7087C141.282 58.6799 144.505 62.6705 144.505 67.2575C144.505 72.6465 140.121 77.0307 134.732 77.0307ZM133.025 42.6699V58.0205L132.872 58.0515C128.508 58.9282 125.341 62.7997 125.341 67.2575C125.341 72.4356 129.553 76.6484 134.732 76.6484C139.91 76.6484 144.122 72.4356 144.122 67.2575C144.122 62.7997 140.955 58.9282 136.591 58.0515L136.437 58.0205V42.6699H133.025Z" fill="#1B6EBE"/>
  <path d="M137.046 52.4619H132.418C131.114 52.4619 130.057 51.4048 130.057 50.1008C130.057 48.7968 131.114 47.7397 132.418 47.7397H137.046C138.349 47.7397 139.407 48.7969 139.407 50.1008C139.407 51.4048 138.349 52.4619 137.046 52.4619Z" fill="#1B6EBE"/>
  <path d="M156.281 52.4619V47.7397C154.977 47.7397 153.92 48.7969 153.92 50.1008C153.92 51.4048 154.977 52.4619 156.281 52.4619Z" fill="#1B6EBE"/>
  <path d="M125.149 107.825H160.845C160.845 105.217 158.731 103.103 156.123 103.103H129.871C127.263 103.103 125.149 105.217 125.149 107.825Z" fill="#1B6EBE"/>
  <path d="M122.254 107.825H142.14C142.14 105.217 140.026 103.103 137.418 103.103H126.976C124.368 103.103 122.254 105.217 122.254 107.825Z" fill="#1B6EBE"/>
  <path d="M60.4694 51.2882H56.9883V50.5335C56.9883 49.5723 57.7676 48.793 58.7289 48.793C59.6901 48.793 60.4694 49.5723 60.4694 50.5335L60.4694 51.2882Z" fill="#1B6EBE"/>
  <path d="M66.608 100.549C66.2815 102.535 65.2236 104.272 63.7216 105.477H53.7366C52.2346 104.272 51.1766 102.535 50.8501 100.549H66.608Z" fill="#B7B308"/>
  <path d="M60.3231 101.211C58.653 101.211 58.6524 103.803 60.3231 103.803C61.9932 103.803 61.9939 101.211 60.3231 101.211Z" fill="white"/>
  <path d="M56.45 102.606C55.4062 102.606 55.4058 104.226 56.45 104.226C57.4937 104.226 57.4942 102.606 56.45 102.606Z" fill="white"/>
  <path d="M65.3851 107.936H52.0723L52.02 107.894C49.4659 105.846 48.001 102.795 48.001 99.5235C48.001 94.3955 51.622 89.9978 56.6339 89.0064V51.0967H60.8239V89.0064C65.8358 89.9978 69.4567 94.3955 69.4567 99.5235C69.4567 102.795 67.9919 105.846 65.4374 107.894L65.3851 107.936ZM52.207 107.554H65.2503C67.6815 105.579 69.0743 102.656 69.0743 99.5235C69.0743 94.5266 65.5097 90.2495 60.5983 89.353L60.4414 89.3242V51.4791H57.0162V89.3242L56.8593 89.353C51.9479 90.2495 48.3833 94.5266 48.3833 99.5235C48.3833 102.656 49.7761 105.579 52.207 107.554Z" fill="#1B6EBE"/>
  <path d="M101.088 66.0797H94.3457V63.8902C94.3457 63.7214 94.4826 63.5845 94.6515 63.5845H100.782C100.951 63.5845 101.088 63.7213 101.088 63.8902V66.0797Z" fill="#1B6EBE"/>
  <path d="M112.92 102.377L101.24 83.0644V66.0796H94.193V83.0644L86.9707 95.0067H81.5574V100.162H83.8533L82.5134 102.377C82.1795 102.929 82.0029 103.562 82.0029 104.208C82.0029 106.161 83.5867 107.745 85.5404 107.745H109.893C111.847 107.745 113.43 106.161 113.43 104.208C113.43 103.562 113.254 102.929 112.92 102.377Z" fill="white"/>
  <path d="M90.2064 96.0615H81.7427V99.1559H90.2064V96.0615Z" fill="#B7B308"/>
  <path d="M108.491 105.554H86.9019C85.2627 105.554 84.257 103.762 85.1093 102.364L90.4642 93.5645H104.945L110.284 102.364C111.136 103.765 110.127 105.554 108.491 105.554Z" fill="#B7B308"/>
  <path d="M94.7141 95.4658C93.2529 95.4658 93.2522 97.7336 94.7141 97.7336C96.1754 97.7336 96.1761 95.4658 94.7141 95.4658Z" fill="white"/>
  <path d="M100.531 97.5444C98.2346 97.5444 98.2337 101.108 100.531 101.108C102.827 101.108 102.828 97.5444 100.531 97.5444Z" fill="white"/>
  <path d="M96.2593 100.777C94.3805 100.777 94.3797 103.693 96.2593 103.693C98.1381 103.693 98.1389 100.777 96.2593 100.777Z" fill="white"/>
  <path d="M109.893 107.936H85.5404C83.4844 107.936 81.8115 106.264 81.8115 104.208C81.8115 103.528 81.9974 102.861 82.3496 102.278L83.5142 100.353H81.366V94.8156H86.8625L94.0018 83.011V65.8887H101.432V83.011L113.083 102.278C113.436 102.861 113.622 103.528 113.622 104.208C113.622 106.264 111.949 107.936 109.893 107.936ZM81.7484 99.9706H84.1924L82.6768 102.476C82.3609 102.999 82.1939 103.598 82.1939 104.208C82.1939 106.053 83.695 107.554 85.5404 107.554H109.893C111.738 107.554 113.239 106.053 113.239 104.208C113.239 103.598 113.072 102.999 112.756 102.476L101.049 83.1179V66.2711H94.3842V83.1179L87.0785 95.198H81.7484V99.9706Z" fill="#1B6EBE"/>
  <path d="M81.5574 95.2027V99.9057H79.368C79.1991 99.9057 79.0623 99.7688 79.0623 99.5999V95.5084C79.0623 95.3395 79.1991 95.2026 79.368 95.2026L81.5574 95.2027Z" fill="#1B6EBE"/>
  <path d="M91.5001 37.5L53.7907 6.8033L17.3034 48.9617L37.5508 64.1008L44.8646 56.5" stroke="#126CC1" stroke-miterlimit="10" stroke-linecap="round" stroke-linejoin="round"/>
  <path d="M64.2123 120.466L51.4755 135.278L41.5317 126.485L8.27557 97.0748L14.5017 90.2051L47.1875 119.563L35.7882 132.222L7.30964 108.403" stroke="#B7B400" stroke-miterlimit="10" stroke-linecap="round" stroke-linejoin="round"/>
  <path d="M209.54 46.2124C209.54 46.2124 180.205 53.7431 178.977 94.2083" stroke="#B7B400" stroke-width="0.948864" stroke-miterlimit="10" stroke-linecap="round" stroke-linejoin="round"/>
  <path d="M172.472 65.8109C169.845 62.8931 168.489 59.8305 169.444 58.9703C170.398 58.1101 173.302 59.7781 175.929 62.6959C178.556 65.6137 179.912 68.6763 178.958 69.5365C178.003 70.3967 175.1 68.7287 172.472 65.8109Z" fill="#B7B400" stroke="#B7B400" stroke-width="0.948864" stroke-miterlimit="10" stroke-linecap="round" stroke-linejoin="round"/>
  <path d="M169.207 82.7958C165.226 81.872 162.255 80.0236 162.569 78.6674C162.884 77.3112 166.365 76.9606 170.346 77.8844C174.326 78.8082 177.297 80.6566 176.983 82.0128C176.668 83.3691 173.187 83.7196 169.207 82.7958Z" fill="#B7B400" stroke="#B7B400" stroke-width="0.948864" stroke-miterlimit="10" stroke-linecap="round" stroke-linejoin="round"/>
  <path d="M190.303 86.6044C186.323 85.6806 183.351 83.8322 183.666 82.476C183.98 81.1197 187.462 80.7692 191.442 81.693C195.422 82.6168 198.393 84.4652 198.079 85.8214C197.764 87.1777 194.283 87.5282 190.303 86.6044Z" fill="#B7B400" stroke="#B7B400" stroke-width="0.948864" stroke-miterlimit="10" stroke-linecap="round" stroke-linejoin="round"/>
  <path d="M182.009 55.4326C180.11 53.3238 179.151 51.0913 179.867 50.4462C180.583 49.801 182.702 50.9875 184.601 53.0963C186.5 55.2051 187.459 57.4375 186.743 58.0827C186.027 58.7278 183.907 57.5413 182.009 55.4326Z" fill="#B7B400" stroke="#B7B400" stroke-width="0.948864" stroke-miterlimit="10" stroke-linecap="round" stroke-linejoin="round"/>
  <path d="M191.511 63.9291C191.366 63.0666 193.302 62.0207 195.835 61.593C198.369 61.1653 200.541 61.5177 200.686 62.3802C200.832 63.2427 198.896 64.2886 196.362 64.7163C193.829 65.1441 191.657 64.7916 191.511 63.9291Z" fill="#B7B400" stroke="#B7B400" stroke-width="0.948864" stroke-miterlimit="10" stroke-linecap="round" stroke-linejoin="round"/>
  <path d="M192.681 47.1873C191.526 45.2368 191.125 43.3385 191.785 42.9472C192.445 42.556 193.916 43.8201 195.071 45.7706C196.226 47.7211 196.627 49.6194 195.967 50.0106C195.307 50.4018 193.836 49.1378 192.681 47.1873Z" fill="#B7B400" stroke="#B7B400" stroke-width="0.948864" stroke-miterlimit="10" stroke-linecap="round" stroke-linejoin="round"/>
  <path d="M203.488 44.5167C203.086 44.4306 202.971 43.3845 203.229 42.1803C203.487 40.9761 204.022 40.0698 204.423 40.156C204.825 40.2422 204.94 41.2882 204.682 42.4924C204.424 43.6966 203.889 44.6029 203.488 44.5167Z" fill="#B7B400" stroke="#B7B400" stroke-width="0.948864" stroke-miterlimit="10" stroke-linecap="round" stroke-linejoin="round"/>
  <path d="M211.765 45.7064C211.58 45.3398 212.322 44.5935 213.421 44.0394C214.521 43.4854 215.562 43.3334 215.747 43.7C215.931 44.0666 215.19 44.8129 214.09 45.367C212.991 45.9211 211.95 46.073 211.765 45.7064Z" fill="#B7B400" stroke="#B7B400" stroke-width="0.948864" stroke-miterlimit="10" stroke-linecap="round" stroke-linejoin="round"/>
  <path d="M210.28 51.1483C209.169 50.617 208.412 49.886 208.589 49.5156C208.766 49.1452 209.81 49.2756 210.921 49.807C212.032 50.3383 212.789 51.0693 212.612 51.4397C212.435 51.8101 211.391 51.6796 210.28 51.1483Z" fill="#B7B400" stroke="#B7B400" stroke-width="0.948864" stroke-miterlimit="10" stroke-linecap="round" stroke-linejoin="round"/>
  <path d="M203.165 56.8759C200.9 56.805 199.083 56.1256 199.107 55.3584C199.131 54.5913 200.987 54.0268 203.252 54.0977C205.516 54.1686 207.333 54.848 207.309 55.6152C207.285 56.3823 205.43 56.9468 203.165 56.8759Z" fill="#B7B400" stroke="#B7B400" stroke-width="0.948864" stroke-miterlimit="10" stroke-linecap="round" stroke-linejoin="round"/>
  <path d="M185.73 74.1143C185.428 73.0681 187.699 71.4938 190.802 70.5978C193.905 69.7019 196.665 69.8237 196.967 70.8699C197.269 71.9161 194.998 73.4904 191.895 74.3864C188.792 75.2823 186.032 75.1605 185.73 74.1143Z" fill="#B7B400" stroke="#B7B400" stroke-width="0.948864" stroke-miterlimit="10" stroke-linecap="round" stroke-linejoin="round"/>
  <path d="M146.195 112.875C146.195 112.875 89.8673 143.666 59.8269 110.602" stroke="#B7B400" stroke-width="0.948864" stroke-miterlimit="10" stroke-linecap="round" stroke-linejoin="round"/>
  <path d="M147.823 112.486C147.823 112.486 141.332 113.678 134.814 117.517C138.284 117.6 141.302 115.174 147.823 112.486Z" stroke="#B7B400" stroke-width="0.948864" stroke-miterlimit="10" stroke-linecap="round" stroke-linejoin="round"/>
  <path d="M144.825 116.432C144.825 116.432 135.611 122.948 128.852 120.35C131.869 119.403 135.776 119.95 138.416 118.582C141.045 117.195 144.825 116.432 144.825 116.432Z" stroke="#B7B400" stroke-width="0.948864" stroke-miterlimit="10" stroke-linecap="round" stroke-linejoin="round"/>
  <path d="M139.09 123.452C139.09 123.452 129.84 126.804 127.128 125.278C124.444 123.737 123.944 122.081 121.902 122.319C125.344 121.14 128.519 123.916 130.503 123.909C134.822 123.93 137.239 122.559 139.09 123.452Z" stroke="#B7B400" stroke-width="0.948864" stroke-miterlimit="10" stroke-linecap="round" stroke-linejoin="round"/>
  <path d="M130.945 128.557C130.945 128.557 128.891 125.944 123.229 126.633C120.569 126.884 120.332 123.554 117.186 123.795C117.431 124.714 118.413 127.386 122.181 128.083C124.819 128.597 129.909 127.268 130.945 128.557Z" stroke="#B7B400" stroke-width="0.948864" stroke-miterlimit="10" stroke-linecap="round" stroke-linejoin="round"/>
  <path d="M121.786 133.288C121.786 133.288 120.828 129.65 115.887 129.569C110.945 129.487 111.996 125.078 109.467 125.031C109.894 127.43 110.133 130.358 112.984 131.331C115.825 132.284 118.816 130.549 121.786 133.288Z" stroke="#B7B400" stroke-width="0.948864" stroke-miterlimit="10" stroke-linecap="round" stroke-linejoin="round"/>
  <path d="M110.732 136.372C110.732 136.372 111.043 134.447 108.995 133.06C106.948 131.672 108.217 125.439 103.157 125.748C104.738 128.168 104.4 130.984 105.632 132.767C106.865 134.55 108.829 134.304 110.732 136.372Z" stroke="#B7B400" stroke-width="0.948864" stroke-miterlimit="10" stroke-linecap="round" stroke-linejoin="round"/>
  <path d="M109.864 139.429C109.864 139.429 106.09 137.105 102.827 136.256C99.5651 135.407 99.5036 126.943 93.0656 125.875C95.3219 128.251 97.5835 131.176 99.2131 135.976C100.853 140.795 109.864 139.429 109.864 139.429Z" stroke="#B7B400" stroke-width="0.948864" stroke-miterlimit="10" stroke-linecap="round" stroke-linejoin="round"/>
  <path d="M97.1929 140.564C97.1929 140.564 95.8764 135.193 92.8336 133.196C89.8192 131.184 90.4391 126.458 87.3325 125.625C88.0533 128.088 87.4913 132.381 90.4873 134.629C93.4834 136.877 94.8995 136.504 97.1929 140.564Z" stroke="#B7B400" stroke-width="0.948864" stroke-miterlimit="10" stroke-linecap="round" stroke-linejoin="round"/>
  <path d="M88.7198 141.837C88.7198 141.837 85.3776 138.35 85.7637 135.958C86.1498 133.566 85.9316 126.566 83.465 124.68C84.5947 127.623 83.6587 130.491 83.2186 133.188C82.7784 135.885 83.6735 140.284 88.7198 141.837Z" stroke="#B7B400" stroke-width="0.948864" stroke-miterlimit="10" stroke-linecap="round" stroke-linejoin="round"/>
  <path d="M82.6866 142.453C82.6866 142.453 77.06 139.838 76.8896 136.698C76.7192 133.557 82.8328 126.555 80.7815 124.217C82.1617 127.348 80.8006 130.449 79.8692 132.988C77.8246 138.543 82.6866 142.453 82.6866 142.453Z" stroke="#B7B400" stroke-width="0.948864" stroke-miterlimit="10" stroke-linecap="round" stroke-linejoin="round"/>
  <path d="M77.3164 122.727C77.3164 122.727 78.5699 124.549 75.6297 126.983C72.6895 129.418 69.1755 136.528 71.9424 141.858C73.4039 140.558 72.0199 138.633 72.8761 136.36C73.7145 134.122 78.4825 127.554 77.3164 122.727Z" stroke="#B7B400" stroke-width="0.948864" stroke-miterlimit="10" stroke-linecap="round" stroke-linejoin="round"/>
  <path d="M157.057 117.937L174.692 132.516L212.756 77.1383L159.5 35" stroke="#126CC1" stroke-width="0.948864" stroke-miterlimit="10" stroke-linecap="round" stroke-linejoin="round"/>
</svg>