<svg width="374" height="380" viewBox="0 0 374 380" fill="none" xmlns="http://www.w3.org/2000/svg">
<g clip-path="url(#clip0_323_3929)">
<g clip-path="url(#clip1_323_3929)">
<path d="M399.587 -167.852L-223.185 78.8279L18.9382 690.094L641.71 443.413L399.587 -167.852Z" fill="#F9F9FF"/>
<path d="M332.395 181.773C333.498 181.335 334.038 180.086 333.601 178.982C333.164 177.878 331.915 177.338 330.811 177.775C329.708 178.212 329.167 179.461 329.605 180.565C330.042 181.669 331.291 182.21 332.395 181.773Z" stroke="#126CC1" stroke-width="1.17637" stroke-miterlimit="10" stroke-linecap="round" stroke-linejoin="round"/>
<path d="M267.751 100.378C267.751 100.378 221.656 108.765 215.302 171.07" stroke="#B7B400" stroke-width="1.17637" stroke-miterlimit="10" stroke-linecap="round" stroke-linejoin="round"/>
<path d="M208.394 126.535C204.662 121.743 202.907 116.867 204.475 115.645C206.043 114.423 210.339 117.317 214.071 122.109C217.804 126.901 219.559 131.776 217.991 132.998C216.423 134.22 212.127 131.326 208.394 126.535Z" fill="#B7B400" stroke="#B7B400" stroke-width="1.17637" stroke-miterlimit="10" stroke-linecap="round" stroke-linejoin="round"/>
<path d="M201.483 152.383C195.443 150.518 191.062 147.339 191.696 145.281C192.331 143.222 197.742 143.065 203.782 144.929C209.822 146.794 214.203 149.973 213.568 152.031C212.933 154.09 207.523 154.247 201.483 152.383Z" fill="#B7B400" stroke="#B7B400" stroke-width="1.17637" stroke-miterlimit="10" stroke-linecap="round" stroke-linejoin="round"/>
<path d="M233.617 160.585C227.577 158.721 223.195 155.542 223.83 153.483C224.465 151.425 229.876 151.268 235.916 153.132C241.955 154.997 246.337 158.176 245.702 160.234C245.067 162.292 239.656 162.45 233.617 160.585Z" fill="#B7B400" stroke="#B7B400" stroke-width="1.17637" stroke-miterlimit="10" stroke-linecap="round" stroke-linejoin="round"/>
<path d="M224.254 111.571C221.556 108.108 220.323 104.557 221.499 103.641C222.674 102.724 225.814 104.788 228.512 108.252C231.209 111.715 232.443 115.266 231.267 116.182C230.091 117.099 226.951 115.034 224.254 111.571Z" fill="#B7B400" stroke="#B7B400" stroke-width="1.17637" stroke-miterlimit="10" stroke-linecap="round" stroke-linejoin="round"/>
<path d="M237.98 125.728C237.851 124.381 240.953 122.981 244.91 122.6C248.867 122.219 252.179 123.003 252.309 124.35C252.438 125.696 249.335 127.097 245.379 127.478C241.422 127.858 238.11 127.075 237.98 125.728Z" fill="#B7B400" stroke="#B7B400" stroke-width="1.17637" stroke-miterlimit="10" stroke-linecap="round" stroke-linejoin="round"/>
<path d="M241.63 100.024C240.063 96.8865 239.653 93.913 240.715 93.3821C241.776 92.8512 243.908 94.9639 245.475 98.1009C247.042 101.238 247.452 104.211 246.39 104.742C245.328 105.273 243.197 103.161 241.63 100.024Z" fill="#B7B400" stroke="#B7B400" stroke-width="1.17637" stroke-miterlimit="10" stroke-linecap="round" stroke-linejoin="round"/>
<path d="M258.6 97.0947C257.991 96.9175 257.927 95.2906 258.459 93.461C258.99 91.6313 259.915 90.2917 260.525 90.4689C261.135 90.6461 261.198 92.273 260.667 94.1027C260.135 95.9323 259.21 97.2719 258.6 97.0947Z" fill="#B7B400" stroke="#B7B400" stroke-width="1.17637" stroke-miterlimit="10" stroke-linecap="round" stroke-linejoin="round"/>
<path d="M271.242 99.8429C270.997 99.2569 272.224 98.1869 273.981 97.4532C275.739 96.7194 277.362 96.5997 277.607 97.1857C277.851 97.7718 276.625 98.8417 274.867 99.5754C273.11 100.309 271.486 100.429 271.242 99.8429Z" fill="#B7B400" stroke="#B7B400" stroke-width="1.17637" stroke-miterlimit="10" stroke-linecap="round" stroke-linejoin="round"/>
<path d="M268.35 108.076C266.695 107.134 265.607 105.922 265.921 105.37C266.235 104.818 267.832 105.134 269.487 106.077C271.142 107.019 272.23 108.23 271.916 108.783C271.602 109.335 270.005 109.018 268.35 108.076Z" fill="#B7B400" stroke="#B7B400" stroke-width="1.17637" stroke-miterlimit="10" stroke-linecap="round" stroke-linejoin="round"/>
<path d="M256.74 116.13C253.253 115.771 250.525 114.523 250.646 113.342C250.768 112.16 253.693 111.494 257.18 111.853C260.667 112.212 263.396 113.461 263.274 114.642C263.152 115.823 260.227 116.489 256.74 116.13Z" fill="#B7B400" stroke="#B7B400" stroke-width="1.17637" stroke-miterlimit="10" stroke-linecap="round" stroke-linejoin="round"/>
<path d="M227.937 140.808C227.586 139.16 231.264 136.981 236.15 135.94C241.037 134.9 245.283 135.392 245.633 137.04C245.984 138.687 242.306 140.866 237.419 141.907C232.533 142.947 228.287 142.455 227.937 140.808Z" fill="#B7B400" stroke="#B7B400" stroke-width="1.17637" stroke-miterlimit="10" stroke-linecap="round" stroke-linejoin="round"/>
<path d="M94.854 269.36C102.668 286.916 129.057 306.58 152.654 296.803C144.945 275.172 109.924 279.041 94.854 269.36Z" stroke="#B7B400" stroke-width="1.17637" stroke-miterlimit="10" stroke-linecap="round" stroke-linejoin="round"/>
<path d="M272.903 224.707L284.885 213.292C284.885 213.292 274.046 209.949 277.739 204.345C282.207 197.574 288.604 208.162 288.604 208.162C288.604 208.162 294.065 204.17 295.778 196.823C286.657 196.188 287.545 191.372 297.919 192.049C300.518 186.395 300.518 186.395 300.518 186.395C300.518 186.395 286.431 185.575 292.772 182.042C299.132 178.554 304.32 178.758 304.32 178.758C304.32 178.758 317.166 161.247 314.471 159.464C309.886 156.44 285.707 165.426 281.865 170.927C286.791 180.377 282.787 187.503 275.871 173.301C267.977 177.934 268.538 179.487 266.751 180.947C274.289 194.956 269.038 205.587 261.021 187.788C250.691 193.332 250.311 199.022 250.311 199.022C250.311 199.022 258.769 206.804 254.46 213.297C250.151 219.79 245.942 206.991 245.942 206.991C245.942 206.991 241.575 217.003 242.237 224.646" stroke="#B7B400" stroke-width="1.17637" stroke-miterlimit="10" stroke-linecap="round" stroke-linejoin="round"/>
<path d="M314.489 159.51C314.489 159.51 263.167 192.8 250.187 237.253" stroke="#B7B400" stroke-width="1.17637" stroke-miterlimit="10" stroke-linecap="round" stroke-linejoin="round"/>
<path d="M97.2408 239.767L68.2453 260.072L135.177 339.613L243.626 260.14" stroke="#126CC1" stroke-width="1.17637" stroke-miterlimit="10" stroke-linecap="round" stroke-linejoin="round"/>
<path d="M193.859 87.0023L281.042 19.9329L340.204 88.1381L284.726 135.228L272.867 122.931" stroke="#126CC1" stroke-width="1.17637" stroke-miterlimit="10" stroke-linecap="round" stroke-linejoin="round"/>
<path d="M51.3379 125.672L92.4953 92.1906L106.167 109.381L73.9237 135.327L53.0129 110.973L80.6061 87.5057" stroke="#126CC1" stroke-width="1.17637" stroke-miterlimit="10" stroke-linecap="round" stroke-linejoin="round"/>
<path d="M345.607 162.609C347.891 161.704 349.009 159.119 348.104 156.834C347.199 154.549 344.614 153.43 342.33 154.335C340.046 155.239 338.928 157.825 339.833 160.11C340.738 162.395 343.323 163.514 345.607 162.609Z" stroke="#126CC1" stroke-width="1.17637" stroke-miterlimit="10" stroke-linecap="round" stroke-linejoin="round"/>
<path d="M271.561 250.548L291.256 273.401L306.633 259.835L358.059 214.458L348.431 203.859L297.887 249.155L315.515 268.686L359.552 231.936" stroke="#B7B400" stroke-width="1.17637" stroke-miterlimit="10" stroke-linecap="round" stroke-linejoin="round"/>
<path d="M280.895 184.912L253.013 184.207C252.836 184.202 252.697 184.055 252.701 183.878L253.722 143.578C253.726 143.401 253.873 143.261 254.05 143.266L281.931 143.972C282.331 143.982 282.647 144.314 282.637 144.714L281.637 184.207C281.627 184.607 281.295 184.923 280.895 184.912Z" fill="#1B6EBE"/>
<path d="M269.29 183.948C269.905 183.873 269.905 183.873 269.905 183.873L269.905 183.873L269.905 183.872L269.905 183.871L269.905 183.867L269.903 183.852L269.896 183.796C269.889 183.748 269.88 183.68 269.868 183.597C269.844 183.431 269.809 183.204 269.764 182.959C269.72 182.715 269.664 182.446 269.599 182.199C269.537 181.967 269.454 181.703 269.339 181.501C269.338 181.501 269.338 181.501 269.338 181.501L269.322 181.472C268.904 180.741 268.568 180.153 268.314 179.661C268.054 179.158 267.901 178.796 267.832 178.52C267.767 178.256 267.791 178.121 267.83 178.032C267.873 177.935 267.975 177.801 268.239 177.62C268.257 177.621 268.293 177.626 268.352 177.645C268.506 177.695 268.727 177.814 269.005 178.027C269.555 178.449 270.209 179.141 270.841 179.985C271.469 180.824 272.054 181.786 272.478 182.728C272.906 183.68 273.147 184.563 273.139 185.26C273.134 185.704 272.944 186.21 272.577 186.774C272.213 187.333 271.708 187.901 271.146 188.457C270.67 188.93 270.17 189.379 269.699 189.802C269.616 189.877 269.534 189.951 269.453 190.024C268.93 190.495 268.43 190.955 268.117 191.348C267.89 191.634 267.667 191.96 267.428 192.311C266.548 193.603 265.445 195.221 263.046 196.33C261.77 196.919 259.988 197.408 258.069 197.934C257.651 198.048 257.226 198.165 256.798 198.284C254.47 198.936 252.053 199.686 250.475 200.782L250.475 200.782C249.67 201.341 248.666 202.358 247.636 203.52C246.596 204.694 245.494 206.061 244.489 207.357C243.484 208.654 242.571 209.886 241.911 210.793C241.663 211.133 241.451 211.428 241.282 211.664L232.501 202.204C232.788 202.028 233.161 201.799 233.597 201.527C234.66 200.866 236.104 199.957 237.628 198.96C239.152 197.964 240.76 196.878 242.15 195.866C243.528 194.863 244.73 193.905 245.412 193.167C246.429 192.067 247.342 190.942 248.166 189.925C248.387 189.653 248.602 189.388 248.81 189.133C249.818 187.906 250.662 186.95 251.44 186.405C251.571 186.313 251.676 186.233 251.77 186.162C252.01 185.979 252.18 185.85 252.549 185.699C253.075 185.485 253.975 185.254 255.817 185L257.264 184.801L256.115 183.899C256.035 183.836 255.933 183.774 255.856 183.728C255.832 183.713 255.807 183.699 255.782 183.684C255.716 183.645 255.649 183.605 255.576 183.559C255.376 183.435 255.18 183.298 255.026 183.147C254.87 182.994 254.797 182.865 254.775 182.763C254.758 182.684 254.755 182.551 254.902 182.33L254.902 182.33C255.008 182.17 255.193 182.058 255.715 182.034C255.972 182.022 256.271 182.033 256.629 182.051C256.685 182.054 256.742 182.057 256.801 182.06C257.107 182.076 257.447 182.094 257.805 182.1C258.803 182.135 259.606 182.253 260.498 182.429C260.523 182.434 260.591 182.446 260.678 182.439C260.746 182.433 260.997 182.398 261.153 182.147C261.307 181.899 261.23 181.662 261.207 181.601C261.178 181.521 261.138 181.466 261.124 181.446C261.076 181.381 261.016 181.328 261.005 181.318L261.003 181.317C260.985 181.3 260.961 181.28 260.94 181.261L260.928 181.25C260.901 181.227 260.873 181.202 260.842 181.175C260.717 181.062 260.57 180.917 260.455 180.753C260.337 180.585 260.286 180.445 260.282 180.335C260.279 180.253 260.299 180.119 260.488 179.93C260.591 179.828 260.805 179.728 261.198 179.703C261.581 179.679 262.049 179.732 262.553 179.843C263.565 180.068 264.582 180.499 265.085 180.812C266.192 181.502 267.074 182.279 268.816 184.347L270.157 185.939L269.905 183.873L269.29 183.948ZM260.738 181.212L260.738 181.212L260.738 181.212ZM260.184 182.248C260.183 182.247 260.181 182.245 260.176 182.241C260.182 182.246 260.184 182.248 260.184 182.248ZM268.223 177.621C268.223 177.62 268.225 177.62 268.228 177.62C268.225 177.621 268.223 177.621 268.223 177.621Z" fill="#F9F9FF" stroke="#1B6EBE" stroke-width="1.23977"/>
<path d="M252.603 185.541C253.029 184.316 255.738 184.174 256.351 184.258C256.74 184.311 257.174 184.449 257.871 184.654C259.186 185.041 260.546 185.441 261.032 185.745C261.5 186.038 262.039 186.422 262.479 187.051C262.985 187.775 263.244 188.656 263.274 189.744C263.299 190.675 263.274 191.69 263.235 192.571L262.767 192.571C262.805 191.695 262.831 190.684 262.806 189.756C262.75 187.65 261.752 186.747 260.784 186.141C260.352 185.871 258.964 185.463 257.739 185.102C256.793 184.824 256.607 184.73 256.214 184.693C255.121 184.592 253.288 184.997 253.045 185.695C252.949 185.971 252.979 186.223 253.139 186.466C253.441 186.927 254.188 187.289 254.956 187.346C256.334 187.448 258.04 188.032 258.694 189.361C258.978 189.938 259.085 191.189 258.649 192.571L258.203 192.43C258.578 191.24 258.52 190.067 258.274 189.568C257.707 188.415 256.17 187.906 254.921 187.813C254.248 187.762 253.416 187.477 252.925 186.949C252.859 186.878 252.8 186.803 252.747 186.723C252.51 186.361 252.46 185.952 252.603 185.541Z" fill="#1B6EBE"/>
<path d="M249.659 191.458L249.404 191.066C250.842 190.13 252.511 189.936 253.658 189.938C254.894 189.941 255.785 190.159 255.822 190.168L255.709 190.622L255.766 190.395L255.709 190.622C255.675 190.614 252.23 189.786 249.659 191.458Z" fill="#1B6EBE"/>
<path d="M260.573 181.926C260.771 182.01 261.424 182.224 261.634 182.306C262.427 182.612 263.246 182.929 263.856 183.507C264.909 184.505 265.642 185.71 266.036 187.088C266.32 188.081 265.909 191.668 265.905 191.704L266.37 191.758C266.387 191.607 266.795 188.042 266.486 186.96C266.069 185.5 265.293 184.224 264.178 183.168C263.502 182.526 262.6 182.177 261.803 181.869C261.61 181.794 260.978 181.588 260.801 181.514L260.573 181.926Z" fill="#1B6EBE"/>
<path d="M269.396 187.142C269.396 187.142 269.396 187.142 269.396 187.142L269.63 187.158L269.863 187.174C269.866 187.136 269.925 186.221 269.711 185.003C269.615 184.461 269.455 183.809 269.184 183.138L268.782 183.398C269.506 185.259 269.399 187.101 269.396 187.142Z" fill="#1B6EBE"/>
<path d="M12.8115 168.467C12.8115 168.467 112.119 168.467 128.362 267.166" stroke="#B7B400" stroke-width="1.17637" stroke-miterlimit="10" stroke-linecap="round" stroke-linejoin="round"/>
<path d="M10.3125 167.467C10.3125 167.467 20.0083 172.167 31.7033 171.617C27.0553 167.667 21.1579 169.217 10.3125 167.467Z" stroke="#B7B400" stroke-width="1.17637" stroke-miterlimit="10" stroke-linecap="round" stroke-linejoin="round"/>
<path d="M17.3091 162.866C17.3091 162.866 34.6516 159.916 41.8985 172.466C37.1006 171.066 32.2027 165.716 27.6047 165.566C23.0066 165.466 17.3091 162.866 17.3091 162.866Z" stroke="#B7B400" stroke-width="1.17637" stroke-miterlimit="10" stroke-linecap="round" stroke-linejoin="round"/>
<path d="M30.3037 155.117C30.3037 155.117 45.3473 158.517 47.8962 164.517C50.3951 170.517 49.8453 174.367 52.7941 176.117C47.2464 174.717 44.9974 165.717 42.2986 163.567C36.4511 158.817 32.1529 158.917 30.3037 155.117Z" stroke="#B7B400" stroke-width="1.17637" stroke-miterlimit="10" stroke-linecap="round" stroke-linejoin="round"/>
<path d="M45.147 153.816C45.147 153.816 45.9966 161.266 54.1931 166.066C57.9915 168.466 55.8424 175.366 60.2905 178.316C60.6403 176.216 61.29 169.816 56.692 164.316C53.4934 160.416 45.5968 157.516 45.147 153.816Z" stroke="#B7B400" stroke-width="1.17637" stroke-miterlimit="10" stroke-linecap="round" stroke-linejoin="round"/>
<path d="M61.0911 154.366C61.0911 154.366 59.6917 162.666 66.3389 168.216C72.986 173.766 68.288 181.416 71.6866 184.266C72.8861 179.016 74.7353 172.916 71.5866 167.866C68.438 162.866 63.0903 163.066 61.0911 154.366Z" stroke="#B7B400" stroke-width="1.17637" stroke-miterlimit="10" stroke-linecap="round" stroke-linejoin="round"/>
<path d="M78.3835 160.267C78.3835 160.267 76.5343 163.767 78.2835 168.767C80.0328 173.767 73.6855 184.817 80.7825 189.717C80.4326 183.167 82.9815 177.917 82.6317 173.017C82.2818 168.117 79.4331 166.467 78.3835 160.267Z" stroke="#B7B400" stroke-width="1.17637" stroke-miterlimit="10" stroke-linecap="round" stroke-linejoin="round"/>
<path d="M81.8315 155.117C81.8315 155.117 85.2301 163.867 89.0285 169.117C92.8268 174.367 86.6295 191.317 94.5761 200.467C93.2766 193.267 92.377 184.967 93.7264 173.617C95.0759 162.217 81.8315 155.117 81.8315 155.117Z" stroke="#B7B400" stroke-width="1.17637" stroke-miterlimit="10" stroke-linecap="round" stroke-linejoin="round"/>
<path d="M99.8737 166.667C99.8737 166.667 97.6746 178.816 100.323 186.116C102.922 193.416 98.5742 202.166 102.173 207.216C103.022 201.516 106.971 193.566 104.572 185.816C102.173 178.066 99.9736 177.266 99.8737 166.667Z" stroke="#B7B400" stroke-width="1.17637" stroke-miterlimit="10" stroke-linecap="round" stroke-linejoin="round"/>
<path d="M112.319 173.367C112.319 173.367 114.268 183.967 111.969 188.317C109.67 192.667 104.772 206.867 106.721 213.317C107.371 206.217 110.769 201.517 113.368 196.617C115.967 191.717 118.016 181.967 112.319 173.367Z" stroke="#B7B400" stroke-width="1.17637" stroke-miterlimit="10" stroke-linecap="round" stroke-linejoin="round"/>
<path d="M120.965 178.716C120.965 178.716 126.663 190.066 124.564 196.516C122.465 202.966 108.97 210.266 110.02 217.166C110.47 209.416 114.618 204.716 117.767 200.666C124.664 191.816 120.965 178.716 120.965 178.716Z" stroke="#B7B400" stroke-width="1.17637" stroke-miterlimit="10" stroke-linecap="round" stroke-linejoin="round"/>
<path d="M113.618 223.916C113.618 223.916 113.268 218.916 119.066 217.266C124.863 215.616 134.909 205.267 135.109 191.617C132.16 192.617 132.61 197.967 129.761 201.567C126.963 205.117 115.617 213.017 113.618 223.916Z" stroke="#B7B400" stroke-width="1.17637" stroke-miterlimit="10" stroke-linecap="round" stroke-linejoin="round"/>
<path d="M253.914 208.528L245.531 217.963C238.53 225.843 225.789 234.477 215.25 230.704L216.302 267.612L216.389 268.798L131.48 267.612L132.44 229.928C108.131 233.411 114.797 203.109 114.797 203.109C114.797 203.109 117.849 165.001 152.651 158.787C152.951 158.732 153.255 158.682 153.56 158.633C154.428 158.493 155.315 158.374 156.221 158.276C156.476 158.249 156.733 158.222 156.99 158.198C157.028 158.194 157.064 158.191 157.101 158.188C157.347 158.164 157.593 158.144 157.842 158.124C159.49 157.992 161.201 157.927 162.978 157.934C165.286 157.944 167.704 157.751 170.249 157.741C171.219 157.738 172.173 157.74 173.112 157.751C174.051 157.74 175.005 157.738 175.974 157.741C178.519 157.751 180.938 157.944 183.245 157.934C185.019 157.928 186.726 157.983 188.369 158.096C188.619 158.113 188.866 158.131 189.113 158.151C189.14 158.153 189.169 158.155 189.196 158.158C189.455 158.178 189.713 158.202 189.967 158.226C190.553 158.28 191.13 158.343 191.699 158.413C192.003 158.45 192.302 158.513 192.604 158.531C222.91 160.426 230.519 200.827 230.519 200.827L241.213 194.461L253.914 208.528Z" fill="#F9F9FF"/>
<path d="M216.389 268.798L216.302 267.612L215.25 230.704C225.789 234.477 238.53 225.843 245.531 217.963L253.914 208.528L241.213 194.461L230.519 200.827C230.519 200.827 222.91 160.426 192.604 158.531C192.302 158.513 192.003 158.45 191.699 158.413C191.13 158.343 190.553 158.28 189.967 158.226C189.713 158.202 189.455 158.178 189.196 158.158C189.169 158.155 189.14 158.153 189.113 158.151C188.866 158.131 188.619 158.113 188.369 158.096C186.726 157.983 185.019 157.928 183.245 157.934C180.938 157.944 178.519 157.751 175.974 157.741C175.005 157.738 174.051 157.74 173.112 157.751C172.173 157.74 171.219 157.738 170.249 157.741C167.704 157.751 165.286 157.944 162.978 157.934C161.201 157.927 159.49 157.992 157.842 158.124C157.593 158.144 157.347 158.164 157.101 158.188C157.064 158.191 157.028 158.194 156.99 158.198C156.733 158.222 156.476 158.249 156.221 158.276C155.315 158.374 154.428 158.493 153.56 158.633C153.255 158.682 152.951 158.732 152.651 158.787C117.849 165.001 114.797 203.109 114.797 203.109C114.797 203.109 108.131 233.411 132.44 229.928" stroke="#1B6EBE" stroke-width="1.23977"/>
<path d="M214.932 229.176L209.914 210.022L210.426 209.889L215.444 229.043L214.932 229.176Z" fill="#1B6EBE" stroke="#1B6EBE" stroke-width="1.23977"/>
<path d="M180.285 203.857L180.285 203.857L180.285 203.857L180.291 203.855L180.318 203.848C180.342 203.841 180.38 203.83 180.428 203.815C180.524 203.785 180.662 203.741 180.828 203.681C181.161 203.56 181.593 203.383 182.005 203.154C182.425 202.921 182.782 202.656 183.006 202.376C183.217 202.111 183.283 201.87 183.224 201.615L183.224 201.615C183.132 201.22 182.953 201.05 182.801 200.962C182.627 200.86 182.421 200.83 182.257 200.826L180.145 200.773L181.95 199.676C182.019 199.635 182.112 199.593 182.17 199.567C182.176 199.565 182.181 199.563 182.186 199.56L182.188 199.559C182.264 199.526 182.346 199.489 182.437 199.444C182.622 199.353 182.822 199.238 182.997 199.092C183.17 198.946 183.303 198.783 183.378 198.598C183.451 198.421 183.487 198.186 183.411 197.862L183.411 197.861C183.337 197.54 183.228 197.381 183.142 197.298C183.056 197.215 182.95 197.164 182.806 197.134C182.652 197.101 182.483 197.099 182.277 197.101C182.264 197.101 182.25 197.101 182.236 197.101C182.151 197.102 182.054 197.103 181.965 197.1C181.864 197.097 181.727 197.087 181.59 197.047L179.761 196.518L181.55 195.87L181.551 195.869L181.551 195.869L181.551 195.869L181.552 195.869L181.552 195.869L181.564 195.864C181.576 195.86 181.595 195.852 181.62 195.842C181.669 195.822 181.741 195.791 181.827 195.75C182.003 195.667 182.223 195.548 182.425 195.402C182.632 195.251 182.783 195.097 182.863 194.956C182.932 194.834 182.945 194.733 182.903 194.613L180.285 203.857ZM180.285 203.857L180.285 203.857M180.285 203.857L180.285 203.857M180.285 203.857L180.285 203.857M180.285 203.857L180.285 203.857M180.285 203.857L180.242 203.868M180.285 203.857L180.242 203.868M180.242 203.868L180.202 203.886M180.242 203.868L180.202 203.886M180.202 203.886C176.789 205.351 175.794 205.721 171.83 206.456C171.115 206.589 170.363 206.649 169.533 206.716C167.204 206.904 164.26 207.142 159.779 209.156L155.412 199.472C156.732 198.96 157.934 198.482 158.983 198.049C160.187 197.552 160.902 196.428 161.461 195.21C161.746 194.59 162.007 193.907 162.271 193.213L162.286 193.171C162.548 192.485 162.815 191.782 163.123 191.081L163.123 191.081C163.783 189.575 164.1 188.442 164.303 187.552C164.362 187.295 164.415 187.039 164.463 186.812C164.493 186.666 164.521 186.533 164.546 186.417C164.617 186.096 164.682 185.848 164.767 185.633L164.767 185.632L180.202 203.886ZM178.814 192.904L180.784 192.33L187.393 190.407C187.636 190.322 187.903 190.238 188.181 190.151C188.857 189.939 189.604 189.704 190.258 189.368C190.71 189.135 191.036 188.889 191.221 188.637C191.385 188.412 191.45 188.173 191.363 187.85L178.814 192.904ZM178.814 192.904L180.772 193.517M178.814 192.904L180.772 193.517M180.772 193.517C180.93 193.567 181.146 193.595 181.314 193.617M180.772 193.517L181.314 193.617M169.733 192.336L169.733 192.336C169.681 192.348 169.615 192.366 169.517 192.393L169.516 192.393C169.425 192.418 169.313 192.449 169.194 192.476C168.961 192.531 168.657 192.585 168.343 192.561C168.018 192.537 167.655 192.426 167.354 192.131C167.059 191.841 166.888 191.436 166.815 190.949L166.815 190.949C166.738 190.438 166.809 189.777 166.929 189.108C167.051 188.42 167.239 187.65 167.437 186.892C167.544 186.487 167.651 186.089 167.754 185.708C168.047 184.626 168.304 183.68 168.381 183.085L169.733 192.336ZM169.733 192.336C174.493 191.3 178.547 190.234 181.822 189.372M169.733 192.336L181.822 189.372M181.314 193.617C181.347 193.621 181.379 193.625 181.408 193.629M181.314 193.617L181.408 193.629M181.408 193.629C181.62 193.659 181.827 193.694 182.026 193.759M181.408 193.629L182.026 193.759M182.026 193.759C182.397 193.881 182.725 194.098 182.903 194.613L182.026 193.759ZM181.822 189.372C183.383 188.961 184.768 188.596 185.967 188.304M181.822 189.372L185.967 188.304M185.967 188.304C187.85 187.846 189.25 187.572 190.204 187.542M185.967 188.304L190.204 187.542M190.204 187.542C190.683 187.527 190.985 187.576 191.162 187.65M190.204 187.542L191.162 187.65M191.162 187.65C191.305 187.71 191.342 187.772 191.363 187.85L191.162 187.65ZM167.131 180.064C167.065 180.163 166.976 180.363 166.899 180.722C166.899 180.722 166.899 180.722 166.899 180.722L167.131 180.064ZM167.131 180.064C167.132 180.061 167.134 180.059 167.135 180.057M167.131 180.064L167.135 180.057M167.135 180.057C167.141 180.061 167.147 180.065 167.153 180.069C167.24 180.129 167.356 180.242 167.487 180.417C167.748 180.766 168.001 181.269 168.175 181.789C168.352 182.321 168.419 182.79 168.381 183.084L167.135 180.057ZM167.176 180.008C167.176 180.008 167.175 180.009 167.173 180.01C167.175 180.009 167.176 180.008 167.176 180.008ZM167.079 180.028C167.079 180.028 167.079 180.028 167.081 180.029L167.079 180.028Z" fill="#F9F9FF" stroke="#1B6EBE" stroke-width="1.23977"/>
<path d="M174.78 194.993L180.942 193.349L180.807 192.843L174.645 194.486L174.78 194.993Z" fill="#1B6EBE"/>
<path d="M175.533 198.477L181.695 196.833L181.56 196.327L175.398 197.97L175.533 198.477Z" fill="#1B6EBE"/>
<path d="M176.018 202.069L182.18 200.426L182.045 199.919L175.883 201.563L176.018 202.069Z" fill="#1B6EBE"/>
<path d="M132.525 229.62L159.597 208.735L159.815 209.218L132.743 230.102L132.525 229.62Z" fill="#1B6EBE" stroke="#1B6EBE" stroke-width="0.867836"/>
<path d="M123.292 203.319L155.682 199.699L155.73 200.226L123.339 203.846L123.292 203.319Z" fill="#1B6EBE" stroke="#1B6EBE" stroke-width="0.867836"/>
<path d="M183.166 160.089L183.166 160.099L183.166 160.11C183.225 161.835 182.168 163.234 180.332 164.248C178.493 165.263 175.974 165.824 173.41 165.862C170.845 165.9 168.313 165.413 166.447 164.409C164.617 163.423 163.487 161.984 163.462 160.066L163.481 160L163.481 159.915L163.481 149.535L183.166 149.535L183.166 160.089Z" fill="#F9F9FF" stroke="#1B6EBE" stroke-width="1.23977"/>
<path d="M158.325 125.717C158.901 127.475 158.966 129.186 158.635 130.519C158.302 131.862 157.6 132.728 156.714 133.019C155.829 133.309 154.75 133.027 153.686 132.142C152.63 131.264 151.669 129.847 151.093 128.088C150.516 126.33 150.451 124.618 150.782 123.285C151.115 121.942 151.817 121.076 152.703 120.786C153.589 120.495 154.667 120.778 155.731 121.662C156.787 122.541 157.748 123.958 158.325 125.717Z" fill="#F9F9FF" stroke="#1B6EBE" stroke-width="1.23977"/>
<path d="M195.472 120.697C196.358 120.987 197.06 121.853 197.393 123.196C197.724 124.529 197.659 126.24 197.083 127.999C196.506 129.757 195.545 131.175 194.489 132.053C193.425 132.938 192.347 133.22 191.461 132.929C190.575 132.639 189.873 131.773 189.54 130.43C189.209 129.097 189.274 127.386 189.85 125.627C190.427 123.869 191.388 122.451 192.444 121.573C193.508 120.688 194.586 120.406 195.472 120.697Z" fill="#F9F9FF" stroke="#1B6EBE" stroke-width="1.23977"/>
<path d="M194.806 121.66C194.806 128.802 192.866 136.708 189.299 142.809C185.729 148.916 180.605 153.101 174.258 153.095C167.498 153.089 162.378 148.894 158.917 142.806C155.452 136.714 153.709 128.813 153.709 121.66C153.709 107.393 163.026 96.0635 174.258 96.0635C185.489 96.0635 194.806 107.393 194.806 121.66Z" fill="#F9F9FF" stroke="#1B6EBE" stroke-width="1.23977"/>
<path d="M174.252 153.424C171.1 153.439 168.29 152.257 166.488 151.264C164.539 150.189 163.348 149.126 163.299 149.081L163.622 148.721C163.634 148.732 164.829 149.798 166.733 150.846C168.482 151.809 171.206 152.954 174.25 152.941L174.252 153.424Z" fill="#1B6EBE"/>
<path d="M176.506 138.424C175.51 138.424 174.623 138.355 174.568 138.35L174.609 137.641C174.628 137.643 176.604 137.797 177.945 137.647C178.027 137.447 178.184 136.351 176.648 130.603C175.782 127.358 174.8 124.231 174.791 124.199L175.356 123.952C175.366 123.983 176.339 127.083 177.205 130.32C178.995 137.007 178.594 137.763 178.444 138.048C178.351 138.223 178.209 138.33 178.045 138.349C177.569 138.405 177.023 138.424 176.506 138.424Z" fill="#1B6EBE"/>
<path d="M165.481 130.679C166.51 130.679 167.343 129.412 167.343 127.85C167.343 126.288 166.51 125.022 165.481 125.022C164.453 125.022 163.62 126.288 163.62 127.85C163.62 129.412 164.453 130.679 165.481 130.679Z" fill="#1B6EBE"/>
<path d="M183.865 130.497C184.893 130.497 185.726 129.231 185.726 127.669C185.726 126.107 184.893 124.841 183.865 124.841C182.836 124.841 182.003 126.107 182.003 127.669C182.003 129.231 182.836 130.497 183.865 130.497Z" fill="#1B6EBE"/>
<path d="M171.858 115.35C171.611 115.304 171.373 115.256 171.144 115.206L170.96 115.677C171.213 115.733 171.478 115.788 171.755 115.839C173.845 116.223 176.984 116.462 180.068 115.417L179.907 114.944C176.93 115.952 173.887 115.721 171.858 115.35Z" fill="#1B6EBE"/>
<path d="M170.841 118.653C170.533 118.593 170.239 118.53 169.956 118.466L169.594 118.939C169.906 119.01 170.234 119.081 170.578 119.148C173.178 119.659 177.172 120.079 181.434 119.18L181.352 118.686C177.237 119.554 173.365 119.147 170.841 118.653Z" fill="#1B6EBE"/>
<path d="M158.245 125.516L158.245 126.023C159.103 126.248 159.887 126.618 160.543 127.006L160.653 126.535C159.966 126.129 159.146 125.745 158.245 125.516Z" fill="#1B6EBE"/>
<path d="M158.16 128.659L158.329 129.097C159.146 128.64 159.946 128.365 160.643 128.203L160.58 127.712C159.852 127.883 159.015 128.173 158.16 128.659Z" fill="#1B6EBE"/>
<path d="M190.949 125.799L190.949 126.306C190.091 126.531 189.307 126.9 188.651 127.289L188.542 126.817C189.228 126.412 190.049 126.027 190.949 125.799Z" fill="#1B6EBE"/>
<path d="M191.035 128.942L190.866 129.38C190.049 128.923 189.249 128.648 188.552 128.486L188.615 127.995C189.343 128.166 190.18 128.456 191.035 128.942Z" fill="#1B6EBE"/>
<path d="M174.371 144.083C174.057 144.034 173.753 143.954 173.459 143.841C171.568 143.11 170.715 141.193 170.685 141.116L171.224 140.94L171.012 141.023L171.396 140.925C171.403 140.942 171.897 142.418 173.6 143.073C174.847 143.552 176.336 143.431 178.015 142.598L178.242 143.294C176.826 143.996 175.528 144.259 174.371 144.083Z" fill="#1B6EBE"/>
<path d="M189.708 123.977C189.646 123.954 185.277 122.766 181.692 123.395L181.413 122.28C183.459 121.92 183.702 122 186.256 122.182C188.125 122.314 189.744 122.904 189.812 122.929L189.708 123.977Z" fill="#1B6EBE"/>
<path d="M160.627 123.871C160.69 123.85 165.089 122.777 168.655 123.5L168.964 122.392C166.928 121.979 166.683 122.053 164.125 122.167C162.253 122.251 160.619 122.797 160.551 122.82L160.627 123.871Z" fill="#1B6EBE"/>
<path d="M151.953 106.678C152.991 101.075 156.317 95.8808 162.793 95.2039C163.172 95.1643 163.522 95.128 163.855 95.1786C163.424 94.3568 162.777 93.6825 162.777 93.6825C162.777 93.6825 163.779 93.9735 164.373 94.5237C164.865 94.9786 164.951 95.1256 164.951 95.1256C165.258 93.7065 163.239 92.0389 163.239 92.0389C163.239 92.0389 163.36 91.8447 164.816 92.8841C165.623 93.4604 166.035 94.2102 166.233 94.9131C168.306 93.2318 171.552 91.5281 178.493 92.0245C184.805 92.476 190.419 96.9271 192.516 98.9031C193.18 99.5289 193.727 100.297 194.175 101.167C197.957 106.986 197.388 119.3 194.275 123.375C194.156 123.53 193.757 119.391 192.178 117.917L192.578 121.439C187.275 113.446 185.277 113.446 185.277 113.446C185.277 113.446 187.63 115.392 188.082 118.711C188.002 118.541 184.238 113.792 179.398 111.948L182.741 116.213C176.606 113.498 173.386 113.26 171.702 112.707C168.983 111.814 166.995 110.232 165.836 109.104C165.187 108.473 164.715 107.686 164.455 106.824C156.718 110.991 154.826 126.55 154.826 126.55L153.05 120.957C153.05 120.957 151.25 110.474 151.953 106.678Z" fill="#B7B308"/>
<path d="M186.907 119.283C186.917 119.307 186.918 119.306 186.907 119.283V119.283Z" fill="#160707"/>
<path d="M196.36 109.396C196.36 109.422 196.362 109.421 196.36 109.396V109.396Z" fill="#160707"/>
<path d="M163.035 154.419L172.46 166.571L166.669 171.815L161.012 157.465L161.012 154.419L163.035 154.419Z" fill="#B7B308"/>
<path d="M184.093 154.431L174.668 166.583L180.458 171.827L186.116 157.426L186.116 154.431L184.093 154.431Z" fill="#B7B308"/>
<path d="M155.919 126.542C155.919 126.752 155.927 126.959 155.942 127.165C155.952 127.291 155.963 127.418 155.979 127.542C155.986 127.613 155.996 127.684 156.008 127.756C156.185 128.973 156.628 130.103 157.273 131.079C158.693 133.225 161.089 134.636 163.809 134.636C168.035 134.636 171.483 131.227 171.687 126.943L177.448 126.943C177.652 131.227 181.102 134.636 185.328 134.636C186.875 134.636 188.318 134.179 189.535 133.391C191.748 131.956 193.218 129.425 193.218 126.542C193.218 124.539 192.509 122.707 191.334 121.294C189.886 119.553 187.732 118.449 185.328 118.449C181.102 118.449 177.652 121.857 177.448 126.141L171.687 126.141C171.483 121.857 168.035 118.449 163.809 118.449C160.266 118.449 157.271 120.842 156.273 124.136L156.273 124.138C156.156 124.523 156.067 124.922 156.008 125.329C155.996 125.4 155.986 125.471 155.979 125.542C155.963 125.667 155.952 125.793 155.942 125.92C155.927 126.125 155.919 126.333 155.919 126.542ZM178.286 126.542C178.286 124.282 179.297 122.264 180.883 120.94C181.035 120.812 181.191 120.691 181.353 120.579C182.331 119.889 183.491 119.449 184.743 119.344C184.935 119.326 185.132 119.318 185.328 119.318C186.257 119.318 187.141 119.502 187.952 119.836C188.828 120.196 189.616 120.733 190.275 121.403C190.442 121.571 190.6 121.749 190.751 121.932C191.001 122.241 191.226 122.571 191.423 122.92C192.026 123.985 192.371 125.222 192.371 126.542C192.371 127.224 192.278 127.884 192.107 128.508C191.883 129.322 191.525 130.077 191.055 130.747C190.556 131.462 189.932 132.079 189.215 132.567C189.158 132.607 189.1 132.646 189.04 132.684C188.582 132.974 188.089 133.215 187.568 133.393C186.865 133.636 186.112 133.766 185.328 133.766C181.439 133.767 178.286 130.532 178.286 126.542ZM156.836 125.525C157.082 123.731 157.97 122.148 159.257 121.031C159.407 120.899 159.561 120.774 159.723 120.658C160.875 119.814 162.285 119.318 163.809 119.318C163.893 119.318 163.978 119.32 164.063 119.324C164.828 119.35 165.56 119.504 166.243 119.763C168.884 120.761 170.78 123.339 170.845 126.378C170.824 126.43 170.81 126.485 170.81 126.542C170.81 126.602 170.824 126.655 170.845 126.706C170.83 127.4 170.72 128.07 170.527 128.702C170.51 128.757 170.493 128.813 170.475 128.868C169.955 130.439 168.923 131.767 167.582 132.642C167.068 132.978 166.509 133.247 165.916 133.437C165.251 133.652 164.543 133.767 163.809 133.767C161.006 133.767 158.589 132.089 157.454 129.66C157.013 128.718 156.767 127.659 156.767 126.542C156.767 126.197 156.79 125.857 156.836 125.525Z" fill="#1B6EBE" stroke="#1B6EBE" stroke-width="0.619883"/>
<g clip-path="url(#clip2_323_3929)">
<path d="M265.244 169.038C265.244 169.054 265.244 169.07 265.244 169.085L265.979 169.104C265.979 169.084 265.979 169.064 265.979 169.044C265.979 169.028 265.979 169.012 265.98 168.995C265.986 168.748 266.048 168.509 266.057 168.416C266.286 166.993 267.222 166.405 267.242 166.393C267.304 166.45 268.186 167.214 268.325 168.492C268.329 168.586 268.375 168.83 268.372 169.077C268.372 169.094 268.371 169.11 268.371 169.126C268.371 169.139 268.37 169.152 268.369 169.165L269.103 169.184C269.104 169.168 269.104 169.152 269.105 169.136C269.137 167.88 268.633 166.975 268.144 166.397L268.159 166.398C267.752 165.469 267.701 164.439 267.771 163.421C267.838 162.447 267.902 161.19 267.963 160.216C267.996 159.684 267.882 159.188 267.537 158.749C267.516 158.722 267.45 158.655 267.432 158.643C267.432 158.643 267.345 158.719 267.322 158.744C266.955 159.165 266.817 159.655 266.823 160.188C266.834 161.164 266.834 162.422 266.852 163.398C266.87 164.414 266.797 165.452 266.331 166.345C265.818 166.891 265.277 167.765 265.244 169.038L265.244 169.038Z" fill="#F9F9FF"/>
<path d="M271.556 160.139C271.535 160.142 271.521 160.14 271.509 160.145C271.475 160.16 271.441 160.176 271.409 160.195C270.97 160.452 270.588 160.777 270.263 161.171C269.61 161.961 269.279 162.88 269.173 163.897C269.117 164.439 269.025 164.977 268.951 165.517C268.914 165.79 268.881 166.063 268.846 166.339C269.112 166.301 269.316 166.405 269.488 166.572C269.724 166.801 269.755 167.163 269.542 167.414C269.444 167.53 269.299 167.609 269.163 167.685C269.158 167.688 269.153 167.69 269.148 167.693C269.217 167.907 269.271 168.136 269.307 168.383C269.323 168.377 269.34 168.371 269.349 168.368C269.915 168.183 270.271 167.805 270.371 167.204C270.456 166.692 270.19 166.14 269.722 165.852C269.642 165.802 269.617 165.758 269.631 165.663C269.72 165.064 269.812 164.464 269.882 163.862C269.946 163.304 270.113 162.791 270.367 162.289C270.485 162.055 270.817 161.591 270.817 161.591C270.817 161.591 270.682 166.878 270.615 169.508L267.796 169.436L267.78 170.073L268.252 170.085C268.093 170.768 267.739 171.219 267.465 171.479L267.52 169.312C267.564 169.144 267.696 168.92 268.075 168.816C268.094 168.811 268.113 168.805 268.132 168.798C268.123 168.697 268.111 168.613 268.109 168.568C268.095 168.419 268.072 168.279 268.042 168.148C267.976 168.167 267.922 168.184 267.883 168.197C267.644 168.278 267.267 168.582 267.187 168.645C267.11 168.578 266.749 168.255 266.515 168.163C266.476 168.147 266.423 168.128 266.358 168.105C266.322 168.235 266.292 168.373 266.27 168.522C266.266 168.566 266.25 168.649 266.235 168.75C266.254 168.757 266.273 168.764 266.291 168.771C266.657 168.892 266.78 169.115 266.818 169.285L266.763 171.453C266.505 171.175 266.175 170.706 266.049 170.029L266.524 170.041L266.541 169.404L263.717 169.332L263.918 161.415C263.918 161.415 264.225 161.896 264.332 162.136C264.56 162.65 264.701 163.171 264.736 163.731C264.775 164.336 264.837 164.939 264.895 165.543C264.904 165.638 264.877 165.681 264.795 165.726C264.313 165.99 264.019 166.528 264.078 167.044C264.148 167.649 264.483 168.045 265.039 168.259C265.048 168.262 265.064 168.268 265.079 168.274C265.125 168.029 265.19 167.801 265.269 167.591C265.266 167.589 265.263 167.587 265.26 167.586C265.128 167.503 264.987 167.416 264.896 167.296C264.695 167.034 264.744 166.675 264.992 166.458C265.173 166.3 265.381 166.206 265.645 166.257C265.624 165.98 265.605 165.706 265.581 165.431C265.535 164.888 265.471 164.346 265.442 163.802C265.388 162.781 265.104 161.846 264.492 161.024C264.188 160.614 263.823 160.27 263.398 159.991C263.367 159.971 263.334 159.953 263.3 159.937C263.289 159.931 263.274 159.932 263.253 159.928L262.998 169.952L265.293 170.01C265.604 171.705 267.088 172.503 267.088 172.503C267.088 172.503 268.617 171.815 269.009 170.105L271.302 170.163L271.556 160.139L271.556 160.139Z" fill="#F9F9FF"/>
<path d="M272.964 157.742L261.833 157.459L261.421 173.694L272.551 173.977L272.964 157.742Z" stroke="#F9F9FF" stroke-width="1.23977" stroke-miterlimit="10"/>
</g>
<path d="M257.203 128.764L256.598 128.982L256.484 128.665L257.088 128.447C257.193 128.409 257.272 128.361 257.325 128.304C257.378 128.246 257.408 128.183 257.416 128.112C257.425 128.041 257.416 127.966 257.388 127.888C257.361 127.815 257.321 127.752 257.267 127.699C257.214 127.645 257.148 127.61 257.069 127.594C256.99 127.578 256.898 127.589 256.793 127.627L256.311 127.801L257.033 129.804L256.633 129.948L255.796 127.626L256.678 127.308C256.857 127.244 257.021 127.22 257.17 127.239C257.319 127.256 257.446 127.309 257.553 127.396C257.658 127.483 257.737 127.598 257.788 127.74C257.842 127.89 257.856 128.031 257.829 128.162C257.801 128.293 257.735 128.41 257.629 128.513C257.524 128.616 257.382 128.699 257.203 128.764ZM258.655 126.945L258.687 129.207L258.267 129.358L258.304 126.722L258.572 126.625L258.655 126.945ZM259.961 128.748L258.54 126.986L258.398 126.688L258.668 126.591L260.382 128.596L259.961 128.748ZM259.617 127.899L259.731 128.216L258.468 128.672L258.354 128.354L259.617 127.899ZM261.647 127.464C261.63 127.416 261.607 127.376 261.579 127.344C261.552 127.312 261.515 127.287 261.467 127.269C261.42 127.252 261.358 127.24 261.282 127.235C261.206 127.229 261.113 127.228 261.001 127.234C260.878 127.24 260.762 127.239 260.654 127.231C260.546 127.222 260.447 127.202 260.358 127.172C260.269 127.141 260.192 127.096 260.128 127.037C260.063 126.978 260.013 126.9 259.979 126.804C259.945 126.71 259.933 126.617 259.945 126.525C259.957 126.433 259.99 126.345 260.043 126.262C260.097 126.178 260.168 126.102 260.258 126.035C260.348 125.967 260.454 125.911 260.576 125.866C260.748 125.804 260.908 125.783 261.055 125.802C261.204 125.82 261.331 125.871 261.436 125.954C261.543 126.037 261.62 126.143 261.667 126.273L261.27 126.416C261.242 126.34 261.201 126.278 261.147 126.232C261.094 126.184 261.028 126.154 260.95 126.144C260.873 126.134 260.784 126.146 260.684 126.182C260.59 126.216 260.516 126.259 260.464 126.31C260.411 126.362 260.379 126.417 260.365 126.477C260.352 126.537 260.357 126.598 260.379 126.66C260.395 126.704 260.419 126.74 260.452 126.769C260.485 126.796 260.528 126.818 260.581 126.834C260.633 126.849 260.695 126.858 260.767 126.862C260.84 126.866 260.923 126.865 261.017 126.859C261.159 126.851 261.286 126.853 261.399 126.865C261.511 126.876 261.61 126.9 261.695 126.935C261.779 126.971 261.851 127.02 261.91 127.083C261.968 127.145 262.014 127.222 262.048 127.316C262.083 127.414 262.095 127.509 262.084 127.602C262.073 127.693 262.041 127.78 261.987 127.862C261.935 127.942 261.863 128.016 261.771 128.082C261.681 128.147 261.573 128.202 261.449 128.247C261.337 128.287 261.222 128.312 261.103 128.322C260.985 128.331 260.87 128.321 260.76 128.292C260.65 128.262 260.552 128.211 260.467 128.138C260.382 128.064 260.317 127.966 260.272 127.843L260.672 127.698C260.7 127.774 260.736 127.834 260.78 127.877C260.826 127.921 260.878 127.951 260.937 127.969C260.996 127.985 261.059 127.99 261.127 127.983C261.195 127.977 261.265 127.96 261.336 127.935C261.43 127.901 261.503 127.859 261.556 127.81C261.61 127.761 261.645 127.706 261.659 127.647C261.674 127.588 261.67 127.527 261.647 127.464ZM263.625 126.751C263.607 126.703 263.584 126.663 263.556 126.631C263.529 126.599 263.492 126.574 263.444 126.556C263.397 126.538 263.335 126.527 263.259 126.522C263.184 126.516 263.09 126.515 262.978 126.521C262.855 126.527 262.739 126.526 262.631 126.518C262.523 126.509 262.424 126.489 262.335 126.459C262.246 126.427 262.169 126.383 262.105 126.324C262.04 126.265 261.99 126.187 261.956 126.091C261.922 125.997 261.91 125.903 261.922 125.812C261.934 125.72 261.967 125.632 262.02 125.549C262.074 125.465 262.145 125.389 262.235 125.322C262.325 125.254 262.431 125.198 262.553 125.153C262.725 125.091 262.885 125.07 263.032 125.089C263.181 125.107 263.308 125.158 263.413 125.241C263.52 125.324 263.597 125.43 263.644 125.56L263.247 125.703C263.219 125.627 263.178 125.565 263.124 125.519C263.071 125.471 263.005 125.441 262.927 125.431C262.85 125.421 262.761 125.433 262.661 125.469C262.567 125.503 262.493 125.546 262.441 125.597C262.389 125.649 262.356 125.704 262.343 125.764C262.329 125.824 262.334 125.885 262.356 125.947C262.372 125.99 262.396 126.027 262.43 126.056C262.462 126.083 262.505 126.105 262.558 126.121C262.61 126.136 262.672 126.145 262.744 126.149C262.817 126.153 262.9 126.152 262.994 126.146C263.136 126.138 263.264 126.14 263.376 126.152C263.488 126.163 263.587 126.187 263.672 126.222C263.757 126.258 263.828 126.307 263.887 126.37C263.945 126.431 263.991 126.509 264.025 126.603C264.06 126.7 264.073 126.796 264.062 126.889C264.05 126.98 264.018 127.067 263.964 127.149C263.912 127.229 263.84 127.303 263.748 127.369C263.658 127.434 263.55 127.489 263.426 127.534C263.314 127.574 263.199 127.599 263.08 127.609C262.962 127.617 262.848 127.608 262.738 127.579C262.627 127.549 262.529 127.498 262.444 127.425C262.359 127.351 262.294 127.253 262.249 127.13L262.65 126.985C262.677 127.061 262.713 127.12 262.757 127.164C262.803 127.208 262.856 127.238 262.915 127.255C262.973 127.272 263.036 127.276 263.104 127.27C263.172 127.263 263.242 127.247 263.313 127.222C263.407 127.188 263.48 127.146 263.533 127.097C263.587 127.048 263.622 126.993 263.636 126.934C263.651 126.875 263.647 126.814 263.625 126.751ZM265.165 125.892L264.561 126.11L264.447 125.793L265.051 125.575C265.156 125.537 265.235 125.489 265.288 125.432C265.34 125.375 265.371 125.311 265.379 125.241C265.388 125.169 265.378 125.094 265.35 125.017C265.324 124.943 265.284 124.88 265.23 124.828C265.177 124.773 265.111 124.738 265.032 124.722C264.953 124.707 264.861 124.718 264.755 124.755L264.274 124.929L264.996 126.932L264.596 127.076L263.759 124.755L264.64 124.437C264.82 124.372 264.984 124.349 265.133 124.367C265.282 124.384 265.409 124.437 265.515 124.525C265.621 124.611 265.7 124.726 265.751 124.868C265.805 125.018 265.819 125.159 265.791 125.29C265.764 125.421 265.698 125.538 265.592 125.641C265.487 125.744 265.345 125.828 265.165 125.892ZM268.091 124.432L268.137 124.559C268.2 124.735 268.234 124.9 268.239 125.056C268.243 125.212 268.221 125.354 268.171 125.482C268.122 125.61 268.048 125.722 267.949 125.816C267.849 125.91 267.728 125.983 267.584 126.034C267.442 126.086 267.302 126.107 267.166 126.099C267.03 126.089 266.902 126.051 266.78 125.984C266.659 125.917 266.549 125.823 266.451 125.701C266.354 125.578 266.274 125.429 266.211 125.254L266.165 125.126C266.102 124.951 266.069 124.786 266.065 124.631C266.062 124.475 266.085 124.332 266.135 124.204C266.185 124.074 266.26 123.962 266.358 123.869C266.458 123.775 266.578 123.702 266.721 123.65C266.864 123.599 267.004 123.577 267.141 123.587C267.278 123.595 267.406 123.634 267.527 123.702C267.647 123.769 267.755 123.864 267.851 123.987C267.948 124.108 268.028 124.256 268.091 124.432ZM267.737 124.704L267.69 124.573C267.643 124.443 267.589 124.334 267.528 124.244C267.467 124.153 267.401 124.083 267.327 124.033C267.255 123.983 267.178 123.953 267.095 123.944C267.012 123.934 266.927 123.945 266.839 123.977C266.751 124.009 266.678 124.055 266.622 124.115C266.565 124.174 266.524 124.246 266.5 124.332C266.476 124.416 266.47 124.513 266.48 124.622C266.49 124.73 266.519 124.849 266.566 124.978L266.613 125.109C266.659 125.239 266.714 125.349 266.775 125.44C266.837 125.53 266.904 125.602 266.978 125.653C267.053 125.703 267.131 125.733 267.213 125.743C267.294 125.752 267.379 125.741 267.467 125.709C267.556 125.677 267.629 125.631 267.686 125.572C267.743 125.512 267.782 125.44 267.806 125.355C267.829 125.268 267.834 125.171 267.823 125.062C267.812 124.953 267.784 124.833 267.737 124.704ZM268.096 123.19L268.917 122.894C269.093 122.831 269.253 122.803 269.397 122.811C269.54 122.82 269.664 122.864 269.767 122.944C269.871 123.023 269.951 123.139 270.006 123.291C270.048 123.407 270.063 123.516 270.052 123.62C270.042 123.724 270.008 123.82 269.953 123.908C269.897 123.996 269.821 124.075 269.725 124.147L269.625 124.25L268.887 124.516L268.77 124.2L269.323 124C269.418 123.966 269.492 123.92 269.544 123.863C269.595 123.806 269.626 123.742 269.637 123.672C269.649 123.601 269.641 123.528 269.614 123.454C269.585 123.373 269.544 123.309 269.49 123.26C269.438 123.211 269.373 123.182 269.297 123.174C269.22 123.164 269.132 123.177 269.032 123.213L268.611 123.365L269.333 125.368L268.933 125.512L268.096 123.19ZM270.258 125.034L269.336 124.188L269.755 124.035L270.678 124.859L270.685 124.88L270.258 125.034ZM270.999 122.143L271.836 124.465L271.439 124.608L270.602 122.287L270.999 122.143ZM271.728 121.881L271.843 122.199L269.995 122.866L269.88 122.547L271.728 121.881Z" fill="#F9F9FF"/>
</g>
</g>
<defs>
<clipPath id="clip0_323_3929">
<rect width="374" height="380" rx="10" fill="white"/>
</clipPath>
<clipPath id="clip1_323_3929">
<rect width="361.996" height="264.536" fill="white" transform="translate(-28 126.31) rotate(-21.6085)"/>
</clipPath>
<clipPath id="clip2_323_3929">
<rect width="9.28196" height="13.9229" fill="white" transform="translate(262.826 158.458) rotate(1.45623)"/>
</clipPath>
</defs>
</svg>
